<svg width="40" height="40" viewBox="0 0 40 40" fill="none" xmlns="http://www.w3.org/2000/svg">
<path fill-rule="evenodd" clip-rule="evenodd" d="M29.3031 27.388C25.325 28.3475 21.4321 29.5445 17.5776 30.9147C17.0268 31.123 16.4289 30.8525 16.283 30.3236C15.9727 29.1972 15.6975 28.3306 15.3909 27.208C15.2623 26.7368 15.5378 26.2247 16.0266 26.0464C19.8824 24.7307 23.7746 23.697 27.7566 22.8394C28.1955 22.7495 28.6575 23.0722 28.8156 23.5668C29.1374 24.5735 29.4174 25.3823 29.7305 26.3933C29.8725 26.8516 29.6846 27.296 29.3031 27.388ZM9.34925 25.2384C9.11388 24.0268 8.87615 23.1169 8.64529 21.9081C8.55539 21.4354 8.81286 20.8988 9.2424 20.6969C15.1311 18.1098 21.3408 16.5444 27.7182 15.7372C28.1381 15.6825 28.5625 15.9923 28.7189 16.4558C29.0554 17.4526 29.3424 18.2568 29.6692 19.2583C29.8269 19.7415 29.6168 20.2105 29.2047 20.2774C22.7204 21.3101 16.3993 23.042 10.418 25.7622C9.93735 25.9947 9.45009 25.7564 9.34925 25.2384ZM12.2158 11.4676C16.16 10.3332 20.0956 9.59663 24.1691 9.09778C24.6137 9.04994 25.0479 9.33702 25.2086 9.77471C25.5869 10.8057 25.895 11.6272 26.2651 12.6639C26.4408 13.1559 26.1795 13.6464 25.7017 13.7099C21.5333 14.3229 17.4934 15.1654 13.4636 16.3968C12.9721 16.559 12.4883 16.3122 12.364 15.834C12.0707 14.7026 11.8043 13.8333 11.5161 12.7056C11.3867 12.1988 11.7019 11.6276 12.2158 11.4676ZM20 2C10.0589 2 2 10.059 2 20C2 29.941 10.0589 38 20 38C29.941 38 37.9999 29.941 37.9999 20C37.9999 10.059 29.941 2 20 2Z" fill="#2C2A29"/>
</svg>
