<svg width="40" height="40" viewBox="0 0 40 40" fill="none" xmlns="http://www.w3.org/2000/svg">
<circle cx="20" cy="20" r="20" fill="#2C2A29"/>
<path fill-rule="evenodd" clip-rule="evenodd" d="M9.21954 15.1542V28.5537L9.21646 28.5506C9.21646 29.2251 9.76463 29.7702 10.436 29.7702H16.1056V30.9897H10.436C9.09327 30.9897 8 29.8964 8 28.5537V13.9347H12.872V11.5357C12.872 8.85021 15.0616 6.66675 17.747 6.66675C20.4325 6.66675 22.619 8.85329 22.619 11.5387V13.9378H27.491L27.4972 18.6127H26.2746V15.1542H22.619V17.6795H21.3995V15.1542H13.996V17.6795H12.7765V15.1542H9.21954ZM21.3995 11.5387C21.3995 9.52208 19.7589 7.88404 17.7455 7.8832C15.7291 7.88404 14.0915 9.52516 14.0915 11.5387V13.9378H21.3995V11.5387Z" fill="white"/>
<path d="M19.1547 25.7575C20.4881 25.7513 21.5845 26.7429 21.5906 27.9656C21.5968 28.9664 20.8731 29.8164 19.8784 30.0936L19.8845 31.2484L18.4833 31.2546L18.4771 30.0997C17.4793 29.8318 16.7464 28.9911 16.7402 27.9902V27.8732L18.1445 27.867V27.984C18.1476 28.4983 18.6096 28.9141 19.1731 28.9141C19.7367 28.911 20.1956 28.486 20.1925 27.9717C20.1894 27.4574 19.7275 27.0417 19.1639 27.0417C17.8304 27.0478 16.7341 26.0562 16.7279 24.8336C16.7217 23.8327 17.4455 22.9827 18.4402 22.7055L18.434 21.5507L19.8353 21.5445L19.8414 22.6994C20.8392 22.9673 21.5722 23.808 21.5783 24.8089V24.926L20.174 24.9321V24.8151C20.1709 24.3008 19.709 23.885 19.1454 23.885C18.5818 23.8881 18.1261 24.3131 18.1261 24.8274C18.1291 25.3417 18.5911 25.7575 19.1547 25.7575Z" fill="white"/>
<path d="M28.3256 26.3982C28.3256 25.733 28.0669 25.1047 27.5957 24.6335L22.4281 19.4659L21.5658 20.3282L26.7334 25.4958C26.9736 25.736 27.106 26.0563 27.106 26.3982C27.106 26.74 26.9736 27.0603 26.7334 27.3005L21.5658 32.4681L22.4281 33.3304L27.5957 28.1628C28.0669 27.6916 28.3256 27.0664 28.3256 26.4012V26.3982Z" fill="white"/>
<path d="M27.1403 19.4688L32.3079 24.6365V24.6395C32.7791 25.1107 33.0378 25.739 33.0378 26.4042C33.0378 27.0694 32.7791 27.6945 32.3079 28.1657L27.1403 33.3333L26.278 32.4711L31.4456 27.3034C31.6858 27.0632 31.8183 26.7429 31.8183 26.4011C31.8183 26.0592 31.6858 25.739 31.4456 25.4988L26.278 20.3311L27.1403 19.4688Z" fill="white"/>
</svg>
