<svg width="56" height="57" viewBox="0 0 56 57" fill="none" xmlns="http://www.w3.org/2000/svg">
<rect x="4.66666" y="5.16666" width="46.6667" height="46.6667" rx="5" fill="#ED2029"/>
<path d="M29.0386 29.4041C29.0386 28.9306 29.024 28.5475 29.008 28.1963H29.6126L29.6432 28.8315H29.6577C29.9331 28.3799 30.3687 28.1133 30.9733 28.1133C31.8678 28.1133 32.5409 28.8709 32.5409 29.9941C32.5409 31.3242 31.7308 31.9827 30.8582 31.9827C30.3687 31.9827 29.9404 31.7686 29.7189 31.4014H29.7043V33.4119H29.0386V29.4055V29.4041ZM29.7043 30.3904C29.7043 30.4895 29.7189 30.5812 29.7349 30.6657C29.8573 31.1319 30.2623 31.4539 30.7445 31.4539C31.4555 31.4539 31.8692 30.8726 31.8692 30.0247C31.8692 29.2832 31.4788 28.648 30.7679 28.648C30.3089 28.648 29.8806 28.9772 29.751 29.4813C29.7277 29.5658 29.7058 29.6649 29.7058 29.7566V30.3918L29.7043 30.3904Z" fill="white"/>
<path d="M33.3888 26.4685H34.0618V31.8968H33.3888V26.4685Z" fill="white"/>
<path d="M37.2422 31.8968L37.1883 31.4306H37.165C36.9581 31.7205 36.5604 31.9813 36.033 31.9813C35.2842 31.9813 34.901 31.4539 34.901 30.9178C34.901 30.0233 35.6965 29.5338 37.1256 29.541V29.4638C37.1256 29.1579 37.0411 28.6072 36.285 28.6072C35.9412 28.6072 35.5814 28.7135 35.322 28.8825L35.1691 28.4396C35.475 28.2415 35.9179 28.1104 36.3841 28.1104C37.5161 28.1104 37.7914 28.8825 37.7914 29.6241V31.0081C37.7914 31.3286 37.806 31.6433 37.8526 31.8953H37.2407L37.2422 31.8968ZM37.1431 30.0087C36.4089 29.9941 35.5755 30.1238 35.5755 30.842C35.5755 31.2776 35.8654 31.4845 36.2107 31.4845C36.6929 31.4845 36.9989 31.1786 37.1052 30.8653C37.1285 30.7969 37.1431 30.7196 37.1431 30.6512V30.0087Z" fill="white"/>
<path d="M39.6577 27.1328V28.1963H40.6206V28.7092H39.6577V30.7051C39.6577 31.164 39.7873 31.4233 40.1617 31.4233C40.338 31.4233 40.4677 31.4 40.5522 31.3781L40.5828 31.8822C40.4531 31.9361 40.2462 31.974 39.9869 31.974C39.6737 31.974 39.4216 31.8749 39.2599 31.6914C39.0691 31.4932 39.0006 31.164 39.0006 30.7284V28.7092H38.4266V28.1963H39.0006V27.3091L39.6577 27.1328Z" fill="white"/>
<path d="M43.428 31.8968L43.3741 31.4306H43.3508C43.1439 31.7205 42.7462 31.9813 42.2188 31.9813C41.47 31.9813 41.0869 31.4539 41.0869 30.9178C41.0869 30.0233 41.8823 29.5338 43.3115 29.541V29.4638C43.3115 29.1579 43.227 28.6072 42.4709 28.6072C42.1271 28.6072 41.7672 28.7135 41.5079 28.8825L41.3549 28.4396C41.6609 28.2415 42.1037 28.1104 42.5699 28.1104C43.7019 28.1104 43.9773 28.8825 43.9773 29.6241V31.0081C43.9773 31.3286 43.9918 31.6433 44.0385 31.8953H43.4266L43.428 31.8968ZM43.329 30.0087C42.5947 29.9941 41.7614 30.1238 41.7614 30.842C41.7614 31.2776 42.0513 31.4845 42.3966 31.4845C42.8788 31.4845 43.1847 31.1786 43.2911 30.8653C43.3144 30.7969 43.329 30.7196 43.329 30.6512V30.0087Z" fill="white"/>
<path d="M16.9801 26.8065C15.6412 26.7686 13.9119 30.249 13.4545 31.4029C13.1966 32.0468 13.992 32.5101 14.2499 31.8662C14.6753 30.7939 16.1293 27.803 16.9815 27.8088C17.8338 27.8132 19.2382 30.8201 19.6534 31.8968C19.9025 32.5436 20.7038 32.0891 20.4532 31.4422C20.0074 30.2825 18.3175 26.7832 16.9801 26.8065ZM13.3933 29.3254C13.3889 29.2846 13.3831 29.2467 13.3758 29.2074C13.3292 28.9539 13.2505 28.7237 13.1412 28.5183C13.1383 28.5139 13.1354 28.5095 13.1339 28.5052C13.1048 28.4513 13.0742 28.4017 13.0422 28.3507C13.0203 28.3172 12.9985 28.2852 12.9766 28.2546C12.962 28.2342 12.946 28.2138 12.93 28.1919C12.8979 28.1497 12.8659 28.1104 12.8353 28.0739C12.8003 28.0346 12.7654 27.9953 12.7289 27.9574C12.7217 27.9501 12.7129 27.9414 12.7056 27.9341C11.2968 26.5428 8.22868 26.6841 7.35164 27.0541C6.7587 27.3033 6.96266 28.039 7.61242 27.752C8.66865 27.4839 9.68846 27.4897 10.7316 27.752C11.5838 27.9661 12.4754 28.7106 12.4754 29.5104C12.4143 31.5034 9.77878 31.5821 8.70944 31.3228V28.8432C8.70944 28.2517 7.9475 28.2459 7.9475 28.8388V31.3315C7.9475 31.8327 8.20537 32.0133 8.54773 32.092C9.35192 32.2755 12.7304 32.4737 13.3306 30.0728C13.3423 30.0261 13.351 29.9824 13.3598 29.9373C13.3685 29.8965 13.3772 29.8557 13.3831 29.8134C13.4064 29.6503 13.4093 29.4958 13.3976 29.3502C13.3976 29.3414 13.3962 29.3327 13.3947 29.3239L13.3933 29.3254ZM27.5613 27.3455C27.5613 26.655 26.693 26.6579 26.693 27.3339V31.6913C26.693 32.344 27.5613 32.3688 27.5613 31.7161V27.3455ZM25.3876 27.0935C25.0089 28.173 23.7093 31.1829 22.9212 31.1916C22.133 31.1989 20.7898 28.2138 20.3906 27.143C20.1502 26.5005 19.4174 26.9667 19.6563 27.6092C20.0861 28.7616 21.7018 32.2362 22.9387 32.194C24.1755 32.2129 25.7227 28.7062 26.1306 27.5466C26.3579 26.8997 25.6164 26.4481 25.3876 27.0949V27.0935Z" fill="white"/>
<path d="M47.6515 24.7625C46.9755 24.1914 45.826 23.3333 45.4866 23.0813C45.5317 22.5582 45.6235 21.993 45.7444 21.5108C45.8828 20.9601 46.0038 20.4851 45.7444 20.153C45.5696 19.9286 45.2651 19.8252 44.7844 19.8252H42.991C42.583 19.8252 42.2873 19.9432 42.1095 20.1748C41.977 20.3482 41.9231 20.5813 41.9508 20.845C40.0233 19.7946 38.3552 19.1725 37.4316 19.1667H37.4286C36.4351 19.1725 34.5848 19.8893 32.4782 21.0824C32.1796 21.2514 30.3585 22.3266 29.4756 23.007C29.461 23.0172 28.0129 24.0661 27.2102 24.7392C26.8241 25.0641 26.5429 25.3642 26.3375 25.641H26.339C26.3069 25.6803 26.2865 25.7269 26.2865 25.7808C26.2865 25.9032 26.3856 26.0023 26.508 26.0023C26.5764 26.0023 26.6347 25.9688 26.6755 25.9207H26.677C26.677 25.9207 26.7396 25.8362 26.7819 25.7779C26.9669 25.5492 27.2014 25.3132 27.4884 25.0713C28.2781 24.4085 29.7145 23.3697 29.7335 23.3552C30.6018 22.6865 32.3966 21.6273 32.6909 21.4612C34.7349 20.303 36.5064 19.6081 37.4301 19.6008C38.3523 19.6066 40.1224 20.3016 42.1678 21.4612C42.2421 21.5035 42.3354 21.4976 42.4038 21.4467C42.4723 21.3957 42.5044 21.3083 42.4854 21.2238C42.4738 21.1728 42.4577 21.1203 42.4432 21.0679C42.4344 21.0387 42.4257 21.0096 42.4184 20.9805C42.3805 20.845 42.3354 20.5944 42.4548 20.4371C42.567 20.2885 42.8088 20.2579 42.991 20.2579H44.7844C45.1063 20.2579 45.3205 20.3132 45.4021 20.4196C45.5303 20.5842 45.4297 20.9834 45.3234 21.4059C45.1879 21.9478 45.0859 22.5903 45.0437 23.1687C45.0379 23.243 45.0714 23.3144 45.1311 23.3581C45.1457 23.3683 46.5865 24.4289 47.3703 25.0917C48.3231 25.8959 48.7281 26.6448 48.5081 27.2013C48.2648 27.819 47.2508 28.1905 45.9877 28.1278C45.8377 28.1206 45.6905 28.1133 45.5463 28.106L45.2724 28.0929C45.2127 28.09 45.1529 28.1118 45.1107 28.1541C45.0684 28.1963 45.0437 28.2546 45.0451 28.3143C45.0626 29.0034 45.2666 30.3947 46.4379 31.9711C47.4883 33.2269 47.6442 34.6794 46.8633 35.957C45.9309 37.4853 43.597 38.712 40.4837 38.0112C40.4458 38.0025 40.405 38.0039 40.3671 38.0171C39.5178 38.3011 38.1381 38.4279 37.4286 38.4279C36.7191 38.4279 35.3395 38.2997 34.4916 38.0171C34.4697 38.0098 34.4464 38.0054 34.4231 38.0054C34.4071 38.0054 34.3911 38.0069 34.375 38.0112C31.2588 38.7134 28.9235 37.4838 27.9925 35.957C27.4855 35.1266 27.3792 34.2219 27.6545 33.342C27.6545 33.342 27.6676 33.2939 27.6633 33.2575C27.6633 33.2546 27.6633 33.2487 27.6633 33.2458C27.6531 33.1555 27.5861 33.0826 27.4914 33.0637C27.3996 33.0448 27.3107 33.0856 27.2655 33.1628C27.2655 33.1628 27.2626 33.1671 27.2626 33.1686C27.2379 33.2079 27.216 33.3055 27.216 33.3055C26.9421 34.2744 27.0732 35.2796 27.6239 36.1829C28.4383 37.5188 30.223 38.6479 32.621 38.6479C33.1862 38.6479 33.785 38.5852 34.4129 38.4483C35.357 38.7499 36.7556 38.862 37.4286 38.862C38.1017 38.862 39.5003 38.7484 40.4458 38.4483C43.7398 39.168 46.2267 37.8335 47.2333 36.1843C48.1031 34.7595 47.9297 33.0797 46.7773 31.7045C45.8042 30.3947 45.5463 29.2292 45.4909 28.5387H45.523C45.6687 28.5474 45.8173 28.5547 45.9659 28.562C47.4373 28.6348 48.5941 28.1657 48.9102 27.3615C49.1171 26.8356 49.0675 25.9571 47.6486 24.761L47.6515 24.7625Z" fill="white"/>
</svg>
