<svg width="40" height="40" viewBox="0 0 40 40" fill="none" xmlns="http://www.w3.org/2000/svg">
<path d="M20 38C29.9411 38 38 29.9411 38 20C38 10.0589 29.9411 2 20 2C10.0589 2 2 10.0589 2 20C2 29.9411 10.0589 38 20 38Z" fill="#2B2929"/>
<path d="M8.53149 27.6115H31.4686V12.3887H8.53149V27.6115ZM9.61149 13.4687H30.3886V26.5315H9.61149V13.4687Z" fill="white"/>
<path d="M20.0001 16.2458C19.2576 16.2458 18.5318 16.466 17.9144 16.8786C17.297 17.2911 16.8158 17.8774 16.5316 18.5634C16.2475 19.2494 16.1731 20.0043 16.318 20.7325C16.4628 21.4608 16.8204 22.1298 17.3455 22.6548C17.8705 23.1799 18.5395 23.5374 19.2677 23.6823C19.996 23.8271 20.7508 23.7528 21.4368 23.4686C22.1228 23.1845 22.7092 22.7033 23.1217 22.0859C23.5342 21.4685 23.7544 20.7427 23.7544 20.0001C23.7544 19.0044 23.3589 18.0495 22.6548 17.3454C21.9507 16.6414 20.9958 16.2458 20.0001 16.2458ZM20.0001 22.6744C19.4712 22.6744 18.9542 22.5176 18.5144 22.2237C18.0746 21.9299 17.7318 21.5122 17.5294 21.0235C17.327 20.5349 17.274 19.9972 17.3772 19.4784C17.4804 18.9596 17.7351 18.4831 18.1091 18.1091C18.4831 17.7351 18.9596 17.4804 19.4784 17.3772C19.9972 17.274 20.5349 17.327 21.0235 17.5294C21.5122 17.7318 21.9299 18.0746 22.2237 18.5144C22.5176 18.9542 22.6744 19.4712 22.6744 20.0001C22.671 20.7084 22.3882 21.3866 21.8874 21.8874C21.3866 22.3882 20.7084 22.671 20.0001 22.6744Z" fill="white"/>
<path d="M25.2458 16.0532H27.8173V23.9475H25.2458V25.0532H28.8973V14.9475H25.2458V16.0532Z" fill="white"/>
<path d="M11.1029 25.0532H14.7543V23.9475H12.1829V16.0532H14.7543V14.9475H11.1029V25.0532Z" fill="white"/>
</svg>
