<svg width="30" height="23" viewBox="0 0 30 23" fill="none" xmlns="http://www.w3.org/2000/svg">
<g clip-path="url(#clip0_26_10342)">
<path d="M28.5457 22.6974V22.7543H28.5987C28.6087 22.7545 28.6185 22.7521 28.6271 22.7471C28.6341 22.7421 28.6382 22.7339 28.6378 22.7253C28.6382 22.7169 28.6341 22.7088 28.6271 22.7041C28.6186 22.699 28.6087 22.6964 28.5987 22.6969H28.5457V22.6974ZM28.5993 22.6572C28.622 22.6557 28.6445 22.6623 28.6629 22.6757C28.678 22.6879 28.6862 22.7067 28.6852 22.726C28.686 22.7427 28.6794 22.7587 28.6673 22.7703C28.6531 22.7827 28.6352 22.79 28.6165 22.7915L28.6875 22.8726H28.6328L28.5674 22.792H28.5463V22.8726H28.5005V22.6573H28.5993V22.6572ZM28.5851 22.9467C28.6091 22.947 28.6328 22.9421 28.6548 22.9325C28.676 22.9234 28.6953 22.9103 28.7117 22.8939C28.728 22.8775 28.7411 22.8583 28.7502 22.837C28.7688 22.7919 28.7688 22.7413 28.7502 22.6962C28.7409 22.675 28.7279 22.6556 28.7117 22.6392C28.6953 22.6229 28.676 22.6098 28.6548 22.6007C28.6327 22.5916 28.6089 22.587 28.5851 22.5873C28.5608 22.587 28.5366 22.5916 28.514 22.6007C28.4923 22.6096 28.4727 22.6227 28.4559 22.6392C28.4045 22.692 28.3895 22.7704 28.418 22.8384C28.4266 22.8598 28.4396 22.8791 28.4559 22.8953C28.4727 22.9118 28.4923 22.9249 28.514 22.9339C28.5365 22.9434 28.5606 22.9484 28.5851 22.9481V22.9467ZM28.5851 22.5355C28.6474 22.5355 28.7076 22.56 28.752 22.6038C28.7735 22.6249 28.7905 22.6499 28.8023 22.6777C28.8269 22.7351 28.8269 22.8001 28.8023 22.8576C28.7904 22.8852 28.7732 22.9103 28.752 22.9315C28.7303 22.9524 28.7048 22.9693 28.6771 22.9813C28.648 22.9936 28.6168 22.9999 28.5851 22.9998C28.5531 23 28.5214 22.9936 28.4919 22.9813C28.4639 22.9696 28.4383 22.9527 28.4164 22.9315C28.3952 22.9094 28.3783 22.8835 28.3668 22.8552C28.3422 22.7977 28.3422 22.7327 28.3668 22.6752C28.3786 22.6475 28.3957 22.6225 28.4171 22.6014C28.4386 22.5799 28.4643 22.5628 28.4926 22.5516C28.5221 22.5392 28.5538 22.5328 28.5858 22.5331L28.5851 22.5355ZM6.82757 21.7042C6.82757 21.2938 7.09613 20.9566 7.53506 20.9566C7.97399 20.9566 8.23757 21.2793 8.23757 21.7042C8.23757 22.1292 7.95452 22.4519 7.53506 22.4519C7.11559 22.4519 6.82757 22.1147 6.82757 21.7042ZM8.71572 21.7042V20.5362H8.20858V20.8207C8.04773 20.6105 7.80376 20.4786 7.47197 20.4786C6.81833 20.4786 6.30537 20.9919 6.30537 21.7048C6.30537 22.4177 6.81805 22.931 7.47197 22.931C7.80361 22.931 8.04773 22.799 8.20858 22.5889V22.8724H8.71515V21.7042H8.71572ZM25.8512 21.7042C25.8512 21.2938 26.1197 20.9566 26.5588 20.9566C26.9979 20.9566 27.2613 21.2793 27.2613 21.7042C27.2613 22.1292 26.9787 22.4519 26.5588 22.4519C26.1389 22.4519 25.8512 22.1147 25.8512 21.7042ZM27.7399 21.7042V19.5986H27.2323V20.8207C27.0715 20.6105 26.8275 20.4786 26.4957 20.4786C25.8421 20.4786 25.3291 20.9919 25.3291 21.7048C25.3291 22.4177 25.8418 22.931 26.4957 22.931C26.8275 22.931 27.0715 22.799 27.2323 22.5889V22.8724H27.7399V21.7042ZM15.0099 20.9326C15.3368 20.9326 15.5466 21.1377 15.6002 21.4989H14.3901C14.4443 21.1618 14.6487 20.9326 15.0101 20.9326H15.0099ZM15.0202 20.4773C14.3367 20.4773 13.8585 20.9752 13.8585 21.7035C13.8585 22.4318 14.3559 22.9298 15.0541 22.9298C15.4054 22.9298 15.7271 22.842 16.0101 22.6025L15.7616 22.2262C15.5661 22.3827 15.3171 22.4705 15.0831 22.4705C14.7563 22.4705 14.4587 22.319 14.3856 21.8986H16.1173C16.1222 21.8354 16.1274 21.7717 16.1274 21.7034C16.1222 20.9754 15.6727 20.4772 15.0199 20.4772L15.0202 20.4773ZM21.1427 21.7034C21.1427 21.2929 21.4113 20.9558 21.8502 20.9558C22.2891 20.9558 22.5527 21.2784 22.5527 21.7034C22.5527 22.1283 22.2697 22.451 21.8502 22.451C21.4308 22.451 21.1426 22.1138 21.1426 21.7034H21.1427ZM23.0307 21.7034V20.5362H22.5239V20.8207C22.3625 20.6105 22.1191 20.4786 21.7873 20.4786C21.1336 20.4786 20.6207 20.9919 20.6207 21.7048C20.6207 22.4177 21.1333 22.931 21.7873 22.931C22.1191 22.931 22.3625 22.799 22.5239 22.5889V22.8724H23.0309V21.7034H23.0307ZM18.2787 21.7034C18.2787 22.4118 18.7712 22.9296 19.5229 22.9296C19.8741 22.9296 20.1081 22.8514 20.3612 22.6512L20.1177 22.2407C19.9273 22.3777 19.7273 22.451 19.5067 22.451C19.1018 22.446 18.8041 22.153 18.8041 21.7034C18.8041 21.2538 19.1018 20.9609 19.5067 20.9558C19.7268 20.9558 19.9267 21.029 20.1177 21.166L20.3612 20.7556C20.1077 20.5554 19.8737 20.4772 19.5229 20.4772C18.7712 20.4772 18.2787 20.9949 18.2787 21.7034ZM24.8164 20.4772C24.5239 20.4772 24.3333 20.6142 24.2016 20.8193V20.5362H23.699V22.8711H24.2067V21.5623C24.2067 21.1758 24.3725 20.9612 24.704 20.9612C24.8126 20.9596 24.9205 20.9795 25.0212 21.0199L25.1775 20.5413C25.0652 20.4971 24.9189 20.4776 24.8162 20.4776L24.8164 20.4772ZM11.2228 20.7219C10.9789 20.5608 10.6427 20.4776 10.2718 20.4776C9.68097 20.4776 9.30058 20.7611 9.30058 21.2251C9.30058 21.6058 9.58377 21.8407 10.1053 21.9139L10.3448 21.9481C10.6229 21.9872 10.7542 22.0605 10.7542 22.1924C10.7542 22.3729 10.5695 22.4759 10.2226 22.4759C9.87578 22.4759 9.61788 22.3635 9.44694 22.2316L9.20864 22.6276C9.48672 22.8327 9.83798 22.9306 10.2184 22.9306C10.8919 22.9306 11.2822 22.6131 11.2822 22.1685C11.2822 21.758 10.975 21.5433 10.4675 21.4701L10.2285 21.4353C10.0089 21.4069 9.83301 21.3626 9.83301 21.2061C9.83301 21.0354 9.99883 20.9327 10.2771 20.9327C10.5747 20.9327 10.8629 21.0451 11.0041 21.1329L11.2237 20.7224L11.2228 20.7219ZM17.7664 20.478C17.4738 20.478 17.2833 20.615 17.1521 20.8202V20.5362H16.6496V22.8711H17.1567V21.5623C17.1567 21.1758 17.3225 20.9612 17.654 20.9612C17.7626 20.9596 17.8704 20.9795 17.9712 21.0199L18.1275 20.5413C18.0152 20.4971 17.8689 20.4776 17.7661 20.4776L17.7664 20.478ZM13.4388 20.5362H12.6095V19.8278H12.0969V20.5362H11.6238V21.0003H12.0969V22.0655C12.0969 22.6072 12.3069 22.9299 12.9068 22.9299C13.1269 22.9299 13.3804 22.8616 13.5412 22.7494L13.3947 22.3146C13.2434 22.4024 13.0776 22.4466 12.9457 22.4466C12.6922 22.4466 12.6095 22.2901 12.6095 22.0558V21.0007H13.4388V20.5362ZM5.85678 22.8717V21.4063C5.85678 20.8545 5.50552 20.4831 4.93927 20.4782C4.64159 20.4732 4.33452 20.5659 4.11953 20.8936C3.95868 20.6346 3.70518 20.4782 3.34881 20.4782C3.09972 20.4782 2.85631 20.5514 2.66576 20.8249V20.5362H2.1582V22.8711H2.66974V21.5765C2.66974 21.1712 2.89425 20.9558 3.24096 20.9558C3.58767 20.9558 3.7481 21.1756 3.7481 21.5714V22.8709H4.26077V21.5762C4.26077 21.1709 4.4948 20.9555 4.83143 20.9555C5.16805 20.9555 5.34297 21.1753 5.34297 21.5711V22.8706L5.85678 22.8717Z" fill="#231F20"/>
<path d="M28.8355 15.1049V14.7632H28.7466L28.6438 14.9977L28.5415 14.7632H28.4524V15.1049H28.5155V14.8475L28.6117 15.0696H28.6771L28.7732 14.8469V15.1049H28.8355ZM28.2716 15.1049V14.8217H28.3854V14.764H28.0947V14.8217H28.2085V15.1049H28.2716Z" fill="#F79410"/>
<path d="M18.7415 16.5689H11.0562V2.74023H18.7416V16.5689H18.7415Z" fill="#FF5F00"/>
<path d="M11.543 9.6551C11.543 6.84995 12.8548 4.35111 14.8976 2.74075C13.3513 1.52007 11.4389 0.857515 9.46973 0.860361C4.61905 0.860361 0.687012 4.79784 0.687012 9.6551C0.687012 14.5124 4.61905 18.4498 9.46973 18.4498C11.4389 18.4528 13.3515 17.7903 14.8977 16.5695C12.8551 14.9594 11.543 12.4604 11.543 9.6551Z" fill="#EB001B"/>
<path d="M29.1094 9.6551C29.1094 14.5124 25.1773 18.4498 20.3267 18.4498C18.3572 18.4527 16.4445 17.7901 14.8979 16.5695C16.9413 14.9591 18.2531 12.4604 18.2531 9.6551C18.2531 6.84981 16.9413 4.35111 14.8979 2.74075C16.4445 1.52007 18.3572 0.857515 20.3265 0.860361C25.1772 0.860361 29.1092 4.79784 29.1092 9.6551" fill="#F79E1B"/>
</g>
<defs>
<clipPath id="clip0_26_10342">
<rect width="28.4224" height="22.1396" fill="white" transform="translate(0.687012 0.860352)"/>
</clipPath>
</defs>
</svg>
