<svg width="36" height="36" viewBox="0 0 36 36" fill="none" xmlns="http://www.w3.org/2000/svg">
<rect width="36" height="36" rx="18" fill="#2C2A29"/>
<path d="M8.41353 10.1052C8.41353 9.1691 9.16916 8.41346 10.1053 8.41346H11.797V7.28564H10.1053C8.54886 7.28564 7.28571 8.5488 7.28571 10.1052V11.7969H8.41353V10.1052Z" fill="white"/>
<path d="M25.8947 7.28564H24.203V8.41346H25.8947C26.8308 8.41346 27.5865 9.1691 27.5865 10.1052V11.7969H28.7143V10.1052C28.7143 8.5488 27.4511 7.28564 25.8947 7.28564Z" fill="white"/>
<path d="M25.8947 27.5864C26.8308 27.5864 27.5865 26.8308 27.5865 25.8947V24.2029H28.7143V25.8947C28.7143 27.4511 27.4511 28.7142 25.8947 28.7142H24.203V27.5864H25.8947Z" fill="white"/>
<path d="M8.41353 25.8947V24.2029H7.28571V25.8947C7.28571 27.4511 8.54886 28.7142 10.1053 28.7142H11.797V27.5864H10.1053C9.16916 27.5864 8.41353 26.8308 8.41353 25.8947Z" fill="white"/>
<path d="M14.7857 10.4999V12.6428H15.8571V11.5714H18V10.4999H14.7857Z" fill="white"/>
<path d="M20.1428 10.4999H19.0714V11.5714H20.1428V12.6428H21.2143V11.5714H20.1428V10.4999Z" fill="white"/>
<path d="M11.5714 14.7856H10.5V15.8571H11.5714V16.9285H10.5V17.9999H11.5714V16.9285H12.6428V15.8571H11.5714V14.7856Z" fill="white"/>
<path d="M10.5 21.2142V19.0714H12.6428V20.1428H11.5714V21.2142H10.5Z" fill="white"/>
<path d="M16.3024 16.9283C16.1507 16.9779 16.0014 16.9023 15.9631 16.756C15.8725 16.4097 15.8276 16.2368 15.7387 15.8916C15.6988 15.7364 15.7961 15.5616 15.9546 15.5126C17.1719 15.1653 18.3865 14.9399 19.6438 14.7872C19.7809 14.7726 19.915 14.8605 19.9645 14.9944C20.0813 15.31 20.1391 15.4683 20.2533 15.7856C20.3075 15.9362 20.2268 16.0863 20.0794 16.1058C18.7929 16.2934 17.5461 16.5513 16.3024 16.9283Z" fill="white"/>
<path d="M20.6373 16.7206C20.766 16.7038 20.8961 16.7988 20.944 16.9411C21.0472 17.2469 21.098 17.4003 21.1982 17.7076C21.2465 17.8559 21.1821 17.9998 21.0558 18.0203C19.0682 18.3372 17.1307 18.8686 15.2974 19.7032C15.1501 19.7747 15.0007 19.7015 14.9698 19.5426C14.8976 19.1708 14.8619 18.9851 14.7912 18.6141C14.7636 18.4691 14.8425 18.3044 14.9742 18.2425C16.7792 17.4486 18.6826 16.9683 20.6373 16.7206Z" fill="white"/>
<path d="M20.6347 18.7913C20.7686 18.7635 20.9095 18.8633 20.9577 19.0161C21.0559 19.3271 21.1044 19.483 21.1999 19.7953C21.2432 19.937 21.1859 20.0743 21.0695 20.1027C19.8562 20.3992 18.6688 20.769 17.4932 21.1924C17.3252 21.2568 17.1429 21.1732 17.0984 21.0098C17.0037 20.6618 16.9567 20.4881 16.8633 20.1412C16.824 19.9956 16.908 19.8373 17.0572 19.7823C18.2331 19.3758 19.4202 19.0563 20.6347 18.7913Z" fill="white"/>
<path d="M24.4286 21.2142H25.5V20.1428H24.4286V19.0714H25.5V17.9999H24.4286V19.0714H23.3571V20.1428H24.4286V21.2142Z" fill="white"/>
<path d="M25.5 16.9285V14.7856H23.3571V15.8571H24.4286V16.9285H25.5Z" fill="white"/>
<path d="M21.2143 25.4999H18V24.4285H20.1428V23.3571H21.2143V25.4999Z" fill="white"/>
<path d="M16.9286 25.4999H15.8571V24.4285H16.9286V25.4999Z" fill="white"/>
<path d="M15.8571 24.4285H14.7857V23.3571H15.8571V24.4285Z" fill="white"/>
<path fill-rule="evenodd" clip-rule="evenodd" d="M10.5 10.4999V13.7142H13.7143V10.4999H10.5ZM12.6428 11.5714H11.5714V12.6428H12.6428V11.5714Z" fill="white"/>
<path fill-rule="evenodd" clip-rule="evenodd" d="M10.5 25.4999V22.2856H13.7143V25.4999H10.5ZM11.5714 23.3571H12.6428V24.4285H11.5714V23.3571Z" fill="white"/>
<path fill-rule="evenodd" clip-rule="evenodd" d="M22.2857 10.4999V13.7142H25.5V10.4999H22.2857ZM24.4286 11.5714H23.3571V12.6428H24.4286V11.5714Z" fill="white"/>
<path fill-rule="evenodd" clip-rule="evenodd" d="M22.2857 25.4999V22.2856H25.5V25.4999H22.2857ZM23.3571 23.3571H24.4286V24.4285H23.3571V23.3571Z" fill="white"/>
</svg>
