<svg width="70" height="32" viewBox="0 0 70 32" fill="none" xmlns="http://www.w3.org/2000/svg">
<g id="AF_FLAG Isologo Sumas pay - checkout 2024 1">
<path id="Vector" d="M8.15404 3.49609H54.2733C60.5379 3.49609 65.6241 8.61184 65.6241 14.9128V17.0906C65.6241 23.3916 60.5379 28.5073 54.2733 28.5073H4.37573V7.29631C4.37573 5.19867 6.06849 3.49609 8.15404 3.49609Z" fill="url(#paint0_linear_3440_30269)"/>
<path id="Vector_2" d="M16.9251 18.2338C16.9171 18.1435 16.9091 18.0553 16.8951 17.9711C16.8951 17.961 16.8912 17.951 16.8892 17.939C16.8772 17.8628 16.8632 17.7886 16.8473 17.7164C16.8433 17.6983 16.8393 17.6823 16.8353 17.6642C16.8174 17.588 16.7955 17.5138 16.7715 17.4416C16.7715 17.4376 16.7695 17.4316 16.7675 17.4276C16.7675 17.4236 16.7636 17.4196 16.7636 17.4156C16.7616 17.4075 16.7576 17.4015 16.7556 17.3955C16.7317 17.3293 16.7077 17.2652 16.6798 17.203C16.6798 17.203 16.6798 17.199 16.6778 17.197C16.6778 17.197 16.6778 17.193 16.6758 17.193C16.6659 17.1709 16.6559 17.1489 16.6459 17.1268C16.6459 17.1268 16.6459 17.1228 16.6439 17.1208C16.6439 17.1188 16.6419 17.1168 16.6399 17.1148C16.616 17.0666 16.5921 17.0185 16.5662 16.9744C16.5662 16.9744 16.5662 16.9704 16.5642 16.9704C16.5642 16.9684 16.5622 16.9664 16.5602 16.9644C16.5323 16.9142 16.5024 16.8641 16.4705 16.816C16.4705 16.814 16.4665 16.8099 16.4645 16.8079C16.3648 16.6575 16.2511 16.5212 16.1255 16.3988C16.1235 16.3968 16.1215 16.3948 16.1195 16.3928C16.0817 16.3547 16.0418 16.3186 16.0019 16.2845C15.9979 16.2805 15.9919 16.2765 15.988 16.2725C15.974 16.2605 15.96 16.2464 15.9441 16.2344C15.9122 16.2063 15.8783 16.1803 15.8444 16.1562C15.8304 16.1442 15.8145 16.1361 15.7985 16.1241C15.7567 16.094 15.7148 16.0639 15.6709 16.0359C15.659 16.0278 15.647 16.0178 15.635 16.0098C15.6191 15.9998 15.6012 15.9897 15.5852 15.9797C15.5792 15.9757 15.5732 15.9717 15.5673 15.9677C15.5633 15.9657 15.5593 15.9637 15.5553 15.9597C15.4676 15.9055 15.3759 15.8554 15.2841 15.8093C15.2782 15.8052 15.2702 15.8032 15.2642 15.7992C15.1705 15.7511 15.0748 15.707 14.9771 15.6649C14.9711 15.6629 14.9651 15.6589 14.9591 15.6568C14.8614 15.6147 14.7618 15.5746 14.6601 15.5385C14.6541 15.5365 14.6501 15.5345 14.6441 15.5325C14.5424 15.4944 14.4407 15.4603 14.3391 15.4262C14.3391 15.4262 14.3391 15.4262 14.3371 15.4262C14.3291 15.4242 14.3231 15.4222 14.3151 15.4182C14.2294 15.3901 14.1477 15.3621 14.0659 15.336C14.028 15.324 13.9921 15.3119 13.9562 15.2999C13.9064 15.2838 13.8585 15.2678 13.8107 15.2538C13.5256 15.1615 13.2783 15.0853 13.069 15.0131C13.055 15.0091 13.0411 15.0031 13.0271 14.9991C12.9813 14.983 12.9354 14.967 12.8935 14.953C12.8736 14.9469 12.8557 14.9389 12.8377 14.9329C12.8018 14.9189 12.7679 14.9068 12.734 14.8928C12.7141 14.8848 12.6961 14.8788 12.6782 14.8707C12.6483 14.8587 12.6184 14.8467 12.5925 14.8346C12.5745 14.8266 12.5586 14.8186 12.5426 14.8126C12.5167 14.8005 12.4908 14.7865 12.4669 14.7745C12.4529 14.7665 12.4389 14.7604 12.425 14.7524C12.4011 14.7384 12.3771 14.7243 12.3552 14.7103C12.3452 14.7043 12.3353 14.6983 12.3253 14.6902C12.2655 14.6481 12.2176 14.606 12.1778 14.5579C12.1738 14.5539 12.1698 14.5479 12.1658 14.5439C12.1478 14.5218 12.1319 14.4977 12.1199 14.4737C12.1179 14.4697 12.1159 14.4656 12.114 14.4596C12.102 14.4376 12.092 14.4135 12.084 14.3894C12.084 14.3854 12.0801 14.3794 12.0781 14.3754C12.0701 14.3473 12.0641 14.3192 12.0581 14.2892C12.0581 14.2811 12.0581 14.2751 12.0561 14.2671C12.0521 14.237 12.0501 14.2049 12.0501 14.1729C12.0501 14.1729 12.0501 14.1729 12.0501 14.1709C12.0501 14.1668 12.0501 14.1628 12.0501 14.1568C12.0501 14.1267 12.0501 14.0987 12.0561 14.0706C12.0561 14.0606 12.0601 14.0505 12.0621 14.0405C12.0661 14.0184 12.0681 13.9964 12.0741 13.9743C12.0761 13.9643 12.0801 13.9563 12.082 13.9462C12.088 13.9242 12.094 13.9021 12.102 13.8821C12.104 13.8741 12.108 13.868 12.112 13.86C12.1219 13.838 12.1299 13.8159 12.1419 13.7958C12.1439 13.7898 12.1478 13.7858 12.1518 13.7798C12.1638 13.7577 12.1778 13.7357 12.1937 13.7136C12.1957 13.7096 12.1997 13.7056 12.2017 13.7036C12.2176 13.6815 12.2356 13.6595 12.2535 13.6374C12.2535 13.6354 12.2575 13.6334 12.2595 13.6314C12.2794 13.6093 12.3014 13.5873 12.3253 13.5672C12.3253 13.5672 12.3253 13.5672 12.3273 13.5652C12.3512 13.5452 12.3771 13.5251 12.405 13.5051C12.429 13.489 12.4529 13.473 12.4788 13.4589C12.4788 13.4589 12.4808 13.4589 12.4828 13.4589C12.5067 13.4449 12.5327 13.4329 12.5586 13.4188C12.5606 13.4188 12.5646 13.4168 12.5665 13.4148C12.5925 13.4028 12.6164 13.3928 12.6443 13.3827C12.6503 13.3827 12.6543 13.3787 12.6603 13.3767C12.6842 13.3687 12.7101 13.3607 12.736 13.3527C12.744 13.3506 12.754 13.3486 12.7619 13.3466C12.7859 13.3406 12.8098 13.3346 12.8337 13.3286C12.8477 13.3266 12.8596 13.3246 12.8736 13.3206C12.8955 13.3166 12.9155 13.3125 12.9374 13.3105C12.9573 13.3085 12.9773 13.3065 12.9972 13.3045C13.0132 13.3045 13.0311 13.3005 13.0491 13.3005C13.0869 13.2985 13.1248 13.2965 13.1647 13.2965C13.2325 13.2965 13.2943 13.2985 13.3561 13.3025C13.3681 13.3025 13.382 13.3025 13.394 13.3045C13.4518 13.3085 13.5076 13.3125 13.5615 13.3186C13.5694 13.3186 13.5774 13.3206 13.5854 13.3226C13.6352 13.3286 13.6831 13.3366 13.729 13.3446C13.7349 13.3446 13.7409 13.3466 13.7469 13.3486C13.7967 13.3587 13.8446 13.3687 13.8905 13.3787C13.8964 13.3787 13.9024 13.3807 13.9084 13.3827C14.1038 13.4309 14.2693 13.493 14.4308 13.5492C14.6262 13.6174 14.8176 13.6775 15.0588 13.6976C15.0648 13.6976 15.0708 13.6976 15.0768 13.6976C15.1286 13.7016 15.1805 13.7036 15.2363 13.7036C15.2821 13.7036 15.328 13.6996 15.3719 13.6956C15.3858 13.6956 15.3998 13.6916 15.4117 13.6896C15.4416 13.6855 15.4716 13.6795 15.5015 13.6735C15.5154 13.6695 15.5314 13.6675 15.5453 13.6635C15.5732 13.6555 15.6012 13.6474 15.6291 13.6374C15.641 13.6334 15.653 13.6294 15.665 13.6234C15.7028 13.6073 15.7387 13.5913 15.7726 13.5732C15.8065 13.5532 15.8404 13.5331 15.8723 13.5091C15.8823 13.5011 15.8923 13.493 15.9022 13.485C15.9242 13.469 15.9441 13.4509 15.966 13.4309C15.976 13.4208 15.986 13.4108 15.9959 13.4008C16.0159 13.3807 16.0338 13.3607 16.0518 13.3386C16.0597 13.3286 16.0677 13.3186 16.0757 13.3085C16.0996 13.2764 16.1235 13.2444 16.1435 13.2103C16.1674 13.1702 16.1893 13.126 16.2093 13.0819C16.2133 13.0699 16.2192 13.0599 16.2232 13.0478C16.2591 12.9576 16.285 12.8593 16.301 12.755C16.301 12.743 16.305 12.729 16.305 12.7149C16.311 12.6628 16.3149 12.6087 16.3149 12.5525C16.3149 12.5044 16.311 12.4582 16.305 12.4121C16.301 12.37 16.291 12.3299 16.283 12.2898C16.2312 12.0692 16.1136 11.8667 15.9321 11.6882C15.9242 11.6822 15.9182 11.6741 15.9102 11.6681C15.8803 11.64 15.8484 11.612 15.8145 11.5859C15.8025 11.5759 15.7906 11.5659 15.7786 11.5578C15.7447 11.5318 15.7108 11.5077 15.6749 11.4816C15.663 11.4736 15.649 11.4656 15.637 11.4576C15.5673 11.4134 15.4915 11.3713 15.4097 11.3312C15.3918 11.3232 15.3739 11.3132 15.3559 11.3051C15.32 11.2891 15.2821 11.2731 15.2463 11.259C15.2144 11.247 15.1844 11.233 15.1505 11.2209C15.1147 11.2069 15.0788 11.1949 15.0409 11.1828C15.003 11.1708 14.9631 11.1568 14.9213 11.1447C14.8854 11.1347 14.8515 11.1227 14.8156 11.1146C14.7578 11.0986 14.698 11.0846 14.6381 11.0725C14.6102 11.0665 14.5823 11.0605 14.5544 11.0545C14.4766 11.0384 14.3949 11.0244 14.3131 11.0124C14.2812 11.0084 14.2493 11.0043 14.2174 10.9983C14.1536 10.9903 14.0898 10.9823 14.024 10.9743C13.9881 10.9702 13.9523 10.9682 13.9164 10.9642C13.8466 10.9582 13.7768 10.9542 13.705 10.9502C13.6711 10.9502 13.6392 10.9462 13.6053 10.9442C13.4997 10.9402 13.392 10.9362 13.2803 10.9362C12.2655 10.9362 11.3025 11.2129 10.5927 11.7824C10.5927 11.7824 10.5927 11.7824 10.5907 11.7824C10.5328 11.8286 10.477 11.8787 10.4232 11.9288C10.4092 11.9429 10.3953 11.9549 10.3813 11.9689C10.3275 12.0211 10.2756 12.0732 10.2258 12.1294C10.2258 12.1294 10.2218 12.1334 10.2218 12.1354C10.172 12.1915 10.1261 12.2497 10.0802 12.3078C10.0683 12.3239 10.0563 12.3399 10.0444 12.356C10.0005 12.4161 9.95862 12.4763 9.91875 12.5405C9.91875 12.5405 9.91675 12.5445 9.91476 12.5445C9.91276 12.5485 9.91077 12.5525 9.90878 12.5545C9.87688 12.6066 9.84497 12.6608 9.81706 12.7169C9.80709 12.737 9.79712 12.7571 9.78516 12.7791C9.76522 12.8192 9.74528 12.8613 9.72534 12.9034C9.71538 12.9275 9.70541 12.9496 9.69544 12.9736C9.67749 13.0157 9.66154 13.0599 9.64559 13.104C9.63762 13.126 9.62964 13.1481 9.62167 13.1722C9.59973 13.2343 9.5798 13.2985 9.56185 13.3647C9.55986 13.3727 9.55786 13.3807 9.55587 13.3887C9.53793 13.4549 9.52397 13.5211 9.51001 13.5893C9.50403 13.6134 9.50004 13.6394 9.49605 13.6655C9.48609 13.7156 9.47811 13.7658 9.47213 13.8159C9.46814 13.844 9.46415 13.8741 9.46017 13.9021C9.45418 13.9543 9.4502 14.0064 9.44621 14.0585C9.44421 14.0866 9.44222 14.1127 9.44023 14.1428C9.43624 14.217 9.43425 14.2912 9.43425 14.3674C9.43425 14.3734 9.43425 14.3794 9.43425 14.3854C9.43425 14.3955 9.43425 14.4055 9.43425 14.4175C9.43425 14.4676 9.43425 14.5178 9.43823 14.5679C9.43823 14.592 9.44023 14.614 9.44222 14.6381C9.44421 14.6742 9.44621 14.7103 9.4502 14.7444C9.45219 14.7685 9.45418 14.7925 9.45817 14.8166C9.46216 14.8487 9.46615 14.8808 9.47014 14.9128C9.47412 14.9369 9.47612 14.959 9.4801 14.981C9.48609 15.0131 9.49207 15.0452 9.49805 15.0773C9.50204 15.0973 9.50602 15.1174 9.51001 15.1374C9.51799 15.1756 9.52796 15.2116 9.53593 15.2477C9.53992 15.2598 9.54191 15.2738 9.5459 15.2858C9.55986 15.334 9.57381 15.3801 9.58976 15.4262C9.59375 15.4383 9.59774 15.4483 9.60173 15.4603C9.61369 15.4944 9.62565 15.5285 9.63961 15.5606C9.64559 15.5746 9.65157 15.5887 9.65755 15.6027C9.66952 15.6328 9.68347 15.6609 9.69743 15.6889C9.70341 15.703 9.71139 15.717 9.71737 15.731C9.73133 15.7591 9.74728 15.7892 9.76323 15.8153C9.76921 15.8273 9.77519 15.8393 9.78317 15.8494C9.80111 15.8814 9.82105 15.9135 9.84099 15.9436C9.84497 15.9496 9.84896 15.9556 9.85295 15.9617C9.9028 16.0379 9.95663 16.1101 10.0144 16.1762C10.0184 16.1803 10.0204 16.1843 10.0244 16.1883C10.0503 16.2184 10.0763 16.2464 10.1022 16.2745C10.1082 16.2805 10.1121 16.2845 10.1181 16.2905C10.1321 16.3046 10.144 16.3186 10.158 16.3307C10.164 16.3367 10.172 16.3427 10.1779 16.3487C10.2258 16.3928 10.2736 16.4369 10.3235 16.477C10.3355 16.4871 10.3494 16.4971 10.3614 16.5071C10.3793 16.5212 10.3953 16.5352 10.4132 16.5472C10.4292 16.5593 10.4471 16.5693 10.4631 16.5813C10.485 16.5974 10.5069 16.6154 10.5289 16.6295C10.5309 16.6295 10.5328 16.6335 10.5348 16.6335C10.5508 16.6435 10.5687 16.6535 10.5847 16.6635C10.6226 16.6876 10.6624 16.7117 10.7003 16.7357C10.7362 16.7578 10.7721 16.7779 10.808 16.7979C10.8219 16.8059 10.8359 16.814 10.8499 16.822C10.8858 16.842 10.9236 16.8601 10.9595 16.8781C10.9695 16.8821 10.9795 16.8861 10.9874 16.8902C11.0273 16.9102 11.0692 16.9283 11.1111 16.9463C11.1549 16.9664 11.1988 16.9864 11.2426 17.0045C11.2825 17.0205 11.3224 17.0366 11.3623 17.0526C11.4101 17.0706 11.456 17.0907 11.5058 17.1087C11.5118 17.1108 11.5178 17.1128 11.5238 17.1148C11.5298 17.1168 11.5377 17.1188 11.5437 17.1228C11.5577 17.1288 11.5736 17.1328 11.5876 17.1388C11.7252 17.189 11.8647 17.2371 12.0043 17.2812C12.0043 17.2812 12.0063 17.2812 12.0083 17.2812C12.11 17.3153 12.2097 17.3474 12.3074 17.3775C12.8915 17.562 13.38 17.7064 13.729 17.8868C13.8227 17.935 13.9084 17.9871 13.9802 18.0433C14.0161 18.0713 14.05 18.0994 14.0799 18.1295C14.0819 18.1315 14.0839 18.1355 14.0878 18.1375C14.1158 18.1656 14.1417 18.1957 14.1656 18.2257C14.1696 18.2318 14.1736 18.2378 14.1776 18.2438C14.1975 18.2719 14.2174 18.2999 14.2334 18.332C14.2394 18.3421 14.2414 18.3541 14.2473 18.3641C14.2613 18.3922 14.2733 18.4183 14.2832 18.4483C14.2892 18.4664 14.2912 18.4844 14.2952 18.5025C14.3012 18.5266 14.3092 18.5506 14.3131 18.5767C14.3191 18.6108 14.3191 18.6489 14.3211 18.687C14.3211 18.699 14.3231 18.707 14.3231 18.7191C14.3231 18.7652 14.3191 18.8093 14.3151 18.8534C14.3151 18.8635 14.3111 18.8735 14.3092 18.8855C14.3032 18.9196 14.2972 18.9537 14.2892 18.9878C14.2872 18.9978 14.2832 19.0099 14.2792 19.0199C14.2693 19.052 14.2593 19.0861 14.2454 19.1161C14.2414 19.1262 14.2374 19.1362 14.2334 19.1442C14.2194 19.1763 14.2015 19.2084 14.1835 19.2385C14.1776 19.2485 14.1716 19.2565 14.1656 19.2665C14.1536 19.2846 14.1417 19.3006 14.1277 19.3167C14.1217 19.3247 14.1138 19.3327 14.1078 19.3407C14.0898 19.3628 14.0679 19.3849 14.048 19.4069C14.03 19.423 14.0121 19.441 13.9921 19.4571C13.9822 19.4651 13.9722 19.4731 13.9622 19.4811C13.9303 19.5052 13.8984 19.5272 13.8625 19.5473C13.8625 19.5473 13.8585 19.5493 13.8585 19.5513C13.8585 19.5513 13.8546 19.5513 13.8526 19.5533C13.8247 19.5694 13.7947 19.5834 13.7628 19.5974C13.7529 19.6014 13.7409 19.6075 13.7309 19.6115C13.707 19.6215 13.6811 19.6315 13.6552 19.6395C13.6432 19.6436 13.6332 19.6476 13.6213 19.6516C13.5854 19.6636 13.5475 19.6736 13.5076 19.6817C13.5056 19.6817 13.5017 19.6817 13.4997 19.6817C13.4598 19.6897 13.4179 19.6977 13.376 19.7037C13.3621 19.7057 13.3481 19.7077 13.3322 19.7097C13.3003 19.7137 13.2664 19.7178 13.2305 19.7198C13.2145 19.7198 13.2006 19.7218 13.1846 19.7238C13.1368 19.7258 13.0889 19.7278 13.0391 19.7278C13.0371 19.7278 13.0351 19.7278 13.0311 19.7278C12.9454 19.7278 12.8616 19.7238 12.7799 19.7198C12.754 19.7198 12.73 19.7158 12.7041 19.7137C12.6483 19.7097 12.5945 19.7037 12.5426 19.6977C12.5127 19.6937 12.4848 19.6897 12.4569 19.6857C12.409 19.6777 12.3612 19.6696 12.3153 19.6616C12.2874 19.6556 12.2575 19.6496 12.2296 19.6456C12.1837 19.6355 12.1399 19.6255 12.096 19.6155C12.0701 19.6095 12.0442 19.6035 12.0182 19.5954C11.9704 19.5834 11.9245 19.5694 11.8807 19.5573C11.8607 19.5513 11.8408 19.5453 11.8209 19.5393C11.7571 19.5192 11.6952 19.4992 11.6334 19.4791C11.6235 19.4751 11.6155 19.4731 11.6075 19.4691C11.5537 19.451 11.5018 19.433 11.452 19.4129C11.4281 19.4049 11.4061 19.3969 11.3842 19.3869C11.3423 19.3708 11.3005 19.3568 11.2606 19.3407C11.2566 19.3407 11.2506 19.3367 11.2466 19.3347C11.2167 19.3227 11.1868 19.3127 11.1589 19.3006C11.127 19.2886 11.0951 19.2766 11.0632 19.2645C11.0492 19.2605 11.0353 19.2545 11.0233 19.2505C10.9815 19.2365 10.9416 19.2224 10.9037 19.2084C10.8877 19.2024 10.8738 19.1984 10.8578 19.1944C10.8319 19.1863 10.808 19.1783 10.7821 19.1723C10.7661 19.1683 10.7502 19.1643 10.7322 19.1583C10.7083 19.1522 10.6864 19.1462 10.6624 19.1422C10.6465 19.1382 10.6305 19.1362 10.6166 19.1322C10.5927 19.1282 10.5687 19.1242 10.5468 19.1202C10.5328 19.1202 10.5189 19.1161 10.5069 19.1141C10.473 19.1101 10.4411 19.1081 10.4072 19.1081C10.4052 19.1081 10.4032 19.1081 10.4013 19.1081C10.0324 19.1081 9.74728 19.2665 9.55388 19.5092C9.46814 19.6155 9.40234 19.7378 9.35449 19.8702C9.33455 19.9263 9.31462 19.9825 9.30066 20.0426C9.30066 20.0426 9.30066 20.0426 9.30066 20.0446C9.27275 20.163 9.25879 20.2853 9.25879 20.4096C9.25879 20.4457 9.26078 20.4798 9.26477 20.5139C9.26477 20.5259 9.26876 20.536 9.27075 20.548C9.27474 20.57 9.27673 20.5941 9.28271 20.6162C9.28471 20.6282 9.2887 20.6422 9.29268 20.6543C9.29867 20.6743 9.30265 20.6944 9.31063 20.7144C9.31462 20.7285 9.3206 20.7405 9.32458 20.7525C9.33256 20.7726 9.33854 20.7906 9.34851 20.8087C9.35449 20.8207 9.36047 20.8328 9.36646 20.8468C9.37643 20.8648 9.38639 20.8849 9.39636 20.9029C9.40234 20.915 9.40833 20.925 9.4163 20.937C9.42826 20.9571 9.44222 20.9771 9.45618 20.9952C9.46216 21.0052 9.46814 21.0132 9.47612 21.0233C9.49406 21.0473 9.514 21.0734 9.53394 21.0975C9.53593 21.1015 9.53992 21.1035 9.54191 21.1075C9.56584 21.1356 9.59176 21.1636 9.61967 21.1897C9.62366 21.1937 9.62765 21.1957 9.63163 21.1997C9.65556 21.2218 9.67949 21.2459 9.70341 21.2679C9.71139 21.2739 9.71936 21.282 9.72734 21.288C9.74927 21.306 9.7712 21.3241 9.79513 21.3421C9.8051 21.3501 9.81507 21.3562 9.82304 21.3642C9.84497 21.3822 9.8689 21.3983 9.89283 21.4143C9.9028 21.4203 9.91276 21.4284 9.92273 21.4344C9.94865 21.4504 9.97457 21.4685 10.0005 21.4845C10.0105 21.4905 10.0184 21.4965 10.0284 21.5026C10.0583 21.5206 10.0882 21.5366 10.1181 21.5547C10.1241 21.5587 10.1321 21.5627 10.1381 21.5667C10.1799 21.5888 10.2218 21.6108 10.2657 21.6329C10.2697 21.6349 10.2756 21.6369 10.2816 21.6389C10.3554 21.675 10.4332 21.7091 10.5129 21.7432C10.5209 21.7472 10.5289 21.7492 10.5368 21.7512C10.5787 21.7673 10.6226 21.7833 10.6644 21.7994C10.7203 21.8194 10.7761 21.8415 10.8339 21.8595C10.8798 21.8756 10.9276 21.8876 10.9755 21.9036C11.0333 21.9197 11.0891 21.9377 11.1469 21.9518C11.1948 21.9638 11.2446 21.9758 11.2925 21.9879C11.3503 22.0019 11.4101 22.0159 11.4699 22.028C11.5178 22.038 11.5656 22.048 11.6155 22.058C11.6773 22.0701 11.7371 22.0801 11.7989 22.0901C11.8448 22.0982 11.8926 22.1062 11.9385 22.1122C12.0023 22.1222 12.0661 22.1282 12.1279 22.1363C12.1698 22.1403 12.2136 22.1463 12.2555 22.1503C12.3253 22.1563 12.3931 22.1623 12.4609 22.1663C12.4948 22.1683 12.5307 22.1724 12.5646 22.1744C12.6662 22.1804 12.7639 22.1824 12.8596 22.1824C12.9514 22.1824 13.0431 22.1804 13.1348 22.1764C13.1567 22.1764 13.1806 22.1744 13.2026 22.1724C13.2883 22.1683 13.3721 22.1623 13.4558 22.1543C13.4618 22.1543 13.4658 22.1543 13.4717 22.1543C13.5635 22.1463 13.6532 22.1343 13.7429 22.1222C13.7569 22.1202 13.7728 22.1182 13.7868 22.1162C13.8725 22.1022 13.9582 22.0881 14.044 22.0721C14.046 22.0721 14.048 22.0721 14.05 22.0721C14.1417 22.054 14.2314 22.032 14.3211 22.0099C14.3251 22.0099 14.3311 22.0079 14.3351 22.0059C14.6042 21.9337 14.8594 21.8415 15.0987 21.7272C15.1446 21.7051 15.1904 21.681 15.2363 21.657C15.344 21.5988 15.4476 21.5366 15.5493 21.4685C15.7786 21.314 15.984 21.1336 16.1634 20.925C16.1634 20.925 16.1634 20.925 16.1634 20.923C16.2053 20.8749 16.2452 20.8247 16.285 20.7726C16.291 20.7646 16.297 20.7566 16.303 20.7485C16.3369 20.7044 16.3688 20.6583 16.3987 20.6102C16.4067 20.5981 16.4126 20.5881 16.4206 20.5761C16.4505 20.5299 16.4784 20.4818 16.5044 20.4337C16.5103 20.4217 16.5183 20.4096 16.5243 20.3976C16.5542 20.3434 16.5801 20.2893 16.608 20.2331C16.612 20.2271 16.614 20.2211 16.618 20.2131C16.6758 20.0868 16.7277 19.9544 16.7715 19.814C16.7775 19.796 16.7815 19.7779 16.7875 19.7619C16.8014 19.7117 16.8174 19.6596 16.8294 19.6075C16.8353 19.5834 16.8413 19.5593 16.8453 19.5333C16.8553 19.4851 16.8652 19.437 16.8752 19.3889C16.8812 19.3608 16.8852 19.3347 16.8892 19.3067C16.8971 19.2585 16.9031 19.2084 16.9111 19.1603C16.9151 19.1322 16.9191 19.1041 16.9211 19.074C16.927 19.0199 16.931 18.9657 16.935 18.9116C16.935 18.8855 16.939 18.8595 16.941 18.8334C16.945 18.7512 16.947 18.6689 16.947 18.5847C16.947 18.4844 16.943 18.3902 16.937 18.2959C16.937 18.2739 16.935 18.2538 16.933 18.2318L16.9251 18.2338ZM32.2097 11.0344H30.6366V9.61862C30.6366 9.58051 30.6346 9.54442 30.6306 9.50832V9.44816C30.6306 8.77034 30.0783 8.21484 29.4044 8.21484H29.3526C29.0156 8.21484 28.7086 8.35322 28.4853 8.57782C28.2659 8.79841 28.1304 9.10123 28.1264 9.43412C28.1264 9.43613 28.1264 9.44014 28.1264 9.44214V9.45217C28.1204 9.50632 28.1184 9.56247 28.1184 9.62062V11.0364H25.4766C25.2652 11.0364 25.0659 11.0906 24.8924 11.1868C24.8366 11.2169 24.7827 11.255 24.7329 11.2931C24.689 11.3232 24.6472 11.3553 24.6093 11.3914C24.6073 11.3934 24.6053 11.3954 24.6033 11.3974C24.5754 11.4235 24.5495 11.4515 24.5235 11.4816C24.5156 11.4917 24.5096 11.5017 24.5016 11.5097C24.4856 11.5298 24.4697 11.5498 24.4557 11.5719C24.4478 11.5839 24.4398 11.5979 24.4318 11.61C24.4199 11.63 24.4079 11.6501 24.3959 11.6721C24.388 11.6862 24.382 11.7022 24.374 11.7163C24.364 11.7383 24.3541 11.7604 24.3461 11.7824C24.3401 11.7985 24.3341 11.8145 24.3281 11.8326C24.3202 11.8566 24.3122 11.8787 24.3062 11.9028C24.3062 11.9068 24.3042 11.9128 24.3022 11.9168C24.2982 11.9268 24.2962 11.9368 24.2942 11.9489C24.2942 11.9509 24.2942 11.9529 24.2922 11.9569C24.2863 11.983 24.2803 12.009 24.2763 12.0351C24.2763 12.0451 24.2723 12.0532 24.2703 12.0632C24.2663 12.0812 24.2643 12.1013 24.2623 12.1193C24.2603 12.1394 24.2564 12.1594 24.2544 12.1795C24.2544 12.1975 24.2504 12.2136 24.2484 12.2316C24.2444 12.2758 24.2444 12.3219 24.2424 12.368C24.2424 12.372 24.2424 12.376 24.2424 12.382V17.6161C24.2424 17.6662 24.2424 17.7144 24.2384 17.7625C24.2384 17.7665 24.2384 17.7685 24.2384 17.7725C24.2364 17.8167 24.2324 17.8608 24.2284 17.9029C24.2284 17.9189 24.2245 17.933 24.2225 17.949C24.2185 17.9791 24.2165 18.0092 24.2105 18.0372C24.2065 18.0593 24.2025 18.0794 24.1985 18.1014C24.1945 18.1235 24.1906 18.1455 24.1866 18.1676C24.1806 18.1937 24.1746 18.2177 24.1686 18.2438C24.1646 18.2598 24.1607 18.2759 24.1567 18.2919C24.1487 18.32 24.1407 18.3481 24.1327 18.3762C24.1288 18.3882 24.1268 18.4002 24.1228 18.4122C24.1128 18.4423 24.1008 18.4724 24.0909 18.5025C24.0869 18.5105 24.0849 18.5185 24.0829 18.5266C24.0709 18.5586 24.057 18.5907 24.043 18.6228C24.041 18.6268 24.039 18.6328 24.037 18.6369C24.0211 18.6709 24.0051 18.703 23.9892 18.7351C23.9892 18.7371 23.9872 18.7391 23.9852 18.7411C23.9673 18.7752 23.9473 18.8093 23.9294 18.8414C23.8097 19.0379 23.6602 19.2084 23.4867 19.3468C23.4429 19.3829 23.397 19.4149 23.3512 19.445C23.3452 19.449 23.3372 19.4551 23.3312 19.4591C23.2854 19.4891 23.2375 19.5172 23.1897 19.5433C23.1837 19.5473 23.1777 19.5513 23.1697 19.5553C23.1199 19.5814 23.07 19.6055 23.0182 19.6275C23.0122 19.6315 23.0042 19.6335 22.9983 19.6375C22.9464 19.6596 22.8946 19.6797 22.8407 19.6977C22.8328 19.6997 22.8268 19.7037 22.8188 19.7057C22.765 19.7238 22.7111 19.7378 22.6553 19.7519C22.6473 19.7519 22.6394 19.7559 22.6314 19.7579C22.5756 19.7719 22.5177 19.7819 22.4599 19.792C22.4519 19.792 22.446 19.796 22.438 19.796C22.3742 19.806 22.3084 19.814 22.2426 19.818C22.2426 19.818 22.2406 19.818 22.2386 19.818C22.1708 19.824 22.103 19.8261 22.0332 19.8261C22.0293 19.8261 22.0253 19.8261 22.0213 19.8261C21.9575 19.8261 21.8957 19.822 21.8339 19.818C21.8119 19.818 21.792 19.814 21.7701 19.812C21.7242 19.808 21.6783 19.802 21.6325 19.794C21.6125 19.79 21.5906 19.7879 21.5707 19.7839C21.5109 19.7739 21.451 19.7619 21.3932 19.7458C21.3872 19.7458 21.3833 19.7438 21.3773 19.7418C21.3195 19.7258 21.2616 19.7077 21.2058 19.6877C21.1879 19.6817 21.1679 19.6736 21.15 19.6676C21.1081 19.6516 21.0662 19.6335 21.0264 19.6155C21.0084 19.6075 20.9905 19.5994 20.9725 19.5914C20.9187 19.5653 20.8649 19.5373 20.815 19.5072C20.815 19.5072 20.813 19.5072 20.811 19.5052C20.811 19.5052 20.811 19.5052 20.809 19.5052C20.7572 19.4751 20.7093 19.441 20.6615 19.4049C20.6515 19.3969 20.6396 19.3889 20.6296 19.3809C20.5837 19.3448 20.5379 19.3067 20.494 19.2665C20.486 19.2585 20.4781 19.2525 20.4721 19.2445C20.4342 19.2084 20.3963 19.1683 20.3604 19.1282C20.3524 19.1202 20.3465 19.1121 20.3385 19.1041C20.3006 19.058 20.2627 19.0119 20.2288 18.9617C20.2209 18.9497 20.2129 18.9397 20.2049 18.9276C20.171 18.8755 20.1371 18.8234 20.1072 18.7672C20.1072 18.7672 20.1072 18.7652 20.1072 18.7632C20.0773 18.707 20.0514 18.6489 20.0255 18.5887C20.0195 18.5747 20.0135 18.5627 20.0095 18.5486C19.9856 18.4885 19.9636 18.4263 19.9457 18.3621C19.9417 18.3521 19.9397 18.3401 19.9357 18.328C19.9198 18.2679 19.9038 18.2077 19.8919 18.1455C19.8899 18.1335 19.8879 18.1235 19.8839 18.1114C19.8719 18.0433 19.862 17.9711 19.854 17.8969C19.854 17.8808 19.852 17.8648 19.85 17.8487C19.844 17.7725 19.84 17.6943 19.84 17.6141V12.38C19.84 12.3098 19.836 12.2437 19.8281 12.1795C19.8281 12.1635 19.8241 12.1474 19.8221 12.1314C19.8141 12.0752 19.8061 12.0191 19.7922 11.9669C19.7922 11.9609 19.7902 11.9549 19.7882 11.9489C19.7742 11.8907 19.7543 11.8346 19.7344 11.7824C19.7304 11.7724 19.7264 11.7644 19.7224 11.7544C19.7025 11.7062 19.6805 11.6621 19.6546 11.618C19.6526 11.614 19.6506 11.61 19.6486 11.606C19.6207 11.5578 19.5888 11.5137 19.5529 11.4716C19.5529 11.4696 19.5489 11.4676 19.5469 11.4656C19.513 11.4255 19.4752 11.3874 19.4353 11.3533C19.4353 11.3533 19.4333 11.3513 19.4313 11.3493C19.3476 11.2771 19.2538 11.2209 19.1502 11.1768C19.1223 11.1648 19.0943 11.1547 19.0644 11.1447C19.0604 11.1447 19.0585 11.1427 19.0545 11.1407C19.0266 11.1307 18.9966 11.1227 18.9667 11.1166C18.9627 11.1166 18.9608 11.1166 18.9568 11.1146C18.8989 11.1006 18.8391 11.0906 18.7773 11.0846C18.7733 11.0846 18.7693 11.0846 18.7634 11.0846C18.7634 11.0846 18.7634 11.0846 18.7614 11.0846C18.7554 11.0846 18.7494 11.0846 18.7434 11.0846C18.7016 11.0805 18.6617 11.0805 18.6178 11.0805C18.6178 11.0805 18.6178 11.0805 18.6158 11.0805C18.558 11.0805 18.5022 11.0846 18.4483 11.0906C18.4344 11.0906 18.4184 11.0946 18.4045 11.0966C18.3506 11.1046 18.2968 11.1126 18.247 11.1267C18.247 11.1267 18.245 11.1267 18.243 11.1267C18.1911 11.1407 18.1433 11.1568 18.0954 11.1768C18.0835 11.1828 18.0715 11.1868 18.0595 11.1928C18.0137 11.2129 17.9678 11.237 17.926 11.263C17.8622 11.3031 17.8023 11.3513 17.7485 11.4054C17.7146 11.4395 17.6827 11.4796 17.6528 11.5197C17.6229 11.5598 17.597 11.6019 17.573 11.6461C17.5531 11.6822 17.5352 11.7203 17.5192 11.7604C17.5013 11.8025 17.4853 11.8466 17.4734 11.8927V11.8967C17.4614 11.9389 17.4494 11.985 17.4415 12.0311C17.4415 12.0371 17.4395 12.0431 17.4375 12.0471C17.4295 12.0893 17.4235 12.1334 17.4195 12.1795C17.4195 12.1895 17.4175 12.1975 17.4155 12.2076C17.4115 12.2617 17.4076 12.3179 17.4076 12.376V17.6101C17.4076 17.7344 17.4115 17.8548 17.4195 17.9731C17.4215 18.0112 17.4255 18.0473 17.4295 18.0854C17.4355 18.1656 17.4435 18.2478 17.4534 18.326C17.4554 18.3441 17.4554 18.3621 17.4594 18.3782C17.4634 18.4022 17.4674 18.4263 17.4714 18.4504C17.4813 18.5246 17.4953 18.5967 17.5092 18.6689C17.5172 18.709 17.5252 18.7492 17.5332 18.7893C17.5491 18.8635 17.5671 18.9377 17.587 19.0099C17.593 19.0339 17.599 19.06 17.605 19.0861C17.6089 19.0961 17.6109 19.1061 17.6149 19.1181C17.6229 19.1462 17.6309 19.1723 17.6408 19.1984C17.6588 19.2565 17.6787 19.3147 17.6987 19.3708C17.7086 19.4009 17.7206 19.429 17.7306 19.4571C17.7385 19.4771 17.7465 19.4992 17.7545 19.5212C17.7684 19.5553 17.7844 19.5894 17.7984 19.6235C17.8083 19.6476 17.8183 19.6736 17.8303 19.6977C17.8342 19.7077 17.8382 19.7178 17.8422 19.7278C17.8582 19.7619 17.8741 19.792 17.8901 19.8261C17.906 19.8601 17.922 19.8942 17.9399 19.9283C17.9439 19.9363 17.9479 19.9444 17.9539 19.9524C17.9539 19.9524 17.9539 19.9524 17.9539 19.9544C18.0077 20.0567 18.0675 20.1549 18.1293 20.2512C18.1293 20.2512 18.1293 20.2532 18.1313 20.2552C18.1353 20.2612 18.1393 20.2652 18.1413 20.2712C18.1871 20.3414 18.235 20.4096 18.2829 20.4758C18.2888 20.4838 18.2948 20.4918 18.3008 20.4979C18.3387 20.548 18.3786 20.6001 18.4184 20.6483C18.4304 20.6623 18.4444 20.6763 18.4563 20.6904C18.5121 20.7545 18.57 20.8187 18.6298 20.8789C18.6358 20.8849 18.6417 20.8909 18.6457 20.8949C18.6657 20.915 18.6856 20.937 18.7075 20.9571C18.7414 20.9892 18.7753 21.0193 18.8092 21.0493C18.8212 21.0594 18.8331 21.0714 18.8451 21.0814C18.8571 21.0915 18.867 21.1015 18.879 21.1115C18.9946 21.2098 19.1163 21.3 19.2419 21.3862C19.2578 21.3963 19.2718 21.4063 19.2877 21.4163C19.3456 21.4544 19.4054 21.4905 19.4672 21.5266C19.4811 21.5346 19.4931 21.5427 19.5071 21.5507C19.5808 21.5928 19.6546 21.6329 19.7324 21.671C19.7423 21.675 19.7523 21.681 19.7623 21.685C19.8281 21.7171 19.8959 21.7472 19.9636 21.7753C19.9856 21.7833 20.0055 21.7933 20.0275 21.8014C20.0932 21.8274 20.159 21.8535 20.2248 21.8776C20.2408 21.8836 20.2547 21.8896 20.2707 21.8936C20.3524 21.9217 20.4342 21.9478 20.5179 21.9718C20.5359 21.9778 20.5558 21.9818 20.5738 21.9879C20.6396 22.0059 20.7073 22.022 20.7751 22.038C20.8011 22.044 20.825 22.05 20.8509 22.054C20.9267 22.0701 21.0024 22.0841 21.0802 22.0982C21.0922 22.1002 21.1041 22.1022 21.1161 22.1042C21.2058 22.1182 21.2955 22.1302 21.3852 22.1403C21.4092 22.1423 21.4351 22.1443 21.459 22.1483C21.5288 22.1543 21.5986 22.1603 21.6704 22.1643C21.6983 22.1643 21.7242 22.1683 21.7521 22.1683C21.8458 22.1724 21.9415 22.1764 22.0372 22.1764C22.1509 22.1764 22.2605 22.1724 22.3722 22.1663C22.4001 22.1663 22.426 22.1623 22.4539 22.1603C22.6733 22.1463 22.8866 22.1182 23.092 22.0801C23.1179 22.0761 23.1438 22.0701 23.1677 22.0661C23.3731 22.026 23.5725 21.9738 23.7639 21.9096C23.7878 21.9016 23.8117 21.8936 23.8337 21.8856C24.0231 21.8194 24.2065 21.7432 24.38 21.655C24.4019 21.6449 24.4218 21.6329 24.4438 21.6229C24.9203 21.3722 25.337 21.0433 25.676 20.6382C25.7178 20.5901 25.7557 20.54 25.7956 20.4878C25.8096 20.4698 25.8235 20.4497 25.8375 20.4317C25.8634 20.3956 25.8893 20.3595 25.9152 20.3234C25.9312 20.3013 25.9451 20.2773 25.9591 20.2552C25.981 20.2211 26.0049 20.185 26.0249 20.1509C26.0388 20.1269 26.0548 20.1028 26.0687 20.0767C26.0887 20.0406 26.1086 20.0045 26.1286 19.9684C26.1425 19.9424 26.1565 19.9183 26.1684 19.8922C26.1884 19.8541 26.2063 19.816 26.2243 19.7779C26.2362 19.7539 26.2482 19.7278 26.2602 19.7037C26.2801 19.6616 26.298 19.6175 26.316 19.5754C26.326 19.5533 26.3359 19.5313 26.3439 19.5092C26.3698 19.445 26.3937 19.3788 26.4157 19.3127C26.4157 19.3087 26.4177 19.3067 26.4197 19.3026C26.4416 19.2365 26.4635 19.1683 26.4835 19.0981C26.4894 19.074 26.4954 19.05 26.5034 19.0259C26.5154 18.9778 26.5293 18.9316 26.5413 18.8815C26.5473 18.8534 26.5532 18.8234 26.5612 18.7953C26.5712 18.7492 26.5812 18.705 26.5891 18.6589C26.5951 18.6288 26.6011 18.5988 26.6051 18.5667C26.6131 18.5205 26.621 18.4744 26.627 18.4283C26.631 18.3962 26.637 18.3661 26.641 18.334C26.647 18.2859 26.6529 18.2378 26.6569 18.1876C26.6609 18.1576 26.6629 18.1275 26.6649 18.0954C26.6689 18.0413 26.6729 17.9871 26.6749 17.931C26.6749 17.9049 26.6789 17.8788 26.6789 17.8507C26.6828 17.7685 26.6848 17.6863 26.6848 17.6021V13.5853H25.6939C25.6939 13.5853 25.6919 13.5853 25.6899 13.5853C25.6361 13.5853 25.5862 13.5813 25.5364 13.5753C25.5264 13.5753 25.5165 13.5732 25.5065 13.5712H26.6888V13.5853H28.1264V15.0332C28.1264 15.0953 28.1304 15.1535 28.1344 15.2116C28.1344 15.2197 28.1344 15.2257 28.1363 15.2337C28.1423 15.2899 28.1503 15.344 28.1603 15.3981C28.1682 15.4403 28.1782 15.4804 28.1902 15.5205C28.1982 15.5465 28.2061 15.5746 28.2161 15.6007C28.2261 15.6328 28.238 15.6629 28.252 15.6929C28.3198 15.8454 28.4135 15.9777 28.5311 16.084C28.5909 16.1361 28.6567 16.1843 28.7285 16.2224C28.7584 16.2384 28.7903 16.2545 28.8242 16.2685C28.8541 16.2825 28.888 16.2926 28.9199 16.3046C28.9518 16.3146 28.9837 16.3246 29.0156 16.3327C29.0236 16.3327 29.0316 16.3367 29.0376 16.3387C29.0655 16.3447 29.0954 16.3507 29.1253 16.3567C29.1432 16.3587 29.1612 16.3607 29.1791 16.3647C29.2011 16.3668 29.225 16.3708 29.2469 16.3728C29.2908 16.3768 29.3346 16.3788 29.3825 16.3788C29.4403 16.3788 29.4961 16.3748 29.55 16.3688C29.5599 16.3688 29.5699 16.3688 29.5799 16.3647C29.6317 16.3587 29.6816 16.3507 29.7274 16.3387C29.7374 16.3367 29.7454 16.3347 29.7553 16.3327C29.853 16.3086 29.9428 16.2745 30.0265 16.2304C30.0305 16.2284 30.0365 16.2264 30.0405 16.2244C30.0444 16.2244 30.0464 16.2204 30.0504 16.2184C30.0823 16.2003 30.1142 16.1803 30.1441 16.1602C30.1501 16.1562 30.1561 16.1502 30.1641 16.1442C30.1661 16.1442 30.1681 16.1401 30.172 16.1381C30.196 16.1201 30.2179 16.104 30.2398 16.084C30.2458 16.078 30.2518 16.07 30.2598 16.0639C30.2857 16.0399 30.3116 16.0158 30.3335 15.9877C30.3395 15.9817 30.3435 15.9737 30.3495 15.9677C30.3734 15.9396 30.3954 15.9115 30.4153 15.8814C30.4193 15.8754 30.4233 15.8674 30.4273 15.8614C30.4472 15.8293 30.4671 15.7972 30.4851 15.7631C30.4891 15.7551 30.4931 15.7451 30.497 15.7371C30.513 15.703 30.5289 15.6709 30.5429 15.6348C30.5469 15.6228 30.5509 15.6087 30.5549 15.5967C30.5668 15.5646 30.5788 15.5305 30.5868 15.4964C30.5907 15.4804 30.5947 15.4623 30.5987 15.4443C30.6067 15.4122 30.6147 15.3821 30.6187 15.35C30.6207 15.332 30.6227 15.3139 30.6246 15.2959C30.6266 15.2778 30.6306 15.2578 30.6326 15.2397C30.6346 15.2257 30.6366 15.2096 30.6386 15.1956C30.6426 15.1435 30.6446 15.0893 30.6446 15.0332V13.5853H32.0861C32.0861 13.5853 32.0941 13.5853 32.0981 13.5853C32.1499 13.5853 32.2018 13.5833 32.2516 13.5773C32.2696 13.5773 32.2895 13.5732 32.3074 13.5712C32.3433 13.5672 32.3772 13.5632 32.4111 13.5552C32.4311 13.5512 32.449 13.5472 32.4689 13.5432C32.5028 13.5351 32.5347 13.5271 32.5666 13.5191C32.5826 13.5151 32.6005 13.5091 32.6165 13.5051C32.6603 13.491 32.7022 13.475 32.7421 13.4569C32.7461 13.4569 32.7481 13.4549 32.7521 13.4529C32.7521 13.4529 32.7541 13.4529 32.756 13.4509C32.8039 13.4289 32.8498 13.4028 32.8936 13.3747C32.9056 13.3667 32.9175 13.3587 32.9295 13.3506C32.9734 13.3206 33.0152 13.2905 33.0531 13.2544C33.0531 13.2544 33.0531 13.2544 33.0551 13.2544C33.1947 13.126 33.2984 12.9596 33.3582 12.7611C33.3602 12.755 33.3622 12.751 33.3642 12.745C33.416 12.6066 33.4459 12.4562 33.4459 12.3018V12.2497C33.4459 11.9108 33.3083 11.6019 33.085 11.3773C32.8617 11.1527 32.5547 11.0144 32.2157 11.0144L32.2097 11.0344ZM26.6789 13.5813H25.6899C25.4088 13.5813 25.1675 13.5151 24.9781 13.3968C24.9741 13.3948 24.9721 13.3928 24.9682 13.3908C24.9482 13.3787 24.9303 13.3647 24.9103 13.3506C24.7967 13.2624 24.703 13.1561 24.6312 13.0358C24.6152 13.0077 24.5993 12.9776 24.5853 12.9476C24.5734 12.9195 24.5614 12.8914 24.5495 12.8633C24.5495 12.8633 24.5495 12.8633 24.5495 12.8613C24.5395 12.8373 24.5315 12.8112 24.5255 12.7851C24.4956 12.6788 24.4817 12.5645 24.4817 12.4442C24.4817 12.364 24.4896 12.2858 24.5036 12.2116C24.5036 12.2056 24.5056 12.1975 24.5076 12.1915C24.5674 11.9008 24.7329 11.6601 24.9562 11.5017C24.9921 11.4776 25.028 11.4556 25.0678 11.4355C25.0678 11.4355 25.0818 11.4295 25.0878 11.4255C25.1017 11.4195 25.1177 11.4114 25.1336 11.4054C25.2672 11.3553 25.4168 11.3312 25.5763 11.3312C25.8534 11.3312 26.0987 11.4054 26.2861 11.5558C26.32 11.5819 26.3499 11.612 26.3798 11.6421C26.3937 11.6561 26.4077 11.6721 26.4197 11.6882C26.4336 11.7042 26.4476 11.7223 26.4595 11.7403C26.5891 11.9208 26.6669 12.1594 26.6769 12.4582V13.5813H26.6789ZM60.6896 14.2832C60.5321 13.8841 60.0735 13.6174 59.6986 13.6174C59.2261 13.6174 58.8712 13.842 58.6678 14.231C58.6379 14.2872 58.612 14.3453 58.5901 14.4075L56.9551 18.6108L55.4279 14.4075C55.4039 14.3453 55.378 14.2872 55.3501 14.231C55.1447 13.842 54.7898 13.6174 54.3193 13.6174C53.9425 13.6174 53.4859 13.8841 53.3284 14.2832C53.2925 14.3754 53.2705 14.4737 53.2705 14.58C53.2705 14.8126 53.3164 14.983 53.3782 15.1535L55.8306 21.312L54.8596 23.7325C54.8018 23.883 54.752 24.0534 54.732 24.2199C54.726 24.276 54.722 24.3302 54.722 24.3843C54.722 24.4445 54.728 24.5046 54.74 24.5628C54.8277 24.9779 55.2165 25.3449 55.8785 25.3449C56.1736 25.3449 56.4108 25.2125 56.5923 25.014C56.6541 24.9478 56.7079 24.8736 56.7577 24.7954C56.8235 24.6911 56.8794 24.5768 56.9252 24.4605L60.6417 15.1535C60.7195 14.983 60.7494 14.8126 60.7494 14.58C60.7494 14.4757 60.7294 14.3754 60.6916 14.2832H60.6896ZM40.5001 10.9181H37.7705C36.9989 10.9181 36.5682 11.3994 36.5682 12.1274V20.8448C36.5682 21.6209 37.0627 22.054 37.7247 22.054C38.3866 22.054 38.8811 21.6189 38.8811 20.8448V18.2999H40.5938C42.7072 18.2999 44.4498 16.8882 44.4498 14.6241C44.4498 12.36 42.769 10.9161 40.5021 10.9161L40.5001 10.9181ZM41.503 15.8855C41.2358 16.1161 40.8789 16.2545 40.4542 16.2545H38.8811V12.9656H40.4542C40.5758 12.9656 40.6915 12.9776 40.8011 12.9977C41.5708 13.1461 42.0433 13.7958 42.0433 14.61C42.0433 15.1334 41.8479 15.5887 41.505 15.8855H41.503ZM51.6037 13.6174C51.0973 13.6174 50.6586 13.9583 50.5549 14.4476C50.549 14.4797 50.543 14.5138 50.539 14.5479C50.0445 13.85 49.243 13.5251 48.4255 13.5251C46.3898 13.5251 44.7549 15.4022 44.7549 17.8527C44.7549 20.3033 46.344 22.1503 48.4255 22.1503C49.2729 22.1503 49.9668 21.7933 50.539 21.1115C50.6068 21.3702 50.6945 21.5828 50.8261 21.7412C50.9956 21.9457 51.2388 22.058 51.6017 22.058C52.3334 22.058 52.5627 21.6409 52.6325 21.1917C52.6644 20.9892 52.6644 20.7786 52.6644 20.6001V15.0773C52.6644 14.5037 52.6644 13.6194 51.5997 13.6194L51.6037 13.6174ZM50.4313 18.1556C50.3376 19.1342 49.7833 20.1028 48.7346 20.1028C47.6858 20.1028 47.0857 19.1342 46.992 18.1556C46.982 18.0553 46.978 17.953 46.978 17.8527C46.978 16.7819 47.5183 15.5726 48.7366 15.5726C49.9548 15.5726 50.4493 16.7819 50.4493 17.8527C50.4493 17.953 50.4453 18.0553 50.4353 18.1556H50.4313Z" fill="white"/>
</g>
<defs>
<linearGradient id="paint0_linear_3440_30269" x1="4.37573" y1="15.9997" x2="65.6241" y2="15.9997" gradientUnits="userSpaceOnUse">
<stop stop-color="#F03257"/>
<stop offset="1" stop-color="#FF6E40"/>
</linearGradient>
</defs>
</svg>
