<svg width="39" height="12" viewBox="0 0 39 12" fill="none" xmlns="http://www.w3.org/2000/svg">
<path d="M14.1925 11.7083L16.0658 0.761758H19.0623L17.1872 11.7083H14.1919H14.1925ZM28.0128 0.997733C27.4193 0.775738 26.4888 0.538086 25.3275 0.538086C22.3664 0.538086 20.2814 2.02271 20.2634 4.15039C20.2466 5.72337 21.7521 6.60072 22.8887 7.12468C24.055 7.66149 24.447 8.00315 24.4414 8.48237C24.4341 9.21601 23.5098 9.55152 22.6489 9.55152C21.4494 9.55152 20.8126 9.38544 19.8282 8.97668L19.4419 8.80278L19.0213 11.2531C19.721 11.5584 21.0153 11.8235 22.3591 11.8369C25.5089 11.8369 27.5535 10.369 27.5771 8.09709C27.5883 6.85179 26.7898 5.90398 25.0613 5.12281C24.014 4.61619 23.3727 4.27845 23.3795 3.76568C23.3795 3.3105 23.9225 2.82402 25.0956 2.82402C26.0755 2.80892 26.7853 3.02197 27.3384 3.2434L27.6068 3.36978L28.0128 0.997173V0.997733ZM35.7235 0.761199H33.4082C32.6911 0.761199 32.1543 0.956353 31.8393 1.66875L27.3895 11.7005H30.5359C30.5359 11.7005 31.0503 10.3517 31.1665 10.0553C31.5102 10.0553 34.5667 10.0598 35.0042 10.0598C35.094 10.4429 35.3686 11.6999 35.3686 11.6999H38.1489L35.7235 0.760081V0.761199ZM32.0498 7.83036C32.2975 7.19961 33.2437 4.77052 33.2437 4.77052C33.2257 4.7996 33.4897 4.13697 33.6407 3.72597L33.8429 4.66987C33.8429 4.66987 34.4168 7.28292 34.5364 7.83092H32.0493L32.0498 7.83036ZM11.6486 0.761758L8.7151 8.22682L8.40231 6.70976C7.85592 4.96121 6.15498 3.0667 4.25244 2.11777L6.93498 11.6909L10.1055 11.6876L14.8225 0.761758H11.6486Z" fill="#1A1F71"/>
<path d="M5.16588 0.000556315H0.523022L0.486328 0.226755C4.09852 1.12711 6.48847 3.30351 7.48083 5.91842L6.47121 0.918692C6.29691 0.229534 5.79129 0.024454 5.16588 0" fill="#F2AE14"/>
</svg>
