<svg width="92" height="30" viewBox="0 0 92 30" fill="none" xmlns="http://www.w3.org/2000/svg">
<path d="M24.1128 2.31715C24.9138 2.14627 25.7248 2.06083 26.5459 2.06083C27.3869 2.06083 28.1979 2.14627 28.9789 2.31715L23.8124 21.0285C22.9113 21.1804 22.0302 21.2564 21.1691 21.2564C20.3882 21.2564 19.4971 21.1804 18.4958 21.0285L14.8913 8.46883L11.2267 21.0285C10.3256 21.1804 9.46453 21.2564 8.64351 21.2564C7.86253 21.2564 6.97142 21.1804 5.97017 21.0285L0.773682 2.31715C1.59471 2.14627 2.40572 2.06083 3.20672 2.06083C4.02774 2.06083 4.83876 2.14627 5.63976 2.31715L9.00396 15.5034L12.248 2.31715C13.0891 2.14627 13.9702 2.06083 14.8913 2.06083C15.8125 2.06083 16.6735 2.14627 17.4745 2.31715L21.3794 15.5604L24.1128 2.31715Z" fill="#464646"/>
<path d="M35.9866 21.2848C34.4046 21.2848 33.0229 20.981 31.8414 20.3735C30.6599 19.7659 29.7488 18.902 29.108 17.7818C28.4672 16.6426 28.1468 15.3325 28.1468 13.8516C28.1468 12.3516 28.4772 11.051 29.138 9.94979C29.7988 8.82958 30.72 7.96569 31.9015 7.35811C33.103 6.75054 34.4647 6.44675 35.9866 6.44675C37.5685 6.44675 38.9503 6.76003 40.1317 7.38659C41.3132 7.99417 42.2243 8.85806 42.8651 9.97827C43.5059 11.0985 43.8263 12.3896 43.8263 13.8516C43.8263 15.3705 43.5059 16.6901 42.8651 17.8103C42.2243 18.9305 41.3132 19.7944 40.1317 20.402C38.9503 20.9905 37.5685 21.2848 35.9866 21.2848ZM35.9866 17.5824C37.0479 17.5824 37.8589 17.2692 38.4196 16.6426C39.0003 15.997 39.2907 15.0667 39.2907 13.8516C39.2907 12.6744 39.0003 11.763 38.4196 11.1175C37.8389 10.4719 37.0279 10.1492 35.9866 10.1492C34.9653 10.1492 34.1543 10.4814 33.5535 11.146C32.9728 11.7915 32.6824 12.6934 32.6824 13.8516C32.6824 15.0667 32.9728 15.997 33.5535 16.6426C34.1342 17.2692 34.9453 17.5824 35.9866 17.5824Z" fill="#464646"/>
<path d="M62.3306 6.47523C64.0127 6.47523 65.4045 6.87395 66.5058 7.67139C67.6072 8.46883 68.1579 9.53209 68.1579 10.8612V21H63.6823V12.3706C63.6823 11.6301 63.432 11.07 62.9314 10.6903C62.4508 10.2916 61.7599 10.0922 60.8588 10.0922C60.0578 10.0922 59.2868 10.2346 58.5459 10.5194C58.7862 11.146 58.9064 11.8295 58.9064 12.57V21H54.4308V12.3706C54.4308 11.6301 54.1805 11.07 53.6798 10.6903C53.1992 10.2916 52.5084 10.0922 51.6072 10.0922C50.9264 10.0922 50.2856 10.1681 49.6848 10.32V21H45.1492L45.1792 8.32643C46.0603 7.73785 47.1417 7.28217 48.4233 6.95939C49.7049 6.63662 50.9564 6.47523 52.178 6.47523C53.0991 6.47523 53.9602 6.61763 54.7612 6.90243C55.5622 7.16825 56.2631 7.54798 56.8638 8.04163C57.6448 7.56697 58.5259 7.18723 59.5071 6.90243C60.4883 6.61763 61.4295 6.47523 62.3306 6.47523Z" fill="#464646"/>
<path d="M76.8843 6.47523C79.6277 6.47523 81.7704 7.15875 83.3123 8.52579C84.8743 9.89283 85.6552 11.8295 85.6552 14.3357C85.6552 16.4053 85.1146 18.0856 84.0332 19.3767C82.9719 20.6488 81.3599 21.2848 79.1972 21.2848C78.4963 21.2848 77.7854 21.1804 77.0645 20.9716C76.3436 20.7437 75.6728 20.4304 75.052 20.0317V25.3005C74.5714 25.6613 73.8505 25.984 72.8893 26.2688C71.9481 26.5536 71.1571 26.696 70.5163 26.696V7.58595C71.2773 7.24419 72.2184 6.97838 73.3398 6.78851C74.4813 6.57966 75.6628 6.47523 76.8843 6.47523ZM77.2748 17.6964C78.5363 17.6964 79.4975 17.3926 80.1584 16.785C80.8192 16.1774 81.1496 15.1901 81.1496 13.8231C81.1496 12.6839 80.8092 11.744 80.1283 11.0036C79.4675 10.2631 78.4763 9.89283 77.1546 9.89283C76.4938 9.89283 75.7929 9.94979 75.052 10.0637V17.497C75.7529 17.6299 76.4938 17.6964 77.2748 17.6964Z" fill="#464646"/>
<path d="M89.5122 4.56707C88.8714 4.56707 88.3208 4.35822 87.8602 3.94051C87.4196 3.50382 87.1993 2.98168 87.1993 2.37411C87.1993 1.76654 87.4296 1.2539 87.8902 0.836193C88.3508 0.399499 88.8915 0.181152 89.5122 0.181152C90.153 0.181152 90.7037 0.399499 91.1643 0.836193C91.6249 1.2539 91.8552 1.76654 91.8552 2.37411C91.8552 2.9627 91.6249 3.47534 91.1643 3.91203C90.7037 4.34873 90.153 4.56707 89.5122 4.56707ZM87.2594 6.87395C87.9203 6.60814 88.6812 6.47523 89.5423 6.47523C90.3833 6.47523 91.1343 6.60814 91.7951 6.87395V21H87.2594V6.87395Z" fill="#464646"/>
<path d="M5.22827 28.5279V25.6016C5.22827 25.3077 5.44515 25.0554 5.75004 25.0023C7.25681 24.7399 11.7448 24.0171 15.4705 24.0171C19.2054 24.0171 23.8157 24.7434 25.3508 25.0043C25.6572 25.0563 25.8754 25.3092 25.8754 25.6043V28.5431C25.8754 28.9679 25.43 29.281 24.9943 29.1824C23.5945 28.8655 20.495 28.3332 15.4705 28.3332C10.5056 28.3332 7.49862 28.853 6.12348 29.171C5.68391 29.2727 5.22827 28.9569 5.22827 28.5279Z" fill="#464646"/>
</svg>
