<svg xmlns:inkscape="http://www.inkscape.org/namespaces/inkscape" xmlns:sodipodi="http://sodipodi.sourceforge.net/DTD/sodipodi-0.dtd" xmlns="http://www.w3.org/2000/svg" xmlns:svg="http://www.w3.org/2000/svg" xmlns:rdf="http://www.w3.org/1999/02/22-rdf-syntax-ns#" xmlns:cc="http://creativecommons.org/ns#" xmlns:dc="http://purl.org/dc/elements/1.1/" sodipodi:docname="fp-simbolo-lime.svg" inkscape:version="1.3.2 (091e20ef0f, 2023-11-25, custom)" id="svg2" height="211.66667mm" width="211.67191mm" viewBox="0 0 800.0198 800.00004"><defs id="defs4"><clipPath clipPathUnits="userSpaceOnUse" id="clipPath7"><path d="M 0,1080 H 1920 V 0 H 0 Z" transform="translate(-1540.1667,-1020.8598)" id="path7"></path></clipPath></defs><metadata></metadata><path id="path2" clip-path="url(#clipPath7)" style="fill:#e3ff00;fill-opacity:1;fill-rule:nonzero;stroke:none" d="M 0.00107813,-5.7159376e-4 C -16.329873,-5.7159376e-4 -29.569723,-13.238957 -29.569723,-29.569908 c 0,-16.330952 13.23985,-29.569337 29.57080113,-29.569337 16.33095087,0 29.56933687,13.238385 29.56933687,29.569337 0,16.330951 -13.238386,29.56933640624 -29.56933687,29.56933640624 z M 15.071391,-10.102134 c 1.829994,0 3.313477,-1.48302 3.313477,-3.312012 0,-1.686992 -1.263074,-3.075715 -2.893067,-3.282715 h 1.274414 c 0.535997,0 0.94261,-0.483209 0.84961,-1.012207 l -0.958008,-5.424317 -1.133789,-6.436523 -1.009278,-5.723145 c -0.073,-0.412998 -0.431609,-0.713379 -0.849609,-0.713379 H 8.675883 c -0.4189986,0 -0.7776094,-0.301381 -0.8496094,-0.713379 l -0.8833008,-5.01123 c -0.073,-0.413 -0.4316106,-0.711914 -0.8496094,-0.711914 H 1.408793 c -0.53599776,0 -0.942609,0.483207 -0.84960939,1.012207 l 0.95654299,5.424316 1.0092774,5.723145 c 0.073,0.412998 0.430611,0.713379 0.8496094,0.713379 h 4.9877931 c 0.4189985,0 0.7776094,0.299916 0.8496094,0.711914 l 0.8320311,4.712402 c 0.093,0.527998 -0.3140757,1.012207 -0.8510741,1.012207 H 3.7847696 1.5948282 c -0.536998,0 -0.94260904,0.484209 -0.84960943,1.012207 l 0.83056643,4.712403 c 0.073,0.411998 0.431611,0.711914 0.8496094,0.711914 h 2.494629 6.4379884 3.292969 c -1.629993,0.207 -2.891602,1.595723 -2.891602,3.282715 0,1.828992 1.483019,3.312012 3.312012,3.312012 z m -28.737305,-6.594727 h 5.7128904 5.4082032 c 0.5359979,0 0.9426091,-0.483209 0.8496094,-1.012207 l -0.8305664,-4.710938 c -0.073,-0.411999 -0.430611,-0.713379 -0.8496094,-0.713379 h -5.7128908 -5.4082034 c -0.536999,0 -0.944073,0.484209 -0.851074,1.012207 l 0.832031,4.712403 c 0.073,0.411998 0.430611,0.711914 0.84961,0.711914 z m -2.270508,-12.873047 h 5.71289 5.4082038 c 0.5359977,0 0.9440738,-0.484674 0.8510742,-1.013672 l -0.8320313,-4.710938 c -0.073,-0.411999 -0.430611,-0.711914 -0.8496094,-0.711914 h -4.9877933 c -0.418999,0 -0.776609,-0.300381 -0.849609,-0.713379 l -0.883301,-5.01123 c -0.073,-0.412 -0.431611,-0.713379 -0.849609,-0.713379 h -4.686036 c -0.536999,0 -0.942608,0.485672 -0.849609,1.013672 l 0.956543,5.424316 1.009277,5.723145 c 0.073,0.411998 0.431613,0.713379 0.84961,0.713379 z" transform="matrix(13.527527,0,0,-13.527527,400.00523,-0.00773225)"></path></svg>