<svg xmlns="http://www.w3.org/2000/svg" id="Capa_2" data-name="Capa 2" viewBox="0 0 44.39 44.31"><defs><style>      .cls-1 {        fill: #e3ff00;        stroke-width: 0px;      }    </style></defs><g id="Capa_1-2" data-name="Capa 1"><g><path class="cls-1" d="M44.13,11.38C42.27,1.57,31.44-3.89,22.99,3.26c-.81.69-1.2.29-1.79-.2C16.39-.96,9.68-.98,5.11,2.96.4,7.03-1.2,13.28.92,19.15c2.18,6.04,6.26,10.61,11.29,14.35,3.35,2.5,8.11,1.23,10.35-2.41.78-1.26.47-3.02,1.46-3.96.99-.93,2.55-1.2,3.63-2.23,3.42-3.23,4.77-7.31,4.95-11.86.09-2.31-.22-2.58-2.5-2.6-.81,0-1.52-.01-2.18-.75-.84-.92-2.12-.37-2.31.89-.08.51-.05,1.05-.04,1.58.02.8-.16,1.68.74,2.17.92.5,1.51-.01,2.09-.68.3-.35.79-.36,1.21-.21.34.12.26.49.22.75-.46,2.82-1.2,5.55-3.1,7.77-2.58,3.02-6.06,3.19-8.73.39-2.17-2.28-2.95-5.21-3.44-8.22-.14-.83.41-.83.99-.73.43.07.57.48.86.72,1,.82,2.19.42,2.35-.85.11-.89.1-1.83,0-2.72-.13-1.12-1.42-1.79-2.09-1.03-.93,1.06-2.01.89-3.12.93-1.24.03-1.81.62-1.81,1.89,0,1.16.11,2.3.32,3.43.93,4.87,2.93,9.02,7.87,11.04.85.35.82.95.68,1.64-.64,3.08-4.4,4.53-7.04,2.57-3.53-2.62-6.45-5.81-8.64-9.67-1.58-2.77-2.16-5.7-1.95-8.83.27-4,3.33-8,7.01-9.21,3.88-1.27,7.93-.06,10.74,3.21,1.17,1.36,1.86,1.4,2.98.02,1.87-2.29,4.27-3.53,7.19-3.68,5.79-.31,10.55,4.59,10.58,10.82.07,2.2-.43,4.3-1.3,6.28-3.08,7.01-8.08,12.37-14.39,16.59-.61.41-1.08.49-1.81.13-2.25-1.12-4.78-.02-5.6,2.32-.76,2.17.56,4.63,2.78,5.19,2.35.59,4.8-.96,5.06-3.41.12-1.06.59-1.61,1.37-2.16,5.18-3.65,9.73-7.93,13.06-13.37,2.6-4.24,4.47-8.75,3.49-13.87ZM22.16,41.43c-.75-.03-1.06-.53-1.07-1.25.09-.71.47-1.14,1.21-1.08.66.06,1.02.51,1,1.16-.02.7-.38,1.19-1.14,1.16Z"></path><path class="cls-1" d="M23.3,40.27c-.02.7-.38,1.19-1.14,1.16-.75-.03-1.06-.53-1.07-1.25.09-.71.47-1.14,1.21-1.08.66.06,1.02.51,1,1.16Z"></path></g></g></svg>