<svg xmlns="http://www.w3.org/2000/svg" id="Capa_2" data-name="Capa 2" viewBox="0 0 65.93 68.18"><defs><style>      .cls-1 {        fill: #e3ff00;        stroke-width: 0px;      }    </style></defs><g id="Capa_1-2" data-name="Capa 1"><g><path class="cls-1" d="M33.03,68.15c-9.93,0-19.86-.04-29.78.03C.86,68.2,0,66.7,0,64.91.02,46.46.01,28,.02,9.54c0-2.21.98-3.18,3.19-3.19,2.15,0,4.3.03,6.45-.02.83-.02,1.12.2,1.11,1.07-.05,2.9-.02,5.8-.01,8.7.01,2.51,1.62,4.27,4.12,4.44,1.26.09,2.53.09,3.78,0,2.57-.16,4.2-1.9,4.22-4.47.02-2.9.03-5.8,0-8.7,0-.78.2-1.06,1.03-1.05,6.07.04,12.15.04,18.22,0,.88,0,1,.34,1,1.08-.03,2.87-.02,5.73,0,8.6.01,2.7,1.65,4.44,4.33,4.56,1.19.06,2.39.06,3.58-.01,2.57-.17,4.2-1.91,4.21-4.48.02-2.93.02-5.87,0-8.8,0-.7.18-.95.91-.94,2.25.04,4.5,0,6.76.02,2.05.02,3.04.98,3.04,3,0,18.56,0,37.12,0,55.68,0,2.19-.95,3.11-3.12,3.11-9.93,0-19.86,0-29.78,0ZM33.02,28.87c-9.31,0-18.62,0-27.93,0-1.63,0-1.67.04-1.67,1.66,0,11.05,0,22.1,0,33.15,0,1.71.03,1.74,1.71,1.74,18.59,0,37.17,0,55.76,0,1.59,0,1.69-.1,1.69-1.68,0-11.08,0-22.17,0-33.25,0-1.53-.1-1.63-1.62-1.63-9.31,0-18.62,0-27.93,0Z"></path><path class="cls-1" d="M13.22,8.23c0-1.98,0-3.96,0-5.94,0-1.5.56-2.14,2.06-2.22,1.12-.06,2.25-.06,3.37.05,1.21.11,1.77.77,1.77,1.97.02,4.16.02,8.32,0,12.49,0,1.18-.63,1.86-1.81,1.93-1.19.08-2.39.08-3.58,0-1.25-.08-1.79-.74-1.8-2.03-.02-2.08,0-4.16,0-6.24Z"></path><path class="cls-1" d="M52.79,8.26c0,2.04.01,4.09,0,6.13-.01,1.38-.58,2.05-1.94,2.13-1.12.07-2.25.07-3.37,0-1.3-.08-1.93-.74-1.93-2.03-.02-4.12-.02-8.25,0-12.37,0-1.23.54-1.85,1.74-2,1.25-.16,2.52-.16,3.77,0,1.21.16,1.72.77,1.73,2,.02,2.04,0,4.09,0,6.13Z"></path></g><path class="cls-1" d="M46.82,43.07c.03,3.91-1.86,6.14-4.03,8.18-2.27,2.14-4.81,3.97-7.26,5.89-1.45,1.14-2.28,1.15-3.71,0-3.03-2.42-6.23-4.63-8.87-7.52-2.88-3.15-3.27-7.52-.89-10.65,2.61-3.43,7.54-4.04,10.92-1.31.52.42.82.44,1.35.01,2.51-2.02,5.31-2.27,8.16-.94,2.9,1.36,4.24,3.82,4.33,6.32ZM28.25,40.45c-1.59.02-2.73.95-3.11,2.36-.46,1.72.39,2.96,1.46,4.09,2,2.12,4.38,3.79,6.63,5.63.37.3.62.21.94-.05,1.9-1.57,3.84-3.09,5.71-4.7.88-.75,1.66-1.62,2.13-2.72.71-1.65.14-3.46-1.34-4.23-1.52-.8-3.29-.31-4.27,1.21-.31.48-.53,1.03-.8,1.54-.6,1.1-1.79,1.49-2.87.98-.68-.32-.99-.91-1.27-1.55-.64-1.45-1.6-2.51-3.21-2.55Z"></path></g></svg>