<svg xmlns="http://www.w3.org/2000/svg" id="Capa_2" data-name="Capa 2" viewBox="0 0 71.81 47.36"><defs><style>      .cls-1 {        fill: #e3ff00;        stroke-width: 0px;      }    </style></defs><g id="Capa_1-2" data-name="Capa 1"><g><path class="cls-1" d="M71.8,26.75c-1.03.34-1.93.24-2.82.2-2.1-.1-4.2-.07-6.3-.05-.36,0-.74.01-1.25.44,3.55.54,6.98.17,10.33.81-3.36.49-6.77.1-10.23.51.28.49.66.39.96.4,2.76.06,5.52.1,8.29.16.33,0,.69-.1,1.02.21-.23.34-.6.31-.91.32-2.71.12-5.41.21-8.12.34-.39.02-1.06-.15-1.08.33-.02.42.66.27,1.02.29,2.42.15,4.83-.1,7.25-.05.56.01,1.16-.11,1.7.18-.08.33-.33.3-.52.31-3.28.31-6.55.68-9.85.72-1.93.02-3.77-.23-5.28-1.58-.33-.3-.74-.25-1.14-.25-3.27,0-6.54,0-9.81,0-1.68,0-1.57.16-2.52-1.73-.19-.38-.33-.78-.51-1.17-.09-.19-.16-.45-.42-.42-.23.03-.31.28-.38.47-.23.6-.44,1.2-.66,1.8-.99,2.74-1.99,5.48-2.97,8.23-.22.61-.61.92-1.24.93-.59.01-.9-.31-1.1-.85-1.33-3.6-2.69-7.2-3.89-10.85-.3-.93-.69-1.84-1.05-2.75-.07-.19-.1-.48-.35-.48-.24,0-.27.3-.33.49-.56,1.71-1.13,3.42-1.66,5.15-.25.83-.74,1.21-1.62,1.19-1.94-.03-3.88-.02-5.82,0-.28,0-.64-.1-.79.22-.14.3.09.56.24.8,2.26,3.65,5.4,6.44,8.8,8.98,1.97,1.47,3.99,2.9,5.96,4.37.31.23.5.25.82.02,3.03-2.1,6.03-4.25,8.83-6.66,1.75-1.5,3.39-3.14,4.75-5.01.48-.65.99-.76,1.7-.71,1.52.11,1.57.14.7,1.41-1.75,2.56-3.96,4.71-6.31,6.71-2.85,2.42-5.96,4.49-8.96,6.72-.7.52-1.32.69-2.08.11-3.42-2.59-7.01-4.97-10.23-7.82-2.74-2.43-5.19-5.09-6.79-8.43-.23-.48-.57-.65-1.11-.73-1.16-.18-1.95.06-2.79,1.03-1.9,2.17-4.47,2.56-7.22,2.06-1.53-.28-3-.74-4.28-1.63-2.4-1.67-2.4-3.67.1-5.2,2.67-1.63,5.58-2.15,8.65-1.3,1.24.35,2.25,1.07,3.05,2.07.44.54.96.75,1.65.74,3.19-.03,6.38-.04,9.57,0,.87.01,1.24-.38,1.47-1.12.81-2.58,1.67-5.15,2.47-7.73.19-.6.56-.9,1.12-.97.58-.07.94.29,1.14.81.48,1.26.98,2.52,1.44,3.79,1.2,3.34,2.39,6.69,3.59,10.04.07.19.1.47.35.47.26,0,.29-.28.36-.47,1.03-2.79,2.04-5.57,3.07-8.36.17-.47.41-.92.59-1.39.18-.48.52-.71,1.03-.73.51-.02.86.2,1.09.66.65,1.34,1.32,2.66,1.93,4.02.31.7.73,1,1.52.98,1.65-.05,3.3-.04,4.94,0,.67.01.98-.21,1.15-.9.7-2.77.44-5.45-.77-8-1.32-2.79-3.47-4.81-6.48-5.59-2.92-.75-5.77-.26-8.35,1.33-.92.57-1.57.52-2.51-.01-3.5-1.96-7.14-2.39-10.74-.26-2.52,1.49-4.13,3.69-4.86,6.59-.33,1.31-.45,2.6-.4,3.93.02.53-.1.93-.72.88-.6-.05-1.45.34-1.59-.69-.13-.98-.07-1.97.07-2.94.76-4.95,3.26-8.66,7.96-10.62,2.38-.99,4.91-1.03,7.45-.49,1.3.28,2.52.76,3.7,1.37.38.2.71.04,1.05-.13,2.77-1.37,5.69-1.96,8.74-1.35,3.53.71,6.23,2.65,8.13,5.75,1.99,3.24,2.25,6.73,1.7,10.36-.04.26-.14.58.2.68.43.13.96.28,1.27-.12,1.17-1.54,2.91-1.79,4.58-1.8,3.66-.02,7.32.29,10.96.75.07,0,.12.08.36.23Z"></path><path class="cls-1" d="M39.61,5.25c-1.34.77-2.31,1.92-2.96,3.28-.38.78-.88,1.52-1.05,2.4-.03.16-.11.33-.3.31-.33-.04-.29-.34-.31-.56-.23-2.12.22-4.11,1.12-6.02.76-1.64,2-2.78,3.64-3.51,1.13-.5,2.36-.29,3.53-.42,1.71-.18,3.45-.04,5.1-.66.6-.22.63.16.51.6-1.05,3.71-3.1,6.51-6.89,7.84-1.26.44-2.53.54-3.84.51-.66-.01-.78-.32-.52-.87.51-1.06,1.15-2.03,1.98-2.89Z"></path></g></g></svg>