<svg xmlns="http://www.w3.org/2000/svg" id="Capa_2" data-name="Capa 2" viewBox="0 0 78.69 58.39"><defs><style>      .cls-1 {        fill: #e3ff00;        stroke-width: 0px;      }    </style></defs><g id="Capa_1-2" data-name="Capa 1"><g><path class="cls-1" d="M0,1.22C.56.15,1.19-.2,2.04.11c.79.29,1.03.93,1.03,1.71,0,2.23.02,4.46-.01,6.68,0,.57.13.78.71.72.53-.05,1.08-.06,1.61,0,.68.08.78-.21.78-.82-.03-2.23-.03-4.46,0-6.68.01-1.29,1.1-2.06,2.16-1.57.72.34.91.98.91,1.72,0,2.2.02,4.41-.02,6.61-.01.63.2.78.77.74.74-.06,1.72.24,2.15-.13.49-.43.15-1.44.16-2.2.02-1.72,0-3.43.01-5.15.02-1.31,1.07-2.07,2.14-1.59.63.28.92.81.92,1.48,0,4.12.06,8.25-.03,12.37-.05,2.54-2.04,4.36-4.59,4.44q-1.52.04-1.52,1.58c0,2.43.01,4.87,0,7.3,0,.44.13.65.53.86,1.64.85,2.53,2.24,2.54,4.08.03,7.15.03,14.29,0,21.44,0,2.67-2.03,4.69-4.58,4.7-2.55.01-4.6-1.99-4.62-4.66-.03-7.17-.03-14.34,0-21.51,0-1.84.92-3.23,2.57-4.06.38-.19.5-.4.5-.81-.02-2.74-.03-5.48,0-8.22,0-.6-.18-.73-.74-.7-1.81.11-3.39-.38-4.53-1.9-.44-.59-.59-1.29-.89-1.94V1.22ZM9.19,43.02c0-3.38,0-6.76,0-10.14,0-.23,0-.46-.03-.69-.13-.83-.74-1.41-1.46-1.43-.75-.01-1.38.6-1.5,1.47-.03.18-.02.36-.02.54,0,6.83,0,13.67,0,20.5,0,.34.02.66.13.98.3.84,1.19,1.22,1.99.85.73-.34.9-.99.9-1.72,0-3.46,0-6.91,0-10.37ZM7.75,12.31c-1.36,0-2.71,0-4.07,0-.2,0-.46-.11-.57.22-.52,1.45.42,2.79,1.97,2.79,1.74,0,3.48,0,5.22,0,.25,0,.52,0,.76-.07.93-.24,1.22-.87,1.21-2.35,0-.47-.13-.61-.61-.6-1.3.03-2.61.01-3.92,0Z"></path><path class="cls-1" d="M78.69,54.55c-.38,1.25-.96,2.36-2.11,3.09-2.8,1.77-6.41.2-7.01-3.05-.08-.45-.09-.92-.1-1.37,0-7.22-.01-14.44.01-21.65,0-.65-.12-.87-.82-.85-1.82.06-2.26-.42-2.26-2.25,0-4.71-.02-9.42,0-14.13.04-6.34,3.88-11.87,9.71-14.05,1.34-.5,1.79-.37,2.58.78v53.49ZM75.59,3.99c-1.52.83-2.67,1.89-3.65,3.16-1.7,2.22-2.42,4.77-2.43,7.52-.02,4.02.02,8.04-.03,12.06,0,.74.17.94.92.92,1.69-.07,2.17.46,2.17,2.18,0,7.76,0,15.51,0,23.27,0,.38,0,.77.12,1.14.23.66.73,1.03,1.38,1.02.64,0,1.17-.33,1.4-1,.13-.38.12-.76.12-1.14,0-15.39,0-30.77,0-46.16,0-.95,0-1.89,0-2.96Z"></path><path class="cls-1" d="M39.56,8.3c5.66.1,10.78,2.16,15.19,5.98,3.89,3.37,6.57,7.53,7.85,12.55,1.3,5.08.81,10.01-1.35,14.75-2.57,5.63-6.69,9.83-12.31,12.45-6.29,2.94-12.68,3-18.99.09-6.46-2.99-10.96-7.89-13.33-14.62-1.97-5.61-1.64-11.19.84-16.58,2.57-5.61,6.69-9.74,12.25-12.41,3.04-1.46,6.27-2.17,9.84-2.21ZM60.25,32.47c-.07-2.62-.4-4.59-1.1-6.47-2.16-5.85-6.07-10.14-11.71-12.79-4.68-2.2-9.53-2.49-14.4-.73-5.78,2.1-10.01,5.99-12.66,11.53-2.26,4.72-2.58,9.61-.81,14.54,2.11,5.84,6.05,10.1,11.65,12.74,4.84,2.28,9.81,2.49,14.83.6,4.3-1.62,7.73-4.37,10.37-8.1,2.52-3.56,3.85-7.54,3.82-11.32Z"></path><path class="cls-1" d="M52.5,29.91c.03,3.91-1.86,6.14-4.03,8.18-2.27,2.14-4.81,3.97-7.26,5.89-1.45,1.14-2.28,1.15-3.71,0-3.03-2.42-6.23-4.63-8.87-7.52-2.88-3.15-3.27-7.52-.89-10.65,2.61-3.43,7.54-4.04,10.92-1.31.52.42.82.44,1.35.01,2.51-2.02,5.31-2.27,8.16-.94,2.9,1.36,4.24,3.82,4.33,6.32ZM33.93,27.3c-1.59.02-2.73.95-3.11,2.36-.46,1.72.39,2.96,1.46,4.09,2,2.12,4.38,3.79,6.63,5.63.37.3.62.21.94-.05,1.9-1.57,3.84-3.09,5.71-4.7.88-.75,1.66-1.62,2.13-2.72.71-1.65.14-3.46-1.34-4.23-1.52-.8-3.29-.31-4.27,1.21-.31.48-.53,1.03-.8,1.54-.6,1.1-1.79,1.49-2.87.98-.68-.32-.99-.91-1.27-1.55-.64-1.45-1.6-2.51-3.21-2.55Z"></path></g></g></svg>