<svg xmlns="http://www.w3.org/2000/svg" id="Capa_2" data-name="Capa 2" viewBox="0 0 67.92 75.59"><defs><style>      .cls-1 {        fill: #e3ff00;        stroke-width: 0px;      }    </style></defs><g id="Capa_1-2" data-name="Capa 1"><g><path class="cls-1" d="M41.19,75.59c-.81-.38-1.08-1.02-1.07-1.91.04-4.21,0-8.41.05-12.62.04-3.41.47-6.77,1.96-9.9.87-1.84,1.98-3.52,3.35-5.01,2.81-3.06,5.81-5.94,8.85-8.78,1.07-1,2.25-1.84,3.76-2.06.53-.08.34-.48.34-.75.07-3.32.13-6.64.19-9.96.03-1.35.02-2.71.12-4.06.25-3.31,3.01-5.72,6.33-5.6,1.64.06,2.84,1.24,2.85,2.88,0,9.25.03,18.5-.02,27.75-.01,3.08-1.08,5.8-3.18,8.12-2.51,2.77-4.95,5.61-7.43,8.4-.3.34-.43.67-.42,1.12.02,3.49-.01,6.99.02,10.48,0,.89-.27,1.52-1.07,1.91h-14.62ZM64.95,32.18h0c0-4.53-.01-9.05.02-13.58,0-.69-.22-.78-.81-.63-1.52.36-2.45,1.46-2.49,3.13-.11,4.97-.2,9.94-.3,14.9,0,.28.04.52.22.76.62.8.79,1.73.77,2.71-.03,1.48-.5,2.85-1.12,4.17-1.27,2.7-3.07,5.03-5.2,7.1-.58.56-1.28.67-1.89.31-.6-.35-.81-.91-.7-1.58.07-.49.44-.81.77-1.14,1.65-1.65,3.06-3.46,4.11-5.54.55-1.1,1.05-2.23,1.03-3.5-.02-.94-.57-1.28-1.43-.88-.58.27-1.09.67-1.56,1.1-2.45,2.2-4.69,4.64-7.09,6.89-4.26,3.99-6.23,8.89-6.17,14.7.04,3.62,0,7.23-.02,10.85,0,.56.16.7.7.69,3.12-.03,6.25-.03,9.37,0,.58,0,.74-.15.74-.73-.03-3.17,0-6.35-.02-9.52,0-.66.2-1.18.63-1.67,2.53-2.85,4.99-5.77,7.59-8.56,2.02-2.17,2.88-4.67,2.85-7.58-.04-4.13,0-8.27,0-12.4Z"></path><path class="cls-1" d="M12.11,75.59c-.8-.39-1.08-1.02-1.07-1.91.03-3.49,0-6.99.02-10.48,0-.45-.12-.78-.42-1.12-2.44-2.74-4.81-5.53-7.29-8.23C1.01,51.3,0,48.31,0,44.9c0-8.73,0-17.47,0-26.2,0-.3,0-.59,0-.89.04-1.64,1.21-2.82,2.85-2.88,3.32-.12,6.17,2.29,6.32,5.6.2,4.55.21,9.1.31,13.65,0,.25.02.49.02.74,0,.23.08.35.33.38,1.58.24,2.79,1.18,3.94,2.19.59.52,1.16,1.06,1.71,1.63.63.65.63,1.5.06,2.12-.54.58-1.45.59-2.12,0-.64-.57-1.26-1.17-1.9-1.75-.25-.23-.53-.45-.81-.63-.55-.35-1.13-.9-1.8-.41-.64.47-.39,1.23-.25,1.85.52,2.23,1.74,4.1,3.12,5.88.71.92,1.53,1.74,2.32,2.58.47.5.54,1.09.24,1.71-.3.59-.81.82-1.46.78-.33-.02-.63-.16-.86-.38-2.66-2.61-4.9-5.52-6.06-9.12-.44-1.37-.75-2.86-.02-4.17.6-1.07.61-2.12.59-3.24-.09-4.38-.16-8.76-.25-13.13-.04-1.79-1.09-3.03-2.69-3.27-.42-.06-.61,0-.61.51.02,9,0,18.01.03,27.01,0,2.39.85,4.49,2.48,6.3,2.67,2.96,5.27,5.97,7.92,8.95.45.51.65,1.06.64,1.74-.02,3.17,0,6.35-.02,9.52,0,.5.11.68.64.67,3.17-.03,6.35-.02,9.52,0,.45,0,.65-.09.64-.6-.08-4.43.14-8.86-.17-13.28-.19-2.76-.86-5.38-2.31-7.77-.58-.95-.43-1.79.33-2.26.8-.49,1.64-.2,2.22.74,1.66,2.72,2.48,5.71,2.71,8.87.37,5.21.11,10.43.19,15.64.01.81-.43,1.26-1.06,1.61h-14.62Z"></path><path class="cls-1" d="M45.47,0c1.23.32,2.48.55,3.64,1.09,4.76,2.21,7.53,7.21,6.88,12.42-.44,3.53-1.88,6.65-3.83,9.55-3.84,5.72-8.66,10.46-14.66,13.86-3.61,2.04-3.54,2.08-7.16-.05-7.29-4.3-13.09-10.11-16.81-17.81-1.46-3.02-2.17-6.21-1.46-9.59C13.09,4.67,17.12.87,21.96.14c.17-.02.35,0,.48-.14.89,0,1.77,0,2.66,0,.11.04.23.1.34.12,2.57.33,4.76,1.44,6.65,3.2,1.3,1.21,2.44,1.21,3.74,0,1.2-1.12,2.55-1.97,4.08-2.57.94-.37,1.94-.48,2.91-.74h2.66ZM23.74,3.03c-.16.02-.48.07-.79.1-3.39.36-5.8,2.15-7.27,5.17-1.32,2.73-.91,5.5.1,8.21,1.33,3.57,3.53,6.61,6.05,9.43,1.47,1.64,3.07,3.16,4.75,4.58,1.98,1.67,4.08,3.15,6.4,4.32.66.33,1.23.34,1.87.04.94-.44,1.83-.96,2.69-1.53,4.37-2.91,8.12-6.49,11.21-10.74,1.76-2.41,3.22-4.99,3.93-7.93.65-2.69.47-5.26-1.12-7.61-1.82-2.68-4.41-4.04-7.61-4.03-2.4,0-4.45,1.01-6.22,2.65-2.51,2.32-5.4,2.04-7.68-.05-1.8-1.65-3.79-2.45-6.3-2.62Z"></path><path class="cls-1" d="M20.67,44.86c0,.8-.63,1.48-1.42,1.5-.81.03-1.52-.65-1.54-1.47-.01-.82.67-1.49,1.51-1.49.81,0,1.44.64,1.45,1.46Z"></path><path class="cls-1" d="M32.42,16.43c0-.98-.01-1.97,0-2.95,0-.39-.11-.56-.54-.6-.8-.07-1.33-.67-1.37-1.46-.04-.75.48-1.48,1.26-1.58,1.47-.18,2.94-.18,4.41,0,.74.1,1.24.81,1.22,1.54-.03.75-.55,1.42-1.28,1.48-.55.04-.63.27-.63.74.02,1.89,0,3.79,0,5.68,0,.77.17.89.93.69,1.34-.36,2.46-1.8,2.48-3.23.02-1.13-.01-2.26.02-3.39.05-1.98,1.61-3.53,3.51-3.55.88,0,1.51.5,1.61,1.29.11.91-.36,1.64-1.24,1.79-.53.09-.68.34-.69.84-.03,1.52.15,3.04-.26,4.55-.75,2.77-3,4.71-5.83,4.95-.43.04-.54.19-.54.59.02,1.03.02,2.07,0,3.1,0,.41.16.56.53.64.95.2,1.48.87,1.37,1.69-.12.88-.72,1.37-1.7,1.38-1.21,0-2.41.01-3.62,0-.86,0-1.48-.59-1.56-1.43-.07-.77.45-1.49,1.28-1.62.51-.08.64-.31.62-.78-.03-.98-.02-1.97,0-2.95,0-.38-.08-.56-.52-.6-3.45-.3-6.01-3.08-6.11-6.6-.03-.96-.02-1.92,0-2.88,0-.49-.13-.77-.67-.86-.9-.15-1.36-.85-1.26-1.77.08-.8.71-1.32,1.59-1.31,1.94.01,3.49,1.58,3.54,3.61.03,1.13,0,2.26.02,3.39.03,1.41,1.2,2.87,2.53,3.19.73.18.88.07.88-.68,0-.96,0-1.92,0-2.88Z"></path></g></g></svg>