<svg xmlns="http://www.w3.org/2000/svg" id="Capa_2" data-name="Capa 2" viewBox="0 0 49.7 54.13"><defs><style>      .cls-1 {        fill: #e3ff00;        stroke-width: 0px;      }    </style></defs><g id="Capa_1-2" data-name="Capa 1"><g><path class="cls-1" d="M15.66,54.13c-2.32-2.31-4.64-4.62-6.95-6.93-.96-.96-1.92-1.92-2.88-2.88-.4-.4-.45-.81-.19-1.18.32-.45.85-.44,1.32.02,1.47,1.47,2.94,2.94,4.41,4.41,1.42,1.42,2.85,2.83,4.25,4.27.29.29.44.27.71,0,.96-.99,1.93-1.96,2.92-2.91.29-.28.28-.41,0-.69-4.03-4.02-8.05-8.04-12.07-12.07-.45-.45-.91-.89-1.35-1.34-.18-.18-.29-.24-.5-.02-1.02,1.04-2.06,2.08-3.1,3.1-.22.21-.2.35.01.55.68.66,1.35,1.34,2.02,2.02.4.4.47.9.18,1.22-.35.39-.85.37-1.3-.07-.94-.93-1.88-1.86-2.8-2.8-.44-.45-.44-.84,0-1.29,1.53-1.54,3.06-3.07,4.6-4.6.43-.43.83-.41,1.29,0,.27.24.49.73.81.68.3-.04.54-.47.8-.73.25-.25.49-.5.75-.75.5-.47.87-.47,1.37,0,.38.37.76.73,1.12,1.12.24.27.36.25.57-.06,1.1-1.7,2.45-3.18,4.16-4.3,3.03-1.99,6.25-2.14,9.54-.84,1.54.61,3.07.92,4.72.81.72-.05,1.44-.02,2.17,0,1.3.03,2.27.59,2.79,1.81.18.42.35.25.58.11,3.23-1.87,6.46-3.74,9.7-5.6,1.8-1.03,4.02-.02,4.37,2,.19,1.09-.22,2-1.03,2.69-1.14.97-2.34,1.87-3.52,2.79-3.29,2.57-6.59,5.13-9.86,7.72-1.34,1.06-2.83,1.6-4.54,1.56-.92-.02-1.83,0-2.75,0-.65,0-1-.3-1-.82,0-.5.34-.76.98-.78,1.27-.03,2.54.07,3.8-.06.77-.08,1.47-.36,2.08-.83,4.51-3.52,9.03-7.04,13.53-10.57.9-.7.87-1.76-.02-2.28-.48-.28-.93-.19-1.39.07-2.7,1.56-5.4,3.12-8.09,4.67-.55.32-1.09.64-1.65.95-.63.35-1.21.71-1.63,1.35-.52.78-1.37,1.09-2.3,1.09-3.12.01-6.24,0-9.36,0-.65,0-1.02-.32-1.02-.82,0-.5.38-.82,1.02-.82,2.94,0,5.88,0,8.83,0,.25,0,.49,0,.74-.01.69-.06,1.14-.49,1.17-1.13.04-.72-.4-1.32-1.07-1.41-.93-.13-1.87-.08-2.8-.04-1.64.08-3.18-.15-4.72-.81-2.12-.92-4.34-1.18-6.58-.33-2.28.87-3.93,2.49-5.3,4.45-.63.91-.62.92.17,1.71,1.49,1.5,2.99,2.99,4.48,4.49.24.25.49.34.84.34,1.83,0,3.66,0,5.5,0,.59,0,.92.31.91.8-.02.51-.35.8-.98.8-1.3,0-2.61,0-3.91,0-.09,0-.17,0-.39.02.47.48.88.9,1.28,1.31.62.62.61.96-.02,1.59-.39.39-.76.79-1.16,1.15-.27.24-.23.4.01.63.45.42.88.86,1.31,1.31.38.4.4.83.02,1.21-1.56,1.58-3.14,3.14-4.71,4.71-.1.1-.23.16-.34.25h-.53ZM9.26,33.75c-.08.07-.14.12-.21.18-.2.2-.38.42-.6.59-.3.23-.27.39,0,.65,3.09,3.07,6.16,6.15,9.24,9.22.85.85.86.83,1.7-.07.19-.21.18-.32-.01-.51-3.29-3.28-6.58-6.57-9.87-9.86-.07-.07-.16-.14-.24-.21Z"></path><path class="cls-1" d="M38.18,0c.25.16.54.14.81.2,5.63,1.27,7.96,8.24,4.12,12.56-1.76,1.98-3.73,3.79-5.61,5.67-1.98,1.98-3.96,3.96-5.95,5.93-.65.65-.82.66-1.47.01-1.41-1.4-2.82-2.81-4.23-4.22-.31-.31-.49-.64-.29-1.08.27-.6.84-.69,1.37-.18.79.76,1.55,1.54,2.32,2.31.39.39.79.76,1.15,1.17.3.34.49.3.8,0,2.77-2.78,5.56-5.54,8.35-8.31.64-.63,1.28-1.26,1.91-1.9,1.71-1.74,2.31-3.82,1.61-6.16-.69-2.29-2.29-3.7-4.63-4.23-2.64-.6-5.49.83-6.67,3.31-.17.36-.28.78-.76.87-.5.1-.8-.1-1.08-.7-.86-1.84-2.28-3.01-4.26-3.45-3.67-.81-7.41,2.08-7.35,5.99.02,1.72.68,3.14,1.86,4.34,1.36,1.38,2.74,2.74,4.11,4.11.49.49.55.95.2,1.28-.41.39-.92.35-1.39-.12-1.37-1.37-2.76-2.72-4.11-4.11-2.19-2.25-2.92-4.92-1.94-7.91.98-2.98,3.11-4.73,6.22-5.28.08-.01.16-.06.24-.09.6,0,1.2,0,1.8,0,.77.22,1.57.35,2.31.69,1.31.61,2.35,1.52,3.22,2.73.81-1.15,1.8-2.02,3.02-2.63C34.63.38,35.51.21,36.38,0h1.8Z"></path><path class="cls-1" d="M36.74,12.38c0,.51,0,1.02,0,1.53-.01.61-.3.9-.91.92-.62.01-1.23.03-1.85,0-.4-.02-.57.08-.54.52.04.6.01,1.2,0,1.79,0,.67-.29.98-.95.98-1.02,0-2.04,0-3.06,0-.64,0-.94-.29-.97-.93-.02-.6-.03-1.2,0-1.79.02-.42-.09-.6-.55-.57-.58.04-1.16.01-1.74,0-.66,0-1-.31-1.01-.95-.02-1.02-.02-2.04,0-3.06.01-.65.33-.96.99-.98.63-.02,1.27-.02,1.9,0,.29,0,.41-.1.4-.4-.01-.6-.01-1.2,0-1.8.01-.78.32-1.1,1.09-1.1.95,0,1.9,0,2.85,0,.75,0,1.05.31,1.05,1.06,0,.6.02,1.2,0,1.79-.02.36.12.45.46.44.62-.02,1.23-.01,1.85,0,.7.02.98.31.99,1.01,0,.51,0,1.02,0,1.53ZM28.27,13.2c.32,0,.63,0,.95,0,.59.01.87.28.9.87.02.39,0,.77,0,1.16,0,1.34,0,1.33,1.36,1.26.29-.01.36-.11.35-.38-.01-.65,0-1.3,0-1.95,0-.7.27-.96.95-.97.37,0,.74,0,1.11,0,1.25,0,1.24,0,1.24-1.23,0-.36-.08-.5-.46-.48-.63.03-1.27.02-1.9,0-.64-.01-.92-.31-.93-.95,0-.67-.02-1.34,0-2.01.01-.5-.37-.39-.58-.34-.37.1-.99-.39-1.1.33-.09.62-.02,1.26-.02,1.9,0,.78-.28,1.06-1.04,1.06-.63,0-1.27.01-1.9,0-.28,0-.35.1-.37.37-.05,1.34-.06,1.34,1.25,1.34.07,0,.14,0,.21,0Z"></path></g></g></svg>