<svg xmlns="http://www.w3.org/2000/svg" xmlns:cc="http://creativecommons.org/ns#" xmlns:dc="http://purl.org/dc/elements/1.1/" xmlns:rdf="http://www.w3.org/1999/02/22-rdf-syntax-ns#" viewBox="0 0 400 400"><metadata></metadata><path d="m199.87 22.07c-98.482 0.0011-178.32 79.837-178.32 178.32 0.24633 28.032 7.0984 55.612 20 80.5l-34.318 12.207 36.916-6.7969 0.14844 0.31055 59.291-11.25v-0.00196l-0.0039-0.0039c-16.772-21.399-25.939-47.776-26.051-74.965 0-67.566 54.774-122.34 122.34-122.34 67.565 0 122.34 54.773 122.34 122.34-0.1857 7.6885-1.096 15.342-2.7188 22.859l-34.254 8.6738c0.73592-2.8506 1.1172-5.9067 1.1172-9.1445 0-11.712-4.8224-18.87-8.8652-22.811-8.5676-8.3534-19.899-8.7021-22.23-8.6953h-27.924c-2.2088 0-3.998-1.7893-3.998-3.998v-4.6992c-0.00172-1.0604 0.41847-2.0767 1.168-2.8281h0.00196c0.74951-0.75126 1.7658-1.1758 2.8262-1.1758h46.371c2.2088 0 3.998-1.7912 3.998-4v-17.395c0-2.2072-1.7893-3.998-3.998-3.998h-71.764c-2.207 0-3.998 1.7893-3.998 3.998v55.484c0 2.2088 1.791 3.998 3.998 3.998h53.705c1.4835 0.1106 2.9106 0.62525 4.123 1.4922 1.0379 1.012 1.1953 3.3335 1.1953 4.6289 0 6.2776-4.4988 6.5007-6.7266 6.5801h-52.291c-2.2088 0-4 1.7912-4 4v17.396c0 1.1723 0.52434 2.2024 1.3281 2.9336l-50.184 12.707 61.408-11.643h43.877c5.3192-0.1192 10.547-1.3976 15.318-3.748 4.6918-2.3462 8.4002-5.625 11.16-9.5918l36.016-6.8281c-0.0246 0.1062-0.04934 0.21228-0.07422 0.31836l59.834-11.354c1.0221-7.6786 1.5427-15.416 1.5586-23.162-0.00111-98.481-79.835-178.32-178.32-178.32h-0.00195-0.00196zm-26.639 70.666c-8.2516 0-14.941 6.69-14.941 14.941 0 8.2482 6.69 14.939 14.941 14.939 8.2516 0 14.939-6.6915 14.939-14.939 0-8.2482-6.6879-14.941-14.939-14.941zm7.6133 5.1055c0.92394 0 1.6738 0.74966 1.6738 1.6719 0 0.85142-0.63737 1.5546-1.4629 1.6582h0.64258c0.27114 0 0.48 0.2438 0.43164 0.50976l-0.48438 2.7422-0.57226 3.2539-0.50781 2.8906c-0.03626 0.20724-0.21922 0.35937-0.43164 0.35937h-2.5195c-0.2107 0-0.39342 0.15239-0.42968 0.36133l-0.44532 2.5293c-0.03972 0.20896-0.21728 0.35937-0.42968 0.35937h-2.3691c-0.27286 0-0.47828-0.24187-0.43164-0.50781l0.48437-2.7422 0.50977-2.8945c0.03627-0.20726 0.21728-0.35742 0.42968-0.35742h2.5195c0.2107 0 0.39343-0.15239 0.42969-0.36133l0.41992-2.3789c0.04836-0.26596-0.15509-0.51172-0.42968-0.51172h-3.8379c-0.27286 0-0.47826-0.24381-0.43164-0.50977l0.42382-2.3809c0.03454-0.20724 0.21727-0.36132 0.42969-0.36132h6.1777c-0.8255-0.1036-1.4629-0.80679-1.4629-1.6582 0-0.92394 0.74988-1.6719 1.6738-1.6719zm-14.518 3.332h5.6172c0.27286 0 0.48 0.2438 0.43164 0.50976l-0.42187 2.3789c-0.03626 0.2107-0.2153 0.36133-0.42774 0.36133h-5.6211c-0.27286 0-0.47781-0.24381-0.42773-0.50977l0.41992-2.3789c0.03626-0.20722 0.21729-0.36133 0.42968-0.36133zm-1.1465 6.5039h5.6172c0.27286 0 0.47805 0.24381 0.42969 0.50977l-0.41797 2.3809c-0.03626 0.20724-0.21727 0.35937-0.42969 0.35937h-2.5215c-0.21068 0-0.3932 0.15239-0.42774 0.36133l-0.44531 2.5274c-0.03798 0.20896-0.21922 0.36132-0.43164 0.36132h-2.3652l-0.00195 0.00196c-0.27288 0-0.47805-0.24383-0.42969-0.50977l0.48242-2.7402 0.51172-2.8945c0.03454-0.20722 0.21729-0.35743 0.42969-0.35743zm-7.6367 17.246c-0.03555 2e-5 -0.06986 6.7e-4 -0.10547 0.00586h-1.709c-1.1864 0-2.3103 0.52587-3.0703 1.4394l-42.975 51.619c-0.9913 1.1864-1.2053 2.8457-0.55078 4.2461l7.5801 16.221c0.65798 1.404 2.068 2.3047 3.6172 2.3047l44.393 0.08593c0.24004 0 0.48102 0.02486 0.70898 0.06446 1.8721 0.33676 3.2832 1.9684 3.2832 3.9355v17.658c0 1.7719 1.1567 3.2759 2.7559 3.8027 0.3903 0.126 0.80722 0.19531 1.2441 0.19531h17.4c0.4352 0 0.85384-0.06931 1.2441-0.19531 1.5992-0.52674 2.7559-2.0307 2.7559-3.8027v-55.25c0-1.0586-0.42433-2.0766-1.1738-2.8262-0.74952-0.75467-1.7656-1.1719-2.8242-1.1719h-17.4c-0.4663 0-0.9219 0.08021-1.3398 0.23047-1.5491 0.54918-2.6582 2.0268-2.6582 3.7676v4.2031c0 1.0638-0.42235 2.0826-1.1719 2.832-0.65454 0.65452-1.5219 1.0589-2.4356 1.1504h-0.00781c-0.1278 0.014-0.25546 0.01953-0.38672 0.01953l-10.162-0.02343h-1.0527l-4.3828-0.00977c-0.77198 0-1.4764-0.45095-1.8027-1.1504-0.33158-0.70288-0.2222-1.5293 0.27344-2.125l5.9102-7.0996 1.0547-1.2656 11.584-13.916h65.887c1.2987-0.66836 2.1816-2.0032 2.1816-3.5488v-17.395l0.00196-0.0039c0-2.207-1.8084-3.998-4.0449-3.998h-72.619-0.00196zm191.5 128.08-6.9512 1.2578-3.8066 5.8867 4.9082-0.88867 5.8496-6.2559zm30.121 1.5957-7.2344 1.3105-0.18946 10.623-8.1777-9.1094-6.1016 1.1055-0.41797 22.814 7.2344-1.3106 0.1875-10.623 8.1797 9.1094 6.1016-1.1055 0.41797-22.814zm-35.959 6.1816c-0.79616 0.018-1.6254 0.10259-2.4824 0.25781-8.0834 1.4633-12.891 7.9205-11.484 15.689 1.0476 5.7874 6.0907 9.0654 12.947 7.8242 8.0834-1.4633 12.893-7.9205 11.486-15.689-0.91669-5.064-4.8936-8.2072-10.467-8.082zm-17.34 3.4668-7.4219 1.3438-0.41797 22.816 7.4238-1.3438 0.41601-22.816zm16.293 2.8184c2.1854-0.018 3.7038 1.3626 4.1074 3.5918 0.65478 3.6172-0.89058 7.113-4.5391 7.7734-2.705 0.48968-4.6208-0.95045-5.082-3.498-0.65478-3.6172 0.88849-7.113 4.5371-7.7734 0.33812-0.0612 0.66436-0.09115 0.97656-0.09375zm-34.096 0.18555c-0.9768-0.0212-2.0011 0.06321-3.0547 0.25391-8.1464 1.4747-12.916 7.9577-11.516 15.695 1.0589 5.8498 6.2479 9.0354 13.072 7.8008h0.00196c4.0566-0.7347 7.128-2.4292 9.209-6.1836l-5.1289-3.3906c-1.1795 2.0976-2.7153 3.1224-4.4453 3.4356-2.7364 0.49536-4.8416-0.91106-5.3086-3.4902-0.71172-3.9316 1.2392-7.1434 4.7305-7.7754 2.013-0.3644 3.6315 0.31839 4.8711 1.7832l4.5898-5.1524c-1.5874-1.9053-4.0911-2.9132-7.0215-2.9766zm-24.863 4.7207-7.2969 1.3203-10.041 24.557 7.832-1.418 1.5059-4.2344 8.3984-1.5215 1.418 3.707 7.3906-1.3379-9.207-21.072zm-18.848 3.4121-6.3223 1.1445-7.0977 13.369-6.8984-10.836-6.0391 1.0938-0.41797 22.814 6.7617-1.2246 0.18945-10.266 4.832 7.3105 3.2695-0.5918 4.7402-9.1738-0.13477 10.387 6.7617-1.2246 0.35547-22.803zm15.152 4.6953 2.0879 5.4375-4.3086 0.7793 2.2207-6.2168zm-53.648 2.4004c-0.66288 0.03539-1.3606 0.1184-2.0879 0.25l-9.875 1.7891-0.41797 22.814 7.4238-1.3438 0.09765-5.7363 1.8242-0.33008 4.1172 4.9727 7.7051-1.3945-4.8418-5.75c3.4868-2.093 5.1415-5.5116 4.4297-9.4434-0.72242-3.9906-3.7348-6.0751-8.375-5.8281zm-26.219 4.291c-0.79616 0.018-1.6254 0.10259-2.4824 0.25781-8.0834 1.4633-12.891 7.9205-11.484 15.689 1.0476 5.7874 6.0907 9.0654 12.947 7.8242 8.0834-1.4633 12.893-7.9224 11.486-15.691-0.9167-5.064-4.8936-8.2053-10.467-8.0801zm25.209 1.8086c1.0643 0.0754 1.7865 0.63301 2 1.8125 0.33594 1.8558-0.6645 3.1415-2.709 3.5117l-3.0508 0.55274 0.10351-5.3477 2.4844-0.44922c0.42464-0.0768 0.81711-0.10528 1.1719-0.08008zm-41.162 1.4062-17.896 3.2402-0.41797 22.814 7.4219-1.3438 0.14062-7.3008 9.1523-1.6562 0.11914-5.8047-9.1836 1.6621 0.07031-3.9102 10.475-1.8965 0.11914-5.8047zm14.908 3.0684c2.1854-0.018 3.7038 1.3645 4.1074 3.5938 0.65478 3.6172-0.89059 7.1111-4.5391 7.7715-2.705 0.48968-4.6208-0.94854-5.082-3.4961-0.65477-3.6172 0.8885-7.113 4.5371-7.7734 0.33812-0.0612 0.66437-0.09311 0.97657-0.09571zm-40.881 1.6133c-1.4534-0.0658-3.0324 0.04958-4.668 0.3457-6.9512 1.2583-10.542 5.2881-9.6367 10.289 1.2356 6.8254 11.465 3.5767 11.887 5.9043 0.14234 0.78632-0.77283 1.471-2.6914 1.8184-2.4534 0.44412-5.0834 0.27006-7.793-0.70118l-1.8711 5.9922c2.3408 0.9081 6.002 1.2195 9.9336 0.50781 6.8568-1.2412 10.537-5.318 9.6484-10.225-1.2298-6.7938-11.456-3.3514-11.895-5.7734-0.13666-0.75488 0.80244-1.6716 2.9727-2.0645 2.1388-0.38717 4.3734-0.24098 6.334 0.54102l1.6953-5.8926c-1.1332-0.4283-2.4626-0.67639-3.916-0.74218zm-17.512 3.1914-7.2344 1.3086-0.1875 10.625-8.1777-9.1094-6.1016 1.1035-0.41797 22.816 7.2344-1.3105 0.1875-10.623 8.1777 9.1094 6.1035-1.1055 0.41602-22.814zm-33.191 6.0078-7.2969 1.3203-10.041 24.559 7.832-1.418 1.5059-4.2363 8.3984-1.5195 1.418 3.7031 7.3906-1.3379-9.207-21.07zm-26.668 4.9531v0.00195c-0.66288 0.0354-1.3585 0.1184-2.0859 0.25l-9.877 1.7891-0.41797 22.814 7.4238-1.3438 0.097656-5.7344 1.8242-0.33203 4.1172 4.9727 7.7051-1.3945-4.8418-5.75c3.4868-2.0928 5.1434-5.5116 4.4316-9.4434h-0.001953c-0.7224-3.9906-3.7348-6.0771-8.375-5.8301zm300.22 0.36523-262.14 49.375c66.561 39.255 159.41 17.965 206.23-30.504l55.908-18.871zm-314.76 2.1426-20.318 3.6777-0.12109 5.9668 6.4473-1.166-0.29688 16.848 7.4238-1.3438 0.29492-16.848 6.4492-1.168 0.12109-5.9668zm37.521 0.64844 2.0898 5.4356-4.3086 0.77929 2.2187-6.2148zm-23.98 2.9453c1.0643 0.0754 1.7845 0.633 1.998 1.8125h0.001953c0.33594 1.8557-0.66642 3.1415-2.7109 3.5117l-3.0508 0.55273 0.10352-5.3476 2.4844-0.44922c0.42464-0.0768 0.81907-0.10528 1.1738-0.08008z" fill="#e3ff00" stroke-width="2.705" style="-inkscape-stroke:none;paint-order:stroke fill markers"></path></svg>