<svg xmlns:inkscape="http://www.inkscape.org/namespaces/inkscape" xmlns:sodipodi="http://sodipodi.sourceforge.net/DTD/sodipodi-0.dtd" xmlns="http://www.w3.org/2000/svg" xmlns:svg="http://www.w3.org/2000/svg" xmlns:rdf="http://www.w3.org/1999/02/22-rdf-syntax-ns#" xmlns:cc="http://creativecommons.org/ns#" xmlns:dc="http://purl.org/dc/elements/1.1/" sodipodi:docname="reto-t45.svg" inkscape:version="1.3.2 (091e20ef0f, 2023-11-25, custom)" id="svg2" height="400" width="400" viewBox="0 0 400 400"><defs id="defs4"></defs><metadata></metadata><path id="path1-3" style="fill:#e3ff00;fill-opacity:1;stroke-width:2.70496;-inkscape-stroke:none;paint-order:stroke fill markers" d="M 197.75587 21.031684 A 181.46651 181.46651 0 0 0 16.289375 202.49818 A 181.46651 181.46651 0 0 0 197.75587 383.96468 A 181.46651 181.46651 0 0 0 379.22237 202.49818 A 181.46651 181.46651 0 0 0 197.75587 21.031684 z M 197.75587 78.000469 A 124.49808 124.49808 0 0 1 322.25359 202.49818 A 124.49808 124.49808 0 0 1 197.75587 326.9959 A 124.49808 124.49808 0 0 1 73.25816 202.49818 A 124.49808 124.49808 0 0 1 197.75587 78.000469 z " transform="matrix(1.1021318,0,0,1.1021318,-17.953038,-23.179688)"></path><path id="path2-2-6" style="fill:#e3ff00;stroke-width:0px" class="cls-1" d="m 395.50196,0.00261223 c -47.77996,0 -86.51948,38.73952077 -86.51948,86.51947277 0,47.759955 38.73952,86.498275 86.51948,86.498275 47.77995,0 86.49827,-38.73832 86.49827,-86.498275 0,-47.759952 -38.71832,-86.51947277 -86.49827,-86.51947277 z M 439.58862,29.55981 c 5.34999,0 9.68984,4.349847 9.68984,9.689842 0,4.929995 -3.69067,8.999729 -8.47066,9.599728 h 3.72115 c 1.57,0 2.77137,1.412541 2.49137,2.952539 l -2.79881,15.870562 -3.313,18.849604 -2.94724,16.729285 c -0.21,1.2 -1.26137,2.08852 -2.49137,2.08852 h -14.58777 c -1.22,0 -2.28137,0.87851 -2.49137,2.08851 l -2.58148,14.64077 c -0.23,1.21 -1.26137,2.08852 -2.49137,2.08852 h -13.70784 c -1.58,0 -2.77197,-1.40724 -2.50197,-2.94724 l 2.80411,-15.87056 2.94724,-16.761099 c 0.21,-1.199998 1.26137,-2.067307 2.49137,-2.067307 h 14.58777 c 1.22,0 2.28137,-0.883813 2.49137,-2.093812 l 2.42776,-13.77675 c 0.28,-1.539998 -0.89607,-2.968441 -2.48607,-2.968441 h -22.2209 c -1.58,0 -2.77197,-1.412541 -2.50197,-2.95254 l 2.44896,-13.78205 c 0.2,-1.199999 1.26137,-2.088511 2.49137,-2.088511 h 35.76972 c -4.77999,-0.599999 -8.47066,-4.669733 -8.47066,-9.599728 0,-5.349995 4.35045,-9.689842 9.70045,-9.689842 z m -84.07051,19.300172 h 32.53094 c 1.58,0 2.77137,1.412541 2.49137,2.952539 l -2.43306,13.77675 c -0.21,1.219999 -1.25608,2.088511 -2.48607,2.088511 h -32.53094 -0.0106 c -1.57999,0 -2.77076,-1.40724 -2.48076,-2.947239 l 2.43306,-13.782051 c 0.21,-1.199998 1.25607,-2.08851 2.48607,-2.08851 z m -6.63659,37.662103 h 32.53094 c 1.58,0 2.76607,1.40724 2.48607,2.947239 l -2.41716,13.782046 c -0.21,1.2 -1.26137,2.08852 -2.49137,2.08852 h -14.59837 c -1.22,0 -2.28077,0.87851 -2.48077,2.08851 l -2.58149,14.64077 c -0.22,1.21 -1.26137,2.08852 -2.49137,2.08852 h -13.69723 l -0.0106,0.0106 c -1.57999,0 -2.77137,-1.40724 -2.49137,-2.94724 l 2.79352,-15.87056 2.95784,-16.761097 c 0.2,-1.199999 1.26137,-2.067308 2.49137,-2.067308 z m -44.20328,99.856255 c -0.21,0 -0.42079,0.002 -0.63079,0.0318 h -9.88597 c -6.87,0 -13.38945,3.04814 -17.78945,8.33814 L 27.542408,493.64916 c -5.739994,6.86999 -6.981071,16.46977 -3.191075,24.57976 l 43.890531,93.92997 c 3.809996,8.13 11.968124,13.34209 20.938115,13.34209 l 257.061751,0.49827 c 1.39,0 2.77751,0.14106 4.09751,0.37106 10.83999,1.95 19.01923,11.3981 19.01923,22.78809 v 102.25221 c 0,10.25999 6.69008,18.96948 15.95007,22.01948 2.26,0.73 4.67907,1.12907 7.20907,1.12907 H 493.2697 c 2.52,0 4.94908,-0.39907 7.20908,-1.12907 9.25999,-3.05 15.95007,-11.75949 15.95007,-22.01948 v -319.9185 c 0,-6.12999 -2.45032,-12.02354 -6.79031,-16.36353 -4.34,-4.37 -10.22824,-6.79031 -16.35824,-6.79031 H 392.52821 c -2.69999,0 -5.34035,0.4711 -7.76035,1.3411 -8.96999,3.17999 -15.38819,11.73275 -15.38819,21.81274 v 24.33592 c 0,6.16 -2.45032,12.06065 -6.79031,16.40064 -3.79,3.79 -8.8101,6.1331 -14.1001,6.6631 h -0.0477 c -0.73999,0.08 -1.48223,0.10071 -2.24223,0.10071 l -58.83875,-0.13252 h -6.10121 l -25.36958,-0.0477 c -4.46999,0 -8.54725,-2.61309 -10.43725,-6.66309 -1.92,-4.06999 -1.29036,-8.85843 1.57964,-12.30843 l 34.22719,-41.10231 6.10121,-7.3363 67.07088,-80.57198 h 381.51896 c 7.51999,-3.87 12.63178,-11.60117 12.63178,-20.55116 v -100.7203 l 0.005,-0.0265 c 0,-12.77999 -10.4689,-23.15385 -23.41888,-23.15385 z m 257.05115,163.59294 c -12.77999,0 -23.14855,10.35856 -23.14855,23.14855 v 321.2914 c 0,12.78999 10.36856,23.14855 23.14855,23.14855 h 310.97077 c 8.58999,0.64 16.84946,3.62029 23.86945,8.64028 6.00999,5.86 6.92283,19.3008 6.92283,26.80079 0,36.34996 -26.04491,37.64737 -38.94489,38.10737 H 561.76119 c -12.78998,0 -23.15914,10.36916 -23.15914,23.15915 v 100.73088 c 0,12.78999 10.36916,23.15915 23.15914,23.15915 h 303.59738 c 30.79997,-0.69 61.07342,-8.09674 88.70339,-21.70673 62.20994,-31.10997 96.46904,-89.1605 96.46904,-163.46042 0,-67.81993 -27.9228,-109.27038 -51.33282,-132.09035 C 949.58823,572.52994 883.97911,570.5077 870.47913,570.5477 H 708.78917 c -12.78999,0 -23.14854,-10.35855 -23.14854,-23.14854 v -27.20895 c -0.01,-6.13999 2.41851,-12.02944 6.7585,-16.37944 h 0.0106 c 4.34,-4.34999 10.22884,-6.80091 16.36884,-6.80091 h 268.49025 c 12.78998,0 23.14858,-10.36916 23.14858,-23.15914 V 373.11983 c 0,-12.77999 -10.3586,-23.14855 -23.14858,-23.14855 z" transform="matrix(0.16414404,0,0,0.16414404,111.96079,95.831835)"></path><path d="m 136.80845,316.43484 h 3.696 v -10.13601 h 3.99468 v -2.93068 h -11.70402 v 2.93068 h 4.01334 z m 17.6547,0 h 3.95734 l -2.81867,-4.10667 c 1.624,-0.784 2.55734,-2.20267 2.55734,-4.12534 0,-2.98667 -2.24001,-4.83468 -5.80535,-4.83468 h -5.97334 v 13.06669 h 3.69601 v -3.472 h 2.016 z m -0.0373,-8.23201 c 0,1.19467 -0.76534,1.904 -2.29601,1.904 h -2.05333 v -3.82667 h 2.05333 c 1.53067,0 2.29601,0.70933 2.29601,1.92267 z m 16.04935,8.23201 h 3.84534 l -5.78667,-13.06669 h -3.64001 l -5.76801,13.06669 h 3.77067 l 1.02667,-2.53867 h 5.52535 z m -5.46934,-5.264 1.68,-4.18135 1.68001,4.18135 z m 19.67069,-7.80269 v 6.96268 l -5.76801,-6.96268 h -3.04267 v 13.06669 h 3.62134 v -6.96267 l 5.76801,6.96267 h 3.04267 v -13.06669 z m 11.32668,13.32803 c 3.88267,0 5.78668,-1.94134 5.78668,-4.21868 0,-4.816 -7.41068,-3.32267 -7.41068,-5.32001 0,-0.65333 0.56,-1.176 2.10933,-1.176 1.13867,0 2.37068,0.336 3.62134,1.008 l 1.13867,-2.744 c -1.288,-0.74667 -3.04267,-1.13867 -4.74134,-1.13867 -3.88267,0 -5.78668,1.904 -5.78668,4.23734 0,4.85334 7.42935,3.34134 7.42935,5.41334 0,0.63467 -0.59733,1.06401 -2.128,1.06401 -1.51201,0 -3.15467,-0.52267 -4.31201,-1.28801 l -1.21334,2.72534 c 1.23201,0.85867 3.36001,1.43734 5.50668,1.43734 z m 18.23335,-10.47202 v -2.85601 h -10.24801 v 13.06669 h 3.696 v -4.48 h 5.76801 v -2.85601 h -5.76801 v -2.87467 z m 8.71335,10.47202 c 4.18134,0 7.26134,-2.87467 7.26134,-6.79468 0,-3.92001 -3.08,-6.79468 -7.26134,-6.79468 -4.18134,0 -7.26135,2.87467 -7.26135,6.79468 0,3.92001 3.08001,6.79468 7.26135,6.79468 z m 0,-3.06134 c -1.97867,0 -3.52801,-1.47467 -3.52801,-3.73334 0,-2.25867 1.54934,-3.73334 3.52801,-3.73334 1.97867,0 3.528,1.47467 3.528,3.73334 0,2.25867 -1.54933,3.73334 -3.528,3.73334 z m 17.78537,2.8 h 3.95734 l -2.81867,-4.10667 c 1.624,-0.784 2.55734,-2.20267 2.55734,-4.12534 0,-2.98667 -2.24001,-4.83468 -5.80535,-4.83468 h -5.97334 v 13.06669 h 3.69601 v -3.472 h 2.016 z m -0.0373,-8.23201 c 0,1.19467 -0.76534,1.904 -2.29601,1.904 h -2.05333 v -3.82667 h 2.05333 c 1.53067,0 2.29601,0.70933 2.29601,1.92267 z m 21.4627,8.23201 -0.0373,-13.06669 h -3.04268 l -4.48,7.54135 -4.59201,-7.54135 h -3.04268 v 13.06669 h 3.41601 v -6.73867 l 3.34134,5.45067 h 1.64267 l 3.36001,-5.63734 0.0373,6.92534 z m 12.89469,0 h 3.84534 L 273.114,303.36815 h -3.64001 l -5.76801,13.06669 h 3.77067 l 1.02667,-2.53867 h 5.52534 z m -5.46934,-5.264 1.68,-4.18135 1.68001,4.18135 z m 17.18802,5.52534 c 2.40801,0 4.34934,-0.87734 5.61868,-2.46401 l -2.35201,-2.128 c -0.82133,0.98934 -1.82933,1.53067 -3.08,1.53067 -2.14667,0 -3.64001,-1.49334 -3.64001,-3.73334 0,-2.24 1.49334,-3.73334 3.64001,-3.73334 1.25067,0 2.25867,0.54133 3.08,1.53067 l 2.35201,-2.128 c -1.26934,-1.58667 -3.21067,-2.46401 -5.61868,-2.46401 -4.14401,0 -7.18668,2.81867 -7.18668,6.79468 0,3.97601 3.04267,6.79468 7.18668,6.79468 z m 7.76135,-0.26134 h 3.69601 v -13.06669 h -3.69601 z m 11.58805,-14.13069 h 2.53867 l 3.50934,-2.83734 h -3.54668 z m 1.82933,14.39203 c 4.18134,0 7.26135,-2.87467 7.26135,-6.79468 0,-3.92001 -3.08001,-6.79468 -7.26135,-6.79468 -4.18134,0 -7.26134,2.87467 -7.26134,6.79468 0,3.92001 3.08,6.79468 7.26134,6.79468 z m 0,-3.06134 c -1.97867,0 -3.528,-1.47467 -3.528,-3.73334 0,-2.25867 1.54933,-3.73334 3.528,-3.73334 1.97867,0 3.52801,1.47467 3.52801,3.73334 0,2.25867 -1.54934,3.73334 -3.52801,3.73334 z m 18.51338,-10.26669 v 6.96268 l -5.76801,-6.96268 h -3.04267 v 13.06669 h 3.62134 v -6.96267 l 5.76801,6.96267 h 3.04267 v -13.06669 z" id="text1" style="font-weight:800;font-size:18.6667px;line-height:1;font-family:Montserrat;-inkscape-font-specification:'Montserrat Ultra-Bold';text-align:center;letter-spacing:0.5px;text-anchor:middle;fill:#e3ff00" transform="translate(-31.52933,-35.791103)" aria-label="TRANSFORMACI&#xD3;N"></path></svg>