<svg xmlns:inkscape="http://www.inkscape.org/namespaces/inkscape" xmlns:sodipodi="http://sodipodi.sourceforge.net/DTD/sodipodi-0.dtd" xmlns="http://www.w3.org/2000/svg" xmlns:svg="http://www.w3.org/2000/svg" xmlns:rdf="http://www.w3.org/1999/02/22-rdf-syntax-ns#" xmlns:cc="http://creativecommons.org/ns#" xmlns:dc="http://purl.org/dc/elements/1.1/" sodipodi:docname="reto-t45n.svg" inkscape:version="1.3.2 (091e20ef0f, 2023-11-25, custom)" id="svg2" height="400" width="400" viewBox="0 0 400 400"><defs id="defs4"></defs><metadata></metadata><path class="cls-1" d="m 308.98,86.52 c 0,47.76 38.74,86.5 86.52,86.5 47.78,0 86.5,-38.74 86.5,-86.5 C 482,38.76 443.28,0 395.5,0 347.72,0 308.98,38.74 308.98,86.52 m 44.1,-18.84 c -1.58,0 -2.77,-1.41 -2.48,-2.95 l 2.43,-13.78 c 0.21,-1.2 1.26,-2.09 2.49,-2.09 h 32.53 c 1.58,0 2.77,1.41 2.49,2.95 l -2.43,13.78 c -0.21,1.22 -1.26,2.09 -2.49,2.09 h -32.53 z m -9.95,56.49 c -1.58,0 -2.77,-1.41 -2.49,-2.95 l 2.79,-15.87 2.96,-16.76 c 0.2,-1.2 1.26,-2.07 2.49,-2.07 h 32.53 c 1.58,0 2.77,1.41 2.49,2.95 l -2.42,13.78 c -0.21,1.2 -1.26,2.09 -2.49,2.09 h -14.6 c -1.22,0 -2.28,0.88 -2.48,2.09 l -2.58,14.64 c -0.22,1.21 -1.26,2.09 -2.49,2.09 h -13.7 z M 449.28,39.25 c 0,4.93 -3.69,9 -8.47,9.6 h 3.72 c 1.57,0 2.77,1.41 2.49,2.95 l -2.8,15.87 -3.31,18.85 -2.95,16.73 c -0.21,1.2 -1.26,2.09 -2.49,2.09 h -14.59 c -1.22,0 -2.28,0.88 -2.49,2.09 l -2.58,14.64 c -0.23,1.21 -1.26,2.09 -2.49,2.09 h -13.71 c -1.58,0 -2.77,-1.41 -2.5,-2.95 l 2.8,-15.87 2.95,-16.76 c 0.21,-1.2 1.26,-2.07 2.49,-2.07 h 14.59 c 1.22,0 2.28,-0.88 2.49,-2.09 l 2.43,-13.78 c 0.28,-1.54 -0.9,-2.97 -2.49,-2.97 h -22.22 c -1.58,0 -2.77,-1.41 -2.5,-2.95 l 2.45,-13.78 c 0.2,-1.2 1.26,-2.09 2.49,-2.09 h 35.77 c -4.78,-0.6 -8.47,-4.67 -8.47,-9.6 0,-5.35 4.35,-9.69 9.7,-9.69 5.35,0 9.69,4.35 9.69,9.69" id="path2-2" style="fill:#e3ff00;stroke-width:0px" transform="matrix(0.36845932,0,0,0.36845932,2.3751806,27.1631)"></path><path class="cls-1" d="m 748.58,209.56 v 100.72 c 0,8.95 -5.11,16.68 -12.63,20.55 H 354.43 l -67.07,80.57 -6.1,7.34 -34.23,41.1 c -2.87,3.45 -3.5,8.24 -1.58,12.31 1.89,4.05 5.97,6.66 10.44,6.66 l 25.37,0.05 h 6.1 l 58.84,0.13 c 0.76,0 1.5,-0.02 2.24,-0.1 h 0.05 c 5.29,-0.53 10.31,-2.87 14.1,-6.66 4.34,-4.34 6.79,-10.24 6.79,-16.4 v -24.34 c 0,-10.08 6.42,-18.63 15.39,-21.81 2.42,-0.87 5.06,-1.34 7.76,-1.34 h 100.75 c 6.13,0 12.02,2.42 16.36,6.79 4.34,4.34 6.79,10.23 6.79,16.36 v 319.92 c 0,10.26 -6.69,18.97 -15.95,22.02 -2.26,0.73 -4.69,1.13 -7.21,1.13 H 392.52 c -2.53,0 -4.95,-0.4 -7.21,-1.13 -9.26,-3.05 -15.95,-11.76 -15.95,-22.02 V 649.16 c 0,-11.39 -8.18,-20.84 -19.02,-22.79 -1.32,-0.23 -2.71,-0.37 -4.1,-0.37 L 89.18,625.5 c -8.97,0 -17.13,-5.21 -20.94,-13.34 L 24.35,518.23 c -3.79,-8.11 -2.55,-17.71 3.19,-24.58 l 248.83,-298.9 c 4.4,-5.29 10.92,-8.34 17.79,-8.34 h 9.89 c 0.21,-0.03 0.42,-0.03 0.63,-0.03 h 420.49 c 12.95,0 23.42,10.37 23.42,23.15" id="path3-8" style="fill:#e3ff00;stroke-width:0px" transform="matrix(0.36845932,0,0,0.36845932,2.3751806,27.1631)"></path><path class="cls-1" d="m 692.4,503.81 c -4.34,4.35 -6.77,10.24 -6.76,16.38 v 27.21 c 0,12.79 10.36,23.15 23.15,23.15 h 161.69 c 13.5,-0.04 79.11,1.98 128.72,50.35 23.41,22.82 51.33,64.27 51.33,132.09 0,74.3 -34.26,132.35 -96.47,163.46 -27.63,13.61 -57.9,21.02 -88.7,21.71 H 561.76 C 548.97,938.16 538.6,927.79 538.6,915 V 814.27 c 0,-12.79 10.37,-23.16 23.16,-23.16 h 302.79 c 12.9,-0.46 38.94,-1.76 38.94,-38.11 0,-7.5 -0.91,-20.94 -6.92,-26.8 -7.02,-5.02 -15.28,-8 -23.87,-8.64 H 561.73 c -12.78,0 -23.15,-10.36 -23.15,-23.15 V 373.12 c 0,-12.79 10.37,-23.15 23.15,-23.15 h 415.54 c 12.79,0 23.15,10.37 23.15,23.15 v 100.73 c 0,12.79 -10.36,23.16 -23.15,23.16 H 708.78 c -6.14,0 -12.03,2.45 -16.37,6.8" id="path4-9" style="fill:#e3ff00;stroke-width:0px" transform="matrix(0.36845932,0,0,0.36845932,2.3751806,27.1631)"></path></svg>