<svg xmlns:inkscape="http://www.inkscape.org/namespaces/inkscape" xmlns:sodipodi="http://sodipodi.sourceforge.net/DTD/sodipodi-0.dtd" xmlns="http://www.w3.org/2000/svg" xmlns:svg="http://www.w3.org/2000/svg" xmlns:rdf="http://www.w3.org/1999/02/22-rdf-syntax-ns#" xmlns:cc="http://creativecommons.org/ns#" xmlns:dc="http://purl.org/dc/elements/1.1/" sodipodi:docname="reto-t45nb.svg" inkscape:version="1.3.2 (091e20ef0f, 2023-11-25, custom)" id="svg2" height="400" width="400" viewBox="0 0 400 400"><defs id="defs4"></defs><metadata></metadata><circle style="fill:#e3ff00;fill-opacity:1;stroke-width:2.70496;-inkscape-stroke:none;paint-order:stroke fill markers" id="path1-3" cx="197.75587" cy="202.49818" r="181.46651" transform="matrix(1.1021318,0,0,1.1021318,-17.953038,-23.179688)"></circle><circle style="fill:#000000;stroke-width:2.70496;-inkscape-stroke:none;paint-order:stroke fill markers" id="circle1" cx="197.75587" cy="202.49818" r="181.46651" transform="matrix(0.75613562,0,0,0.75613562,50.469739,46.88391)"></circle><path id="path2-2-6" style="fill:#e3ff00;stroke-width:0px" class="cls-1" d="m 395.50196,0.00261223 c -47.77996,0 -86.51948,38.73952077 -86.51948,86.51947277 0,47.759955 38.73952,86.498275 86.51948,86.498275 47.77995,0 86.49827,-38.73832 86.49827,-86.498275 0,-47.759952 -38.71832,-86.51947277 -86.49827,-86.51947277 z M 439.58862,29.55981 c 5.34999,0 9.68984,4.349847 9.68984,9.689842 0,4.929995 -3.69067,8.999729 -8.47066,9.599728 h 3.72115 c 1.57,0 2.77137,1.412541 2.49137,2.952539 l -2.79881,15.870562 -3.313,18.849604 -2.94724,16.729285 c -0.21,1.2 -1.26137,2.08852 -2.49137,2.08852 h -14.58777 c -1.22,0 -2.28137,0.87851 -2.49137,2.08851 l -2.58148,14.64077 c -0.23,1.21 -1.26137,2.08852 -2.49137,2.08852 h -13.70784 c -1.58,0 -2.77197,-1.40724 -2.50197,-2.94724 l 2.80411,-15.87056 2.94724,-16.761099 c 0.21,-1.199998 1.26137,-2.067307 2.49137,-2.067307 h 14.58777 c 1.22,0 2.28137,-0.883813 2.49137,-2.093812 l 2.42776,-13.77675 c 0.28,-1.539998 -0.89607,-2.968441 -2.48607,-2.968441 h -22.2209 c -1.58,0 -2.77197,-1.412541 -2.50197,-2.95254 l 2.44896,-13.78205 c 0.2,-1.199999 1.26137,-2.088511 2.49137,-2.088511 h 35.76972 c -4.77999,-0.599999 -8.47066,-4.669733 -8.47066,-9.599728 0,-5.349995 4.35045,-9.689842 9.70045,-9.689842 z m -84.07051,19.300172 h 32.53094 c 1.58,0 2.77137,1.412541 2.49137,2.952539 l -2.43306,13.77675 c -0.21,1.219999 -1.25608,2.088511 -2.48607,2.088511 h -32.53094 -0.0106 c -1.57999,0 -2.77076,-1.40724 -2.48076,-2.947239 l 2.43306,-13.782051 c 0.21,-1.199998 1.25607,-2.08851 2.48607,-2.08851 z m -6.63659,37.662103 h 32.53094 c 1.58,0 2.76607,1.40724 2.48607,2.947239 l -2.41716,13.782046 c -0.21,1.2 -1.26137,2.08852 -2.49137,2.08852 h -14.59837 c -1.22,0 -2.28077,0.87851 -2.48077,2.08851 l -2.58149,14.64077 c -0.22,1.21 -1.26137,2.08852 -2.49137,2.08852 h -13.69723 l -0.0106,0.0106 c -1.57999,0 -2.77137,-1.40724 -2.49137,-2.94724 l 2.79352,-15.87056 2.95784,-16.761097 c 0.2,-1.199999 1.26137,-2.067308 2.49137,-2.067308 z m -44.20328,99.856255 c -0.21,0 -0.42079,0.002 -0.63079,0.0318 h -9.88597 c -6.87,0 -13.38945,3.04814 -17.78945,8.33814 L 27.542408,493.64916 c -5.739994,6.86999 -6.981071,16.46977 -3.191075,24.57976 l 43.890531,93.92997 c 3.809996,8.13 11.968124,13.34209 20.938115,13.34209 l 257.061751,0.49827 c 1.39,0 2.77751,0.14106 4.09751,0.37106 10.83999,1.95 19.01923,11.3981 19.01923,22.78809 v 102.25221 c 0,10.25999 6.69008,18.96948 15.95007,22.01948 2.26,0.73 4.67907,1.12907 7.20907,1.12907 H 493.2697 c 2.52,0 4.94908,-0.39907 7.20908,-1.12907 9.25999,-3.05 15.95007,-11.75949 15.95007,-22.01948 v -319.9185 c 0,-6.12999 -2.45032,-12.02354 -6.79031,-16.36353 -4.34,-4.37 -10.22824,-6.79031 -16.35824,-6.79031 H 392.52821 c -2.69999,0 -5.34035,0.4711 -7.76035,1.3411 -8.96999,3.17999 -15.38819,11.73275 -15.38819,21.81274 v 24.33592 c 0,6.16 -2.45032,12.06065 -6.79031,16.40064 -3.79,3.79 -8.8101,6.1331 -14.1001,6.6631 h -0.0477 c -0.73999,0.08 -1.48223,0.10071 -2.24223,0.10071 l -58.83875,-0.13252 h -6.10121 l -25.36958,-0.0477 c -4.46999,0 -8.54725,-2.61309 -10.43725,-6.66309 -1.92,-4.06999 -1.29036,-8.85843 1.57964,-12.30843 l 34.22719,-41.10231 6.10121,-7.3363 67.07088,-80.57198 h 381.51896 c 7.51999,-3.87 12.63178,-11.60117 12.63178,-20.55116 v -100.7203 l 0.005,-0.0265 c 0,-12.77999 -10.4689,-23.15385 -23.41888,-23.15385 z m 257.05115,163.59294 c -12.77999,0 -23.14855,10.35856 -23.14855,23.14855 v 321.2914 c 0,12.78999 10.36856,23.14855 23.14855,23.14855 h 310.97077 c 8.58999,0.64 16.84946,3.62029 23.86945,8.64028 6.00999,5.86 6.92283,19.3008 6.92283,26.80079 0,36.34996 -26.04491,37.64737 -38.94489,38.10737 H 561.76119 c -12.78998,0 -23.15914,10.36916 -23.15914,23.15915 v 100.73088 c 0,12.78999 10.36916,23.15915 23.15914,23.15915 h 303.59738 c 30.79997,-0.69 61.07342,-8.09674 88.70339,-21.70673 62.20994,-31.10997 96.46904,-89.1605 96.46904,-163.46042 0,-67.81993 -27.9228,-109.27038 -51.33282,-132.09035 C 949.58823,572.52994 883.97911,570.5077 870.47913,570.5477 H 708.78917 c -12.78999,0 -23.14854,-10.35855 -23.14854,-23.14854 v -27.20895 c -0.01,-6.13999 2.41851,-12.02944 6.7585,-16.37944 h 0.0106 c 4.34,-4.34999 10.22884,-6.80091 16.36884,-6.80091 h 268.49025 c 12.78998,0 23.14858,-10.36916 23.14858,-23.15914 V 373.11983 c 0,-12.77999 -10.3586,-23.14855 -23.14858,-23.14855 z" transform="matrix(0.2158948,0,0,0.2158948,73.704305,85.617552)"></path></svg>