<svg xmlns:inkscape="http://www.inkscape.org/namespaces/inkscape" xmlns:sodipodi="http://sodipodi.sourceforge.net/DTD/sodipodi-0.dtd" xmlns="http://www.w3.org/2000/svg" xmlns:svg="http://www.w3.org/2000/svg" xmlns:rdf="http://www.w3.org/1999/02/22-rdf-syntax-ns#" xmlns:cc="http://creativecommons.org/ns#" xmlns:dc="http://purl.org/dc/elements/1.1/" sodipodi:docname="reto-t45-alt-b.svg" inkscape:version="1.3.2 (091e20ef0f, 2023-11-25, custom)" id="svg2" height="400" width="400" viewBox="0 0 400 400"><defs id="defs4"></defs><metadata></metadata><path style="fill:#e3ff00;fill-opacity:1;stroke-width:2.70496;-inkscape-stroke:none;paint-order:stroke fill markers" d="M 92.560921,277.14985 -21.019198,298.68435 88.737744,270.89088 Z" id="path5" sodipodi:nodetypes="cccc" transform="matrix(2,0,0,2,191.12667,-330.96523)"></path><path style="fill:#e3ff00;fill-opacity:1;stroke-width:2.70496;-inkscape-stroke:none;paint-order:stroke fill markers" d="M 106.48201,273.73739 3.8242536,292.80645 86.534249,264.8864 Z" id="path4" sodipodi:nodetypes="cccc" transform="rotate(180,192.19026,300.99849)"></path><path id="circle13" style="fill:#e3ff00;fill-opacity:1;stroke-width:2.70496;-inkscape-stroke:none;paint-order:stroke fill markers" d="M 197.75579,21.031653 A 181.46651,181.46651 0 0 0 16.289251,202.4982 181.46651,181.46651 0 0 0 39.436639,290.24088 L 99.77219,278.79225 A 124.49808,124.49808 0 0 1 73.257917,202.4982 124.49808,124.49808 0 0 1 197.75579,77.999884 124.49808,124.49808 0 0 1 322.2541,202.4982 a 124.49808,124.49808 0 0 1 -5.51,35.12408 l 60.89098,-11.55372 A 181.46651,181.46651 0 0 0 379.22234,202.4982 181.46651,181.46651 0 0 0 197.75579,21.031653 Z M 334.41667,321.8096 114.86824,363.46856 a 181.46651,181.46651 0 0 0 82.88755,20.49618 181.46651,181.46651 0 0 0 136.66088,-62.15514 z" transform="matrix(0.98263592,0,0,0.98263592,5.5462094,1.4045671)"></path><path id="path14" style="fill:#e3ff00;stroke-width:0px" class="cls-1" d="m 395.50196,0.00261223 c -47.77996,0 -86.51948,38.73952077 -86.51948,86.51947277 0,47.759955 38.73952,86.498275 86.51948,86.498275 47.77995,0 86.49827,-38.73832 86.49827,-86.498275 0,-47.759952 -38.71832,-86.51947277 -86.49827,-86.51947277 z M 439.58862,29.55981 c 5.34999,0 9.68984,4.349847 9.68984,9.689842 0,4.929995 -3.69067,8.999729 -8.47066,9.599728 h 3.72115 c 1.57,0 2.77137,1.412541 2.49137,2.952539 l -2.79881,15.870562 -3.313,18.849604 -2.94724,16.729285 c -0.21,1.2 -1.26137,2.08852 -2.49137,2.08852 h -14.58777 c -1.22,0 -2.28137,0.87851 -2.49137,2.08851 l -2.58148,14.64077 c -0.23,1.21 -1.26137,2.08852 -2.49137,2.08852 h -13.70784 c -1.58,0 -2.77197,-1.40724 -2.50197,-2.94724 l 2.80411,-15.87056 2.94724,-16.761099 c 0.21,-1.199998 1.26137,-2.067307 2.49137,-2.067307 h 14.58777 c 1.22,0 2.28137,-0.883813 2.49137,-2.093812 l 2.42776,-13.77675 c 0.28,-1.539998 -0.89607,-2.968441 -2.48607,-2.968441 h -22.2209 c -1.58,0 -2.77197,-1.412541 -2.50197,-2.95254 l 2.44896,-13.78205 c 0.2,-1.199999 1.26137,-2.088511 2.49137,-2.088511 h 35.76972 c -4.77999,-0.599999 -8.47066,-4.669733 -8.47066,-9.599728 0,-5.349995 4.35045,-9.689842 9.70045,-9.689842 z m -84.07051,19.300172 h 32.53094 c 1.58,0 2.77137,1.412541 2.49137,2.952539 l -2.43306,13.77675 c -0.21,1.219999 -1.25608,2.088511 -2.48607,2.088511 h -32.53094 -0.0106 c -1.57999,0 -2.77076,-1.40724 -2.48076,-2.947239 l 2.43306,-13.782051 c 0.21,-1.199998 1.25607,-2.08851 2.48607,-2.08851 z m -6.63659,37.662103 h 32.53094 c 1.58,0 2.76607,1.40724 2.48607,2.947239 l -2.41716,13.782046 c -0.21,1.2 -1.26137,2.08852 -2.49137,2.08852 h -14.59837 c -1.22,0 -2.28077,0.87851 -2.48077,2.08851 l -2.58149,14.64077 c -0.22,1.21 -1.26137,2.08852 -2.49137,2.08852 h -13.69723 l -0.0106,0.0106 c -1.57999,0 -2.77137,-1.40724 -2.49137,-2.94724 l 2.79352,-15.87056 2.95784,-16.761097 c 0.2,-1.199999 1.26137,-2.067308 2.49137,-2.067308 z m -44.20328,99.856255 c -0.21,0 -0.42079,0.002 -0.63079,0.0318 h -9.88597 c -6.87,0 -13.38945,3.04814 -17.78945,8.33814 L 27.542408,493.64916 c -5.739994,6.86999 -6.981071,16.46977 -3.191075,24.57976 l 43.890531,93.92997 c 3.809996,8.13 11.968124,13.34209 20.938115,13.34209 l 257.061751,0.49827 c 1.39,0 2.77751,0.14106 4.09751,0.37106 10.83999,1.95 19.01923,11.3981 19.01923,22.78809 v 102.25221 c 0,10.25999 6.69008,18.96948 15.95007,22.01948 2.26,0.73 4.67907,1.12907 7.20907,1.12907 H 493.2697 c 2.52,0 4.94908,-0.39907 7.20908,-1.12907 9.25999,-3.05 15.95007,-11.75949 15.95007,-22.01948 v -319.9185 c 0,-6.12999 -2.45032,-12.02354 -6.79031,-16.36353 -4.34,-4.37 -10.22824,-6.79031 -16.35824,-6.79031 H 392.52821 c -2.69999,0 -5.34035,0.4711 -7.76035,1.3411 -8.96999,3.17999 -15.38819,11.73275 -15.38819,21.81274 v 24.33592 c 0,6.16 -2.45032,12.06065 -6.79031,16.40064 -3.79,3.79 -8.8101,6.1331 -14.1001,6.6631 h -0.0477 c -0.73999,0.08 -1.48223,0.10071 -2.24223,0.10071 l -58.83875,-0.13252 h -6.10121 l -25.36958,-0.0477 c -4.46999,0 -8.54725,-2.61309 -10.43725,-6.66309 -1.92,-4.06999 -1.29036,-8.85843 1.57964,-12.30843 l 34.22719,-41.10231 6.10121,-7.3363 67.07088,-80.57198 h 381.51896 c 7.51999,-3.87 12.63178,-11.60117 12.63178,-20.55116 v -100.7203 l 0.005,-0.0265 c 0,-12.77999 -10.4689,-23.15385 -23.41888,-23.15385 z m 257.05115,163.59294 c -12.77999,0 -23.14855,10.35856 -23.14855,23.14855 v 321.2914 c 0,12.78999 10.36856,23.14855 23.14855,23.14855 h 310.97077 c 8.58999,0.64 16.84946,3.62029 23.86945,8.64028 6.00999,5.86 6.92283,19.3008 6.92283,26.80079 0,36.34996 -26.04491,37.64737 -38.94489,38.10737 H 561.76119 c -12.78998,0 -23.15914,10.36916 -23.15914,23.15915 v 100.73088 c 0,12.78999 10.36916,23.15915 23.15914,23.15915 h 303.59738 c 30.79997,-0.69 61.07342,-8.09674 88.70339,-21.70673 62.20994,-31.10997 96.46904,-89.1605 96.46904,-163.46042 0,-67.81993 -27.9228,-109.27038 -51.33282,-132.09035 C 949.58823,572.52994 883.97911,570.5077 870.47913,570.5477 H 708.78917 c -12.78999,0 -23.14854,-10.35855 -23.14854,-23.14854 v -27.20895 c -0.01,-6.13999 2.41851,-12.02944 6.7585,-16.37944 h 0.0106 c 4.34,-4.34999 10.22884,-6.80091 16.36884,-6.80091 h 268.49025 c 12.78998,0 23.14858,-10.36916 23.14858,-23.15914 V 373.11983 c 0,-12.77999 -10.3586,-23.14855 -23.14858,-23.14855 z" transform="matrix(0.17269775,0,0,0.17269775,104.93391,92.737789)"></path><path d="m 110.16969,316.43484 h 5.55194 l 2.4231,-12.16252 h 4.82267 l 0.87043,-4.30511 h -15.19728 l -0.87043,4.30511 h 4.82266 z m 29.8359,-11.05684 c 0,-3.41115 -2.49367,-5.41079 -6.84583,-5.41079 h -7.38691 l -3.29353,16.46763 h 5.55195 l 0.82338,-4.14043 h 1.36446 l 2.329,4.14043 h 5.76367 l -2.75245,-4.79914 c 2.7995,-1.05863 4.44626,-3.31705 4.44626,-6.2577 z m -5.62252,0.54108 c 0,1.38799 -0.89396,2.18784 -2.42309,2.18784 h -2.28195 l 0.77633,-3.85813 h 1.85849 c 1.27037,0 2.07022,0.49403 2.07022,1.67029 z m 18.66148,10.51576 h 5.52842 l -3.90519,-16.46763 h -5.45784 l -10.49224,16.46763 h 5.85777 l 1.64677,-2.87007 h 6.28123 z m -4.54037,-6.86935 2.4231,-4.21101 0.79985,4.21101 z m 25.57786,-9.59828 -1.52914,7.66921 -4.72856,-7.66921 h -4.56389 l -3.29353,16.46763 h 5.41079 l 1.52914,-7.66921 4.72857,7.66921 h 4.56389 l 3.29352,-16.46763 z m 11.83917,16.84404 c 5.12849,0 8.32792,-2.47015 8.32792,-6.14008 0,-5.08144 -7.85742,-3.92871 -7.85742,-5.74015 0,-0.5646 0.79986,-1.10568 2.4231,-1.10568 1.59971,0 3.19942,0.39993 4.51684,1.22331 l 1.99964,-4.04634 c -1.52914,-0.91748 -3.71698,-1.41151 -6.1636,-1.41151 -5.19907,0 -8.32793,2.44662 -8.32793,6.18713 0,5.10497 7.8339,4.09338 7.8339,5.83425 0,0.58813 -0.75281,0.96453 -2.18785,0.96453 -1.83496,0 -3.71698,-0.4705 -5.55194,-1.52914 l -2.1408,4.09339 c 1.57619,0.96453 4.18749,1.67029 7.12814,1.67029 z m 25.2485,-12.65656 0.84691,-4.18748 h -13.38584 l -3.29353,16.46763 h 5.55195 l 1.05863,-5.26964 h 6.84583 l 0.84691,-4.18749 h -6.86936 l 0.56461,-2.82302 z m 8.96907,12.65656 c 6.04597,0 10.37461,-4.04634 10.37461,-9.85706 0,-4.32864 -3.22295,-7.36339 -8.35144,-7.36339 -6.04598,0 -10.37462,4.04634 -10.37462,9.85706 0,4.32864 3.22295,7.36339 8.35145,7.36339 z m 0.4705,-4.49332 c -2.02316,0 -3.22295,-1.29388 -3.22295,-3.19942 0,-2.7054 1.57619,-5.03439 4.30511,-5.03439 2.02317,0 3.22295,1.29388 3.22295,3.19942 0,2.7054 -1.57618,5.03439 -4.30511,5.03439 z m 28.2362,-6.93993 c 0,-3.41115 -2.49367,-5.41079 -6.84583,-5.41079 h -7.38692 l -3.29352,16.46763 h 5.55194 l 0.82338,-4.14043 h 1.36447 l 2.32899,4.14043 h 5.76368 l -2.75245,-4.79914 c 2.7995,-1.05863 4.44626,-3.31705 4.44626,-6.2577 z m -5.62252,0.54108 c 0,1.38799 -0.89396,2.18784 -2.4231,2.18784 h -2.28194 l 0.77633,-3.85813 h 1.85849 c 1.27036,0 2.07022,0.49403 2.07022,1.67029 z m 24.40162,-5.95187 -6.89288,8.75137 -3.57583,-8.75137 h -4.51684 l -3.29353,16.46763 h 5.05792 l 1.48209,-7.41043 2.54072,5.92835 h 2.44662 l 4.63447,-6.02245 -1.45857,7.50453 h 5.05792 l 3.24648,-16.46763 z m 17.20291,16.46763 h 5.52842 l -3.90518,-16.46763 h -5.45785 l -10.49224,16.46763 h 5.85778 l 1.64676,-2.87007 h 6.28123 z m -4.54036,-6.86935 2.42309,-4.21101 0.79986,4.21101 z m 20.5905,7.24576 c 3.03475,0 5.48137,-0.82338 7.48102,-3.27 l -3.27001,-3.12886 c -1.12921,1.36447 -2.37604,1.90554 -3.66993,1.90554 -2.04669,0 -3.38763,-1.29388 -3.38763,-3.22295 0,-2.94065 1.83497,-5.01086 4.44627,-5.01086 1.50561,0 2.58777,0.70575 3.29352,1.92906 l 3.99929,-3.12885 c -1.19979,-2.11727 -3.78756,-3.29353 -6.93994,-3.29353 -6.09302,0 -10.39814,4.06986 -10.39814,9.85706 0,4.37569 3.34058,7.36339 8.44555,7.36339 z m 8.6397,-0.37641 h 5.55195 l 3.29353,-16.46763 h -5.55195 z m 18.37916,-17.80857 h 3.66993 l 5.05792,-3.76403 h -5.19907 z m -0.3764,18.18498 c 6.04597,0 10.37461,-4.04634 10.37461,-9.85706 0,-4.32864 -3.22295,-7.36339 -8.35144,-7.36339 -6.04598,0 -10.37462,4.04634 -10.37462,9.85706 0,4.32864 3.22295,7.36339 8.35145,7.36339 z m 0.4705,-4.49332 c -2.02317,0 -3.22295,-1.29388 -3.22295,-3.19942 0,-2.7054 1.57619,-5.03439 4.30511,-5.03439 2.02317,0 3.22295,1.29388 3.22295,3.19942 0,2.7054 -1.57618,5.03439 -4.30511,5.03439 z m 24.82506,-12.35072 -1.52914,7.66921 -4.72856,-7.66921 h -4.56389 l -3.29353,16.46763 h 5.4108 l 1.52913,-7.66921 4.72857,7.66921 h 4.56389 l 3.29353,-16.46763 z" id="text14" style="font-style:italic;font-weight:900;font-size:23.5252px;line-height:1;font-family:Montserrat;-inkscape-font-specification:'Montserrat Heavy Italic';text-align:center;letter-spacing:0.5px;text-anchor:middle;fill:#e3ff00" transform="matrix(1.3369613,-0.24202731,0.24202731,1.3369613,-172.38187,-59.741948)" aria-label="TRANSFORMACI&#xD3;N"></path><path style="fill:#e3ff00;fill-opacity:1;stroke-width:2.70496;-inkscape-stroke:none;paint-order:stroke fill markers" d="M 103.58595,275.35585 7.230166,293.0925 86.534249,264.8864 Z" id="path3" sodipodi:nodetypes="cccc"></path></svg>