<svg xmlns="http://www.w3.org/2000/svg" xmlns:xlink="http://www.w3.org/1999/xlink" id="Capa_1" x="0px" y="0px" viewBox="0 0 561 356" style="enable-background:new 0 0 561 356;" xml:space="preserve"><style type="text/css">	.st0{opacity:0.79;fill:#151515;}	.st1{clip-path:url(#SVGID_00000076585632806855690810000015487170772077646011_);}	.st2{fill:#E3FF00;}	.st3{opacity:0.85;fill:#252626;}	.st4{clip-path:url(#SVGID_00000076585632806855690810000015487170772077646011_);fill:none;}	.st5{fill:#FFFFFF;}	.st6{fill:url(#SVGID_00000062158524739315467840000015479990254828860344_);}	.st7{fill:none;stroke:#E3FF00;stroke-width:0.8139;stroke-miterlimit:10;}	.st8{fill:none;stroke:#E3FF00;stroke-miterlimit:10;}	.st9{fill:none;stroke:#FFFFFF;stroke-width:2;stroke-miterlimit:10;}	.st10{opacity:0.85;}	.st11{filter:url(#Adobe_OpacityMaskFilter);}	.st12{mask:url(#SVGID_00000034797668455856541180000007267654693413983365_);}	.st13{fill:#252626;}	.st14{fill:#E06F5A;}	.st15{filter:url(#Adobe_OpacityMaskFilter_00000029733536718541879990000006981198175997777548_);}	.st16{mask:url(#SVGID_00000139291249455565418630000005014513450663510719_);}	.st17{fill:#F8F7FC;}	.st18{fill:#FEC40B;}	.st19{fill:none;stroke:#000000;stroke-width:1.636;stroke-miterlimit:10;}	.st20{fill:#EA4934;}	.st21{fill:#4EA753;}	.st22{fill:none;stroke:#E3FF00;stroke-width:4.3879;stroke-miterlimit:10;}	.st23{font-family:'Montserrat-Medium';}	.st24{font-size:19.5137px;}	.st25{fill:#151515;}	.st26{fill:none;stroke:#FFFFFF;stroke-miterlimit:10;}	.st27{fill:#171717;}	.st28{font-family:'Montserrat-Black';}	.st29{font-size:24.7873px;}	.st30{fill:none;stroke:#E3FF00;stroke-width:3.5192;stroke-miterlimit:10;}	.st31{opacity:0.35;fill:#FFFFFF;}	.st32{fill:none;stroke:#FFFFFF;stroke-width:0.8756;stroke-miterlimit:10;}	.st33{fill:none;stroke:#FFFFFF;stroke-width:9.6428;stroke-miterlimit:10;}	.st34{fill:none;stroke:#FFFFFF;stroke-width:11.0128;stroke-miterlimit:10;}	.st35{font-family:'Montserrat-Regular';}	.st36{font-size:13.6635px;}	.st37{font-family:'Montserrat-SemiBold';}	.st38{clip-path:url(#SVGID_00000036243312391557250460000015268758167673701521_);}	.st39{clip-path:url(#SVGID_00000023266437298892518060000015206416727401891764_);}	.st40{font-size:16.7559px;}</style><g>	<g>		<defs>			<path id="SVGID_1_" d="M530.9,347H30.7c-10.6,0-19.2-8.6-19.2-19.2V75.4c0-10.6,8.6-19.2,19.2-19.2h500.2     c10.6,0,19.2,8.6,19.2,19.2v252.3C550.1,338.4,541.5,347,530.9,347z"></path>		</defs>		<clipPath id="SVGID_00000159443816823361357240000000028451330462444706_">			<use xlink:href="#SVGID_1_" style="overflow:visible;"></use>		</clipPath>		<g style="clip-path:url(#SVGID_00000159443816823361357240000000028451330462444706_);">			<polygon class="st2" points="194.8,569.4 171.7,584 -171.6,163.2 -148.6,148.6    "></polygon>			<polygon class="st3" points="217.8,554.8 194.8,569.4 -148.6,148.6 -125.5,134    "></polygon>			<polygon class="st2" points="240.8,540.2 217.8,554.8 -125.5,134 -102.5,119.4    "></polygon>			<polygon class="st3" points="263.9,525.6 240.8,540.2 -102.5,119.4 -79.5,104.8    "></polygon>			<polygon class="st2" points="286.9,511 263.9,525.6 -79.5,104.8 -56.4,90.2    "></polygon>			<polygon class="st3" points="309.9,496.4 286.9,511 -56.4,90.2 -33.4,75.6    "></polygon>			<polygon class="st2" points="333,481.8 309.9,496.4 -33.4,75.6 -10.4,61    "></polygon>			<polygon class="st3" points="356,467.2 333,481.8 -10.4,61 12.7,46.4    "></polygon>			<polygon class="st2" points="379,452.6 356,467.2 12.7,46.4 35.7,31.8    "></polygon>			<polygon class="st3" points="402.1,438 379,452.6 35.7,31.8 58.7,17.2    "></polygon>			<polygon class="st2" points="425.1,423.4 402.1,438 58.7,17.2 81.8,2.6    "></polygon>			<polygon class="st3" points="448.1,408.8 425.1,423.4 81.8,2.6 104.8,-12    "></polygon>			<polygon class="st2" points="471.2,394.2 448.1,408.8 104.8,-12 127.8,-26.6    "></polygon>			<polygon class="st3" points="494.2,379.6 471.2,394.2 127.8,-26.6 150.9,-41.2    "></polygon>			<polygon class="st2" points="517.2,365 494.2,379.6 150.9,-41.2 173.9,-55.8    "></polygon>			<polygon class="st3" points="540.3,350.4 517.2,365 173.9,-55.8 196.9,-70.4    "></polygon>			<polygon class="st2" points="563.3,335.8 540.3,350.4 196.9,-70.4 220,-85    "></polygon>			<polygon class="st3" points="586.3,321.2 563.3,335.8 220,-85 243,-99.6    "></polygon>			<polygon class="st2" points="609.4,306.6 586.3,321.2 243,-99.6 266,-114.2    "></polygon>			<polygon class="st3" points="632.4,292 609.4,306.6 266,-114.2 289.1,-128.8    "></polygon>			<polygon class="st2" points="655.4,277.4 632.4,292 289.1,-128.8 312.1,-143.3    "></polygon>			<polygon class="st3" points="678.5,262.8 655.4,277.4 312.1,-143.3 335.1,-157.9    "></polygon>			<polygon class="st2" points="701.5,248.2 678.5,262.8 335.1,-157.9 358.2,-172.5    "></polygon>			<polygon class="st3" points="724.5,233.6 701.5,248.2 358.2,-172.5 381.2,-187.1    "></polygon>			<polygon class="st2" points="747.6,219 724.5,233.6 381.2,-187.1 404.2,-201.7    "></polygon>			<polygon class="st3" points="770.6,204.4 747.6,219 404.2,-201.7 427.3,-216.3    "></polygon>		</g>		<path style="clip-path:url(#SVGID_00000159443816823361357240000000028451330462444706_);fill:none;" d="M460.9,56H130    c-8.3,0-15.1,6-15.1,13.3V311c0,7.3,6.8,13.3,15.1,13.3h330.9c8.3,0,15.1-6,15.1-13.3V69.2C476,61.9,469.2,56,460.9,56z"></path>	</g>	<path class="st5" d="M524,335H37.8c-7.9,0-14.4-6.4-14.4-14.4V80.4c0-7.9,6.4-14.4,14.4-14.4H524c7.9,0,14.4,6.4,14.4,14.4v240.2   C538.4,328.6,531.9,335,524,335z"></path></g><g>	<path class="st20" d="M255.8,21.3c0,7-5.7,12.7-12.7,12.7c-7,0-12.7-5.7-12.7-12.7s5.7-12.7,12.7-12.7   C250.2,8.7,255.8,14.3,255.8,21.3z"></path>	<path class="st18" d="M294.3,21.3c0,7-5.7,12.7-12.7,12.7c-7,0-12.7-5.7-12.7-12.7s5.7-12.7,12.7-12.7   C288.7,8.7,294.3,14.3,294.3,21.3z"></path>	<path class="st21" d="M333.5,21.3c0,7-5.7,12.7-12.7,12.7c-7,0-12.7-5.7-12.7-12.7s5.7-12.7,12.7-12.7   C327.8,8.7,333.5,14.3,333.5,21.3z"></path></g><g>	<path class="st22" d="M409.3,233.6H154.7c-10.4,0-18.8-8.4-18.8-18.8v-3.6c0-10.4,8.4-18.8,18.8-18.8h254.6   c10.4,0,18.8,8.4,18.8,18.8v3.6C428.1,225.2,419.7,233.6,409.3,233.6z"></path>	<text transform="matrix(1 0 0 1 163.4878 219.8086)" class="st3 st23 st24">Bienvenid@ a la familia</text></g><g>	<text transform="matrix(1 0 0 1 89.083 126.6514)" class="st3 st28 st29">¡GRACIAS POR INSCRIBIRTE! </text>	<line class="st30" x1="89.1" y1="135" x2="216.1" y2="134.9"></line></g><text transform="matrix(1.0011 0 0 1 149.2101 175.1282)" class="st35 st36">COMPLETAR TUS OBJETIVOS</text><text transform="matrix(1.0011 0 0 1 175.5807 303.1282)" class="st3 st37 st36">CENTRO MÉDICO DEPORTIVO</text><g>	<defs>		<rect id="SVGID_00000173133795472183229960000008699816960707812488_" x="357" y="159.5" width="21" height="20.9"></rect>	</defs>	<clipPath id="SVGID_00000007409745984705366480000003796346169952261013_">		<use xlink:href="#SVGID_00000173133795472183229960000008699816960707812488_" style="overflow:visible;"></use>	</clipPath>	<g style="clip-path:url(#SVGID_00000007409745984705366480000003796346169952261013_);">					<image style="overflow:visible;" width="762" height="280" transform="matrix(0.1123 0 0 0.1123 324.9572 155.0927)">		</image>	</g></g><g>	<g>		<defs>			<rect id="SVGID_00000106116747339600234690000009461981519589544097_" x="16.3" y="143.8" width="531.5" height="34.4"></rect>		</defs>		<clipPath id="SVGID_00000071559772132163584570000005112563680179619989_">			<use xlink:href="#SVGID_00000106116747339600234690000009461981519589544097_" style="overflow:visible;"></use>		</clipPath>		<g style="clip-path:url(#SVGID_00000071559772132163584570000005112563680179619989_);">			<text transform="matrix(1.0011 0 0 1 174.9083 158.4141)" class="st35 st36">CADA VEZ MAS CERCA DE </text>		</g>	</g>	<g>		<defs>			<rect id="SVGID_00000057839746129247510880000014212767667603669417_" x="16.3" y="143.8" width="531.5" height="34.4"></rect>		</defs>		<clipPath id="SVGID_00000085219293566273847400000017219092482644842679_">			<use xlink:href="#SVGID_00000057839746129247510880000014212767667603669417_" style="overflow:visible;"></use>		</clipPath>		<g style="clip-path:url(#SVGID_00000085219293566273847400000017219092482644842679_);">			<text transform="matrix(1.0011 0 0 1 484.178 162.3237)" class="st35 st40"> </text>		</g>	</g></g><g class="st10">	<path class="st13" d="M210.3,252.3h-13.9c-0.4,0-0.7,0.3-0.7,0.7v23.7c0,0.4,0.3,0.7,0.7,0.7h3.2c0.4,0,0.7-0.3,0.7-0.7v-9.8h8.6   c0.4,0,0.7-0.3,0.7-0.7v-3.1c0-0.4-0.3-0.7-0.7-0.7h-8.6v-5.7h10c0.4,0,0.7-0.3,0.7-0.7V253C211,252.6,210.7,252.3,210.3,252.3"></path>	<path class="st13" d="M217.4,252c-0.5-0.5-1.2-0.8-1.9-0.8c-0.7,0-1.3,0.3-1.9,0.8c0,0,0,0,0,0c-0.5,0.5-0.7,1.2-0.7,1.9   c0,0.7,0.2,1.4,0.7,1.9c0.5,0.5,1.2,0.8,1.9,0.8c0.7,0,1.4-0.3,1.8-0.8c0.5-0.5,0.8-1.1,0.8-1.9C218.1,253.2,217.9,252.6,217.4,252   C217.4,252,217.4,252,217.4,252"></path>	<path class="st13" d="M217.4,256.8c-0.2-0.1-0.4-0.1-0.6-0.1l-3.1,1.3c-0.3,0.1-0.4,0.4-0.4,0.6v18.1c0,0.4,0.3,0.7,0.7,0.7h3.1   c0.4,0,0.7-0.3,0.7-0.7v-19.3C217.7,257.1,217.6,256.9,217.4,256.8"></path>	<path class="st13" d="M228.8,258.9c-0.1-0.3-0.3-0.5-0.7-0.5h-3.2v-5.9c0-0.2-0.1-0.4-0.3-0.6c-0.2-0.1-0.4-0.2-0.6-0.1l-3.2,1.3   c-0.3,0.1-0.4,0.3-0.4,0.6v22.8c0,0.4,0.3,0.7,0.7,0.7h3.2c0.4,0,0.7-0.3,0.7-0.7v-14.3h3.9c0.2,0,0.4-0.1,0.5-0.3   c0.1-0.2,0.2-0.4,0.1-0.6L228.8,258.9z"></path>	<path class="st13" d="M242.9,258c-2.3,0-4.5,0.9-6,2.3V259c0-0.4-0.3-0.7-0.7-0.7h-3.1c-0.4,0-0.7,0.3-0.7,0.7v17.6   c0,0.4,0.3,0.7,0.7,0.7h3.2c0.4,0,0.7-0.3,0.7-0.7v-9.7c0-1,0.2-1.9,0.7-2.5c1-1.5,2.9-2.2,4.2-2.2c1.4,0,2.4,0.4,3,1.4   c0.4,0.6,0.5,1.7,0.5,3.1v10c0,0.4,0.3,0.7,0.7,0.7h3.1c0.4,0,0.7-0.3,0.7-0.7v-10.9c0-1.2-0.1-3.3-0.8-4.6   C247.9,259.1,245.8,258,242.9,258"></path>	<path class="st13" d="M262.1,257.5c-5.8,0-9.8,4.1-9.8,9.9c0,6.1,3.8,10,9.8,10c3.8,0,6.1-1.2,7.8-2.2c0.2-0.1,0.3-0.3,0.3-0.6   v-3.1c0-0.2-0.1-0.5-0.4-0.6c-0.2-0.1-0.5-0.1-0.7,0L269,271c-1.7,1.1-3.2,2.1-6.6,2.1c-3,0-5.1-1.7-5.5-4.1h13.4   c0.3,0,0.6-0.3,0.7-0.6c0-0.3,0-1.1,0-1.7C271,260.9,267.7,257.5,262.1,257.5 M262.1,261.6c2.5,0,4.2,1.3,4.5,3.4h-9.4   C257.7,262.8,259.5,261.6,262.1,261.6"></path>	<path class="st13" d="M281.7,265.7l-2-0.8c-2-0.7-2.1-1-2.1-1.5c0-0.5,0-1.6,2.7-1.6c2,0,3.5,0.5,5,1.2c0.2,0.1,0.4,0.1,0.6,0   c0.2-0.1,0.3-0.3,0.3-0.6v-3.2c0-0.3-0.2-0.5-0.4-0.6c-1.7-0.7-3.7-1-5.6-1c-4.6,0-7.2,2.1-7.2,5.7c0,3.4,2.5,4.8,4.6,5.5l2.2,0.8   c2.2,0.8,2.6,1,2.6,1.7c0,0.6,0,1.9-3,1.9c-2.1,0-3.8-0.5-5.9-1.7c-0.2-0.1-0.5-0.1-0.7,0c-0.2,0.1-0.3,0.3-0.3,0.6v3.3   c0,0.3,0.1,0.5,0.4,0.6c1.8,0.9,4.1,1.5,6.5,1.5c4.9,0,7.7-2.2,7.7-5.9C287,268,284.7,266.9,281.7,265.7"></path>	<path class="st13" d="M298,265.7l-2-0.8c-2-0.7-2.1-1-2.1-1.5c0-0.5,0-1.6,2.7-1.6c2,0,3.5,0.5,5,1.2c0.2,0.1,0.5,0.1,0.6,0   c0.2-0.1,0.3-0.3,0.3-0.6v-3.2c0-0.3-0.2-0.5-0.4-0.6c-1.7-0.7-3.7-1-5.6-1c-4.6,0-7.2,2.1-7.2,5.7c0,3.4,2.5,4.8,4.6,5.5l2.2,0.8   c2.2,0.8,2.6,1,2.6,1.7c0,0.6,0,1.9-3,1.9c-2.1,0-3.8-0.5-5.9-1.7c-0.2-0.1-0.5-0.1-0.7,0c-0.2,0.1-0.3,0.3-0.3,0.6v3.3   c0,0.3,0.1,0.5,0.4,0.6c1.8,0.9,4.1,1.5,6.5,1.5c4.9,0,7.7-2.2,7.7-5.9C303.4,268,301.1,266.9,298,265.7"></path>	<path class="st13" d="M329.2,253.7c-1.5-1-3.7-1.6-6.5-1.6c-1.3,0-7.7,0.1-7.9,0.1c-0.4,0-0.7,0.3-0.7,0.7v23.7   c0,0.4,0.3,0.7,0.7,0.7h3.3c0.4,0,0.7-0.3,0.7-0.7V268h3.8c2.2,0,4.3-0.5,5.7-1.3c2.3-1.3,3.8-4,3.8-7   C332.1,257,331.1,255,329.2,253.7 M318.8,256.7c1,0,2.9-0.1,3.6-0.1c3.4,0,4.9,0.9,4.9,3.2c0,1.1-0.6,2.3-1.4,2.9   c-0.7,0.5-2.1,0.8-3.7,0.8h-3.4V256.7z"></path>	<path class="st13" d="M341.9,257.5c-5.8,0-9.8,4.1-9.8,9.9c0,6.1,3.8,10,9.8,10c3.8,0,6.1-1.2,7.8-2.2c0.2-0.1,0.3-0.3,0.3-0.6   v-3.1c0-0.2-0.1-0.5-0.4-0.6c-0.2-0.1-0.5-0.1-0.7,0l-0.1,0.1c-1.7,1.1-3.2,2.1-6.6,2.1c-3,0-5.1-1.7-5.5-4.1H350   c0.3,0,0.6-0.3,0.7-0.6c0-0.3,0-1.1,0-1.7C350.8,260.9,347.4,257.5,341.9,257.5 M341.9,261.6c2.5,0,4.2,1.3,4.5,3.4h-9.4   C337.4,262.8,339.3,261.6,341.9,261.6"></path>	<path class="st13" d="M361.9,257.5c-5.8,0-10,4.2-10,10c0,5.9,4,9.9,9.9,9.9c5.8,0,10-4.2,10-10   C371.9,261.4,367.9,257.5,361.9,257.5 M361.9,273.1c-3.3,0-5.5-2.2-5.5-5.6c0-2.7,1.4-5.7,5.5-5.7c4,0,5.4,2.9,5.4,5.7   C367.3,270.2,365.7,273.1,361.9,273.1"></path>	<path class="st13" d="M384.6,257.6c-1.8,0-4,0.7-5.7,2.2v-1.2c0-0.4-0.3-0.7-0.7-0.7h-3c-0.4,0-0.7,0.3-0.7,0.7v26.2   c0,0.4,0.3,0.7,0.7,0.7h3.2c0.4,0,0.7-0.3,0.7-0.7v-7.8c1.2,0.2,2.2,0.4,3.5,0.4c4.7,0,10.3-2.7,10.3-10.4   C392.9,261,389.9,257.6,384.6,257.6 M388.3,267.1c0,5.3-4.1,5.9-5.9,5.9c-1.6,0-2.6-0.2-3.4-0.5v-6.1c0-0.9,0.3-2,0.7-2.6   c0.9-1.2,2.4-2,3.9-2C386.8,261.9,388.3,263.6,388.3,267.1"></path>	<path class="st13" d="M402.7,272.8c-0.2-0.1-0.4-0.1-0.6-0.1c-0.5,0.2-1,0.3-1.3,0.3c-0.5,0-0.6-0.1-0.7-0.2c0-0.1-0.1-0.5-0.1-1.3   V250c0-0.4-0.3-0.7-0.7-0.7h-3.1c-0.4,0-0.7,0.3-0.7,0.7v21.7c0,1.4,0.1,2.6,0.5,3.4c0.9,2,2.7,2.2,4,2.2c0.9,0,1.8-0.2,2.6-0.5   c0.2-0.1,0.4-0.4,0.4-0.6v-2.9C403,273.1,402.9,272.9,402.7,272.8"></path>	<path class="st13" d="M413.1,257.5c-5.8,0-9.8,4.1-9.8,9.9c0,6.1,3.8,10,9.8,10c3.8,0,6.1-1.2,7.8-2.2c0.2-0.1,0.3-0.3,0.3-0.6   v-3.1c0-0.2-0.1-0.5-0.4-0.6c-0.2-0.1-0.5-0.1-0.7,0l-0.1,0.1c-1.7,1.1-3.2,2.1-6.6,2.1c-3,0-5.1-1.7-5.5-4.1h13.4   c0.3,0,0.6-0.3,0.7-0.6c0-0.3,0-1.1,0-1.7C421.9,260.9,418.6,257.5,413.1,257.5 M413,261.6c2.5,0,4.2,1.3,4.5,3.4h-9.4   C408.6,262.8,410.4,261.6,413,261.6"></path>	<path class="st13" d="M428.4,255.8l-0.9-1.4c-0.1-0.1-0.2-0.3-0.3-0.5c0,0-0.1-0.1-0.1-0.1c0.1,0,0.2-0.1,0.3-0.2   c0.3-0.2,0.5-0.6,0.5-1c0-0.6-0.3-1-0.8-1.2c-0.3-0.1-0.9-0.1-1.1-0.1c-0.2,0-1.3,0-1.3,0c-0.1,0-0.1,0-0.1,0.1v4.4   c0,0.1,0,0.1,0.1,0.1h0.6c0.1,0,0.1,0,0.1-0.1v-1.7h0.5c0.2,0,0.4,0,0.5,0.2c0.1,0.1,0.2,0.2,0.4,0.5l0.7,1.1c0,0,0.1,0.1,0.1,0.1   h0.7c0,0,0.1,0,0.1-0.1C428.5,255.9,428.5,255.8,428.4,255.8 M427.1,252.7c0,0.2-0.1,0.4-0.3,0.5c-0.1,0.1-0.3,0.1-0.6,0.1h-0.7   v-1.2c0.2,0,0.4,0,0.6,0c0.3,0,0.5,0,0.6,0.1C426.8,252.2,427.1,252.4,427.1,252.7"></path>	<path class="st13" d="M426.3,258c-2.4,0-4.3-1.9-4.3-4.3c0-2.4,1.9-4.3,4.3-4.3c2.4,0,4.3,1.9,4.3,4.3   C430.6,256,428.7,258,426.3,258 M426.3,250.2c-1.9,0-3.5,1.5-3.5,3.5c0,1.9,1.5,3.5,3.5,3.5c1.9,0,3.5-1.5,3.5-3.5   C429.8,251.7,428.2,250.2,426.3,250.2"></path>	<path class="st13" d="M158.5,239.8c-13.9,0-25.1,11.2-25.1,25.1c0,13.9,11.2,25.1,25.1,25.1c13.9,0,25.1-11.2,25.1-25.1   C183.6,251,172.3,239.8,158.5,239.8z M155.1,265.7l-0.7,4c-0.1,0.4-0.4,0.6-0.7,0.6h-4.2c-0.4,0-0.7,0.3-0.7,0.6l-0.7,4.3   c-0.1,0.4-0.4,0.6-0.7,0.6h-4c-0.5,0-0.8-0.4-0.7-0.9l0.8-4.6l0.9-4.9c0.1-0.4,0.4-0.6,0.7-0.6h4.9h4.6   C154.8,264.9,155.2,265.3,155.1,265.7z M157,254.8l-0.7,4c-0.1,0.4-0.4,0.6-0.7,0.6h-4.9h-4.6c-0.5,0-0.8-0.4-0.7-0.9l0.7-4   c0.1-0.4,0.4-0.6,0.7-0.6h4.9h4.6C156.8,253.9,157.1,254.4,157,254.8z M172.7,253.9c0.5,0,0.8,0.4,0.7,0.9l-0.8,4.6l-1,5.5   l-0.9,4.9c-0.1,0.4-0.4,0.6-0.7,0.6h-4.2c-0.4,0-0.7,0.3-0.7,0.6l-0.8,4.3c-0.1,0.4-0.4,0.6-0.7,0.6h-4c-0.5,0-0.8-0.4-0.7-0.9   l0.8-4.6l0.9-4.9c0.1-0.4,0.4-0.6,0.7-0.6h4.2c0.4,0,0.7-0.3,0.7-0.6l0.7-4c0.1-0.4-0.3-0.9-0.7-0.9h-4.6h-1.9   c-0.5,0-0.8-0.4-0.7-0.9l0.7-4c0.1-0.4,0.4-0.6,0.7-0.6h2.1h5.5h2.8c-1.4-0.2-2.5-1.4-2.5-2.8c0-1.6,1.3-2.8,2.8-2.8   c1.6,0,2.8,1.3,2.8,2.8c0,1.4-1.1,2.6-2.5,2.8H172.7z"></path></g></svg>