<svg xmlns="http://www.w3.org/2000/svg" xmlns:xlink="http://www.w3.org/1999/xlink" id="Capa_1" x="0px" y="0px" viewBox="0 0 186 203" style="enable-background:new 0 0 186 203;" xml:space="preserve"><style type="text/css">	.st0{opacity:0.79;fill:#151515;}	.st1{clip-path:url(#SVGID_00000100346435226068722000000003054165111768784514_);}	.st2{fill:#E3FF00;}	.st3{opacity:0.85;fill:#252626;}	.st4{clip-path:url(#SVGID_00000100346435226068722000000003054165111768784514_);fill:none;}	.st5{fill:#FFFFFF;}	.st6{fill:url(#SVGID_00000068672960053648429910000012600775695168464000_);}	.st7{fill:none;stroke:#E3FF00;stroke-width:0.8139;stroke-miterlimit:10;}	.st8{fill:none;stroke:#E3FF00;stroke-miterlimit:10;}	.st9{fill:none;stroke:#FFFFFF;stroke-width:2;stroke-miterlimit:10;}	.st10{opacity:0.85;}	.st11{filter:url(#Adobe_OpacityMaskFilter);}	.st12{mask:url(#SVGID_00000005988638167422378810000008813498829202482342_);}	.st13{fill:#252626;}	.st14{fill:#E06F5A;}	.st15{filter:url(#Adobe_OpacityMaskFilter_00000178915946751909823940000017164866579346305665_);}	.st16{mask:url(#SVGID_00000096750905452185729570000017648291142753141649_);}	.st17{fill:#F8F7FC;}	.st18{fill:#FEC40B;}	.st19{fill:none;stroke:#000000;stroke-width:1.636;stroke-miterlimit:10;}	.st20{fill:#EA4934;}	.st21{fill:#4EA753;}	.st22{fill:none;stroke:#E3FF00;stroke-width:4.3879;stroke-miterlimit:10;}	.st23{fill:#151515;}	.st24{fill:none;stroke:#FFFFFF;stroke-miterlimit:10;}	.st25{fill:#171717;}	.st26{fill:none;stroke:#E3FF00;stroke-width:4;stroke-miterlimit:10;}	.st27{opacity:0.35;fill:#FFFFFF;}	.st28{fill:none;stroke:#FFFFFF;stroke-width:0.8756;stroke-miterlimit:10;}</style><g>	<polygon class="st2" points="151,120.2 167.9,111.3 152.3,100.4 165.1,86.3 146.6,81.4 153.8,63.7 134.8,65.4 135.6,46.3    118.3,54.4 112.5,36.3 99,49.8 87.3,34.7 79.3,52 63.1,41.8 61.5,60.8 42.8,56.8 47.8,75.2 28.9,77.8 39.9,93.4 23,102.3    38.6,113.2 25.8,127.4 44.2,132.3 37.1,149.9 56,148.3 55.3,167.3 72.6,159.2 78.4,177.4 91.9,163.9 103.6,178.9 111.6,161.7    127.8,171.8 129.4,152.8 148,156.8 143.1,138.4 162,135.8  "></polygon>	<g>		<rect x="60.2" y="116.5" transform="matrix(0.7096 0.7046 -0.7046 0.7096 106.8254 -18.2636)" width="30.7" height="7.9"></rect>		<rect x="71" y="103.1" transform="matrix(-0.6658 0.7461 -0.7461 -0.6658 253.1754 100.1295)" width="66.4" height="7.3"></rect>	</g></g></svg>