<svg xmlns="http://www.w3.org/2000/svg" xmlns:xlink="http://www.w3.org/1999/xlink" id="Capa_1" x="0px" y="0px" viewBox="0 0 185 225" style="enable-background:new 0 0 185 225;" xml:space="preserve"><style type="text/css">	.st0{opacity:0.79;fill:#151515;}	.st1{clip-path:url(#SVGID_00000109730106636614770460000004681485303745857456_);}	.st2{fill:#E3FF00;}	.st3{opacity:0.85;fill:#252626;}	.st4{clip-path:url(#SVGID_00000109730106636614770460000004681485303745857456_);fill:none;}	.st5{fill:#FFFFFF;}	.st6{fill:url(#SVGID_00000163072387226430840040000017018473289311590279_);}	.st7{fill:none;stroke:#E3FF00;stroke-width:0.8139;stroke-miterlimit:10;}	.st8{fill:none;stroke:#E3FF00;stroke-miterlimit:10;}	.st9{fill:none;stroke:#FFFFFF;stroke-width:2;stroke-miterlimit:10;}	.st10{opacity:0.85;}	.st11{filter:url(#Adobe_OpacityMaskFilter);}	.st12{mask:url(#SVGID_00000139997094040037369250000006865518733416987056_);}	.st13{fill:#252626;}	.st14{fill:#E06F5A;}	.st15{filter:url(#Adobe_OpacityMaskFilter_00000105408074363372119910000001202267229614422144_);}	.st16{mask:url(#SVGID_00000026149855659476939100000006440273917415815093_);}	.st17{fill:#F8F7FC;}	.st18{fill:#FEC40B;}	.st19{fill:none;stroke:#000000;stroke-width:1.636;stroke-miterlimit:10;}	.st20{fill:#EA4934;}	.st21{fill:#4EA753;}	.st22{fill:none;stroke:#E3FF00;stroke-width:4.3879;stroke-miterlimit:10;}	.st23{fill:#151515;}	.st24{fill:none;stroke:#FFFFFF;stroke-miterlimit:10;}	.st25{fill:#171717;}	.st26{fill:none;stroke:#E3FF00;stroke-width:4;stroke-miterlimit:10;}	.st27{opacity:0.35;fill:#FFFFFF;}	.st28{fill:none;stroke:#FFFFFF;stroke-width:0.8756;stroke-miterlimit:10;}</style><g>	<polygon class="st5" points="155.2,126.2 172,117.3 156.4,106.4 169.2,92.3 150.8,87.4 157.9,69.7 139,71.4 139.7,52.3 122.4,60.4    116.6,42.3 103.1,55.8 91.4,40.7 83.4,58 67.2,47.8 65.6,66.8 47,62.8 51.9,81.2 33,83.8 44,99.4 27.1,108.3 42.7,119.2    29.9,133.4 48.4,138.3 41.2,155.9 60.2,154.3 59.4,173.3 76.7,165.2 82.5,183.4 96,169.9 107.7,184.9 115.7,167.7 131.9,177.8    133.5,158.8 152.2,162.8 147.2,144.4 166.1,141.8  "></polygon>	<g>		<rect x="64.4" y="122.5" transform="matrix(0.7096 0.7046 -0.7046 0.7096 112.2483 -19.4215)" width="30.7" height="7.9"></rect>		<rect x="75.1" y="109.1" transform="matrix(-0.6658 0.7461 -0.7461 -0.6658 264.5089 107.0534)" width="66.4" height="7.3"></rect>	</g></g></svg>