<svg xmlns="http://www.w3.org/2000/svg" id="Capa_2" viewBox="0 0 158.83 158.83"><defs><style>.cls-1{fill:#333;}.cls-2{fill:#e3ff00;}</style></defs><g id="Capa_1-2"><g><circle class="cls-2" cx="79.41" cy="79.41" r="77"></circle><g><path class="cls-1" d="M79.41,158.83c-10.72,0-21.12-2.1-30.91-6.24-9.46-4-17.95-9.73-25.24-17.02-7.29-7.29-13.02-15.79-17.02-25.24C2.1,100.54,0,90.13,0,79.41s2.1-21.12,6.24-30.91c4-9.46,9.73-17.95,17.02-25.24,7.29-7.29,15.79-13.02,25.24-17.02C58.29,2.1,68.69,0,79.41,0s21.12,2.1,30.91,6.24c9.46,4,17.95,9.73,25.24,17.02,7.29,7.29,13.02,15.79,17.02,25.24,4.14,9.79,6.24,20.19,6.24,30.91s-2.1,21.12-6.24,30.91c-4,9.46-9.73,17.95-17.02,25.24-7.29,7.29-15.79,13.02-25.24,17.02-9.79,4.14-20.19,6.24-30.91,6.24Zm0-155.14C37.66,3.69,3.69,37.66,3.69,79.41s33.97,75.73,75.73,75.73,75.73-33.97,75.73-75.73S121.17,3.69,79.41,3.69Z"></path><path class="cls-1" d="M101.15,54.17c.11,.37,.17,.63,.26,.89,2.35,6.59,4.72,13.18,7.06,19.78,.2,.57,.49,.82,1.08,.97,12.19,3.15,17.43,17.69,10.05,27.91-.43,.59-.45,1.04-.21,1.69,.88,2.37,1.69,4.77,2.57,7.14,.16,.44,.48,.87,.83,1.18,1.08,.94,1.68,2.09,1.71,3.51,.02,1.03,.03,2.07,0,3.1-.06,2.47-1.97,4.37-4.43,4.44-.84,.02-1.69,0-2.54,0-2.98,0-4.65-1.45-5.09-4.45H46.42c-.28,2.21-1.33,3.92-3.63,4.29-1.58,.26-3.26,.24-4.85,.02-2.13-.3-3.55-2.16-3.6-4.31-.02-1.06-.03-2.13,0-3.19,.06-2.03,1.43-3.67,3.39-4.24,.6-.17,1.21-.49,1.67-.9,3.55-3.16,7.07-6.37,10.6-9.56,.23-.21,.44-.42,.7-.67-1.77-1.36-3.07-3.02-3.76-5.1-1.14-3.41-.64-6.61,1.41-9.55,.33-.47,.35-.83,.15-1.35-2.47-6.25-4.92-12.5-7.34-18.77-.24-.62-.52-.87-1.2-.83-.71,.04-1.45,.02-2.14-.14-2.03-.45-3.41-2.17-3.47-4.24-.03-.91-.02-1.82,0-2.72,.07-2.7,2.33-4.73,5-4.38,5.09,.67,10.17,1.38,15.24,2.15,2.5,.38,4.01,2.56,3.79,5.22-.2,2.34-2.12,4.09-4.56,4.13-1.19,.02-2.38,0-3.66,0,.07,.28,.11,.5,.19,.71,1.97,5.03,3.95,10.06,5.9,15.1,.19,.5,.41,.71,.99,.74,4.28,.23,8.56,.53,12.84,.76,.44,.02,1-.16,1.32-.44,7.59-6.82,15.15-13.68,22.72-20.51,.44-.4,.54-.72,.33-1.28-.81-2.16-1.55-4.36-2.37-6.52-.13-.35-.46-.74-.8-.9-2.04-.96-3.17-2.97-2.75-5.02,.45-2.22,2.24-3.67,4.57-3.68,3.13-.01,6.27-.13,9.39,.03,3.59,.18,5.81-2.16,5.52-5.49-.05-.52,.01-1.07,.13-1.58,.5-2.16,2.42-3.59,4.62-3.48,2.12,.1,3.98,1.73,4.2,3.87,.78,7.62-3.51,13.01-9.06,14.87-1.4,.47-2.93,.57-4.41,.77-.73,.1-1.48,.02-2.32,.02Zm10.74,56.02c-2.11,.37-4.09,.97-6.08,1.03-7.12,.2-12.6-2.81-16.41-8.85-.17-.27-.61-.57-.91-.55-7.84,.45-15.68,.94-23.51,1.43-.26,.02-.52,.09-.88,.15,.46,.84,.85,1.57,1.26,2.32,.52-.27,.92-.5,1.35-.69,.83-.37,1.62-.12,2.02,.61,.39,.73,.18,1.56-.62,2.01-1.74,.98-3.5,1.93-5.27,2.86-.81,.42-1.61,.16-2.02-.57-.43-.76-.18-1.56,.65-2.07,.39-.24,.8-.45,1.26-.71-.52-.96-1.01-1.86-1.54-2.82-4.69,4.31-9.3,8.55-14.04,12.9H112.29c.34-.87,.65-1.65,.94-2.43,.07-.19,.15-.43,.09-.6-.48-1.41-1-2.81-1.43-4.02Zm-4.62-12.95c-.96-2.69-1.88-5.21-2.75-7.75-.2-.59-.48-.84-1.11-.87-3.44-.19-6.87-.42-10.31-.64-5.62-.35-11.24-.7-16.87-1.05-6.37-.4-12.74-.82-19.12-1.18-1.99-.12-3.76,.57-5.24,1.9-2.56,2.29-3.24,5.96-1.69,9,1.62,3.17,5.12,4.71,8.9,3.85-.33-.62-.67-1.21-.96-1.83-.3-.63-.64-.98-1.46-.97-1.92,.02-3.6-1.4-4.11-3.26-.51-1.88,.22-3.87,1.83-4.94,1.62-1.08,3.75-1,5.26,.2,1.57,1.24,2.34,3.41,1.36,5.11-.8,1.39-.41,2.33,.28,3.42,.29,.45,.56,.91,.76,1.4,.25,.64,.66,.78,1.3,.73,3.18-.22,6.37-.4,9.56-.6,10.74-.68,21.49-1.35,32.23-2.05,.69-.05,1.37-.31,2.13-.48Zm11.52,15.56c-.14-.46-.23-.79-.34-1.1-4.66-13.03-9.32-26.06-13.98-39.1-2.1-5.88-4.19-11.77-6.31-17.65-.11-.3-.4-.71-.65-.74-.76-.1-1.53-.04-2.39-.04,.13,.42,.2,.72,.31,1.01,4.52,12.65,9.04,25.3,13.56,37.95,2.24,6.27,4.47,12.54,6.73,18.8,.12,.33,.41,.79,.67,.83,.76,.11,1.54,.04,2.4,.04Zm-26.21-11.2c3.84,6.24,12.6,8.25,18.17,5.37-.83-2.3-1.65-4.61-2.44-6.8-5.24,1.13-10.5,.76-15.73,1.43Zm25.2-.7c2.65-3.66,2.92-9.57,.7-14.22-1.68-3.52-5.95-7.28-8.42-7.39,2.57,7.19,5.14,14.37,7.72,21.61Zm-19.21-49.74s0-.01,0-.02c1.81,0,3.63,.08,5.44-.01,5.52-.28,10.62-4.89,9.94-12.16-.08-.81-.63-1.28-1.46-1.32-.78-.04-1.42,.55-1.51,1.37-.04,.4-.02,.81-.02,1.22-.02,4.7-3.21,7.9-7.89,7.91-3.29,0-6.57,0-9.86,0-1.11,0-1.78,.58-1.78,1.49,0,.91,.67,1.5,1.77,1.5,1.78,.01,3.57,0,5.35,0Zm-52.22,12.02c2.44,0,4.88,.01,7.33,0,1.03,0,1.62-.55,1.7-1.49,.09-1.1-.39-1.73-1.47-1.9-1.45-.23-2.91-.43-4.36-.64-3.44-.49-6.87-.99-10.31-1.45-1.2-.16-1.85,.43-1.88,1.63-.02,.66,0,1.31,0,1.97,.01,1.35,.53,1.88,1.87,1.89,2.38,0,4.76,0,7.14,0Zm51.43,7.51c-4.95,4.55-9.82,9.03-14.85,13.65,1.97,.12,3.66,.19,5.34,.34,.58,.05,.88-.11,1.18-.61,2.21-3.7,5.36-6.3,9.4-7.8,.25-.09,.5-.21,.8-.34-.63-1.76-1.24-3.45-1.88-5.25Zm-2.01-5.6c-6.93,6.27-13.75,12.44-20.73,18.75,1.23,.08,2.2,.17,3.16,.18,.31,0,.7-.1,.92-.3,5.73-5.23,11.45-10.48,17.15-15.75,.19-.17,.28-.6,.21-.86-.15-.63-.42-1.23-.71-2.02Zm-42.27,18.13c-2.18-5.56-4.34-11.09-6.52-16.6-.08-.19-.38-.4-.6-.41-.74-.05-1.48-.02-2.34-.02,2.4,6.12,4.74,12.12,7.1,18.15,.82-.39,1.52-.72,2.34-1.12Zm-7.87,31.3c3.8-3.49,7.67-7.05,11.58-10.65-1.06-.17-1.99-.26-2.9-.48-.56-.13-.91,0-1.32,.37-2.44,2.24-4.91,4.46-7.37,6.68-.87,.79-1.74,1.58-2.53,2.31,.86,.6,1.67,1.16,2.54,1.77Zm57.48-28.93c-.84-2.34-1.61-4.5-2.37-6.64-2.39,.16-7.41,3.74-8.06,5.99,3.43,.21,6.85,.43,10.44,.65Zm-59.76,33.14c0-2.83-.13-2.96-2.96-2.96-2.96,0-3.05,.09-3.05,3.05,0,2.83,.13,2.96,2.95,2.96,2.96,0,3.06-.1,3.06-3.05Zm78.15-.02c0-2.8-.14-2.94-2.98-2.94s-3.03,.1-3.03,3.07c0,2.8,.14,2.94,2.98,2.94s3.03-.11,3.03-3.07Zm-64.62-26.98c-.8,0-1.48,.67-1.5,1.47-.01,.81,.64,1.5,1.45,1.52,.84,.03,1.56-.68,1.55-1.52-.01-.81-.69-1.47-1.5-1.47Z"></path></g></g></g></svg>