<svg xmlns="http://www.w3.org/2000/svg" id="Capa_2" viewBox="0 0 158.83 158.83"><defs><style>.cls-1,.cls-2{fill:#333;}.cls-2{stroke:#fff;stroke-linecap:round;stroke-linejoin:round;stroke-width:.34px;}</style></defs><g id="Capa_1-2"><g><path class="cls-1" d="M79.41,158.83c-10.72,0-21.12-2.1-30.91-6.24-9.46-4-17.95-9.73-25.24-17.02-7.29-7.29-13.02-15.79-17.02-25.24C2.1,100.54,0,90.13,0,79.41s2.1-21.12,6.24-30.91c4-9.46,9.73-17.95,17.02-25.24,7.29-7.29,15.79-13.02,25.24-17.02C58.29,2.1,68.69,0,79.41,0s21.12,2.1,30.91,6.24c9.46,4,17.95,9.73,25.24,17.02,7.29,7.29,13.02,15.79,17.02,25.24,4.14,9.79,6.24,20.19,6.24,30.91s-2.1,21.12-6.24,30.91c-4,9.46-9.73,17.95-17.02,25.24-7.29,7.29-15.79,13.02-25.24,17.02-9.79,4.14-20.19,6.24-30.91,6.24Zm0-155.14C37.66,3.69,3.69,37.66,3.69,79.41s33.97,75.73,75.73,75.73,75.73-33.97,75.73-75.73S121.17,3.69,79.41,3.69Z"></path><path class="cls-2" d="M132.57,88.2c-.06-4.65-1.69-8.69-5.18-11.75-1.84-1.62-4.1-2.77-6.12-4.1,6.39-6.49,4.86-14.94,.24-19.62-5.06-5.13-12.88-5.62-18.5-1.07-2.83,2.29-4.58,5.26-5.06,8.87-.63,4.73,1.04,8.71,4.43,12.09-2.97,.97-5.42,2.48-7.44,4.68-.18,.2-.62,.34-.87,.26-1.17-.36-2.32-.8-3.49-1.22,9.38-8.05,8.1-19.88,1.5-26.49-6.63-6.63-16.94-7.05-24.1-.83-3.55,3.08-5.68,7-6.1,11.68-.57,6.34,1.94,11.48,6.76,15.63-1.43,.49-2.72,.93-4.07,1.4-2.07-2.42-4.67-4.11-7.74-5.1,7.09-7.35,4.74-16,.05-20.35-5.29-4.91-13.18-4.97-18.55-.25-4.81,4.22-7.45,13.17-.23,20.58-.25,.11-.49,.22-.73,.32-6.08,2.36-9.76,6.76-10.6,13.21-.4,3.09-.2,6.26-.13,9.39,.01,.56,.68,1.16,1.15,1.62,.33,.32,.85,.44,1.29,.65,3.8,1.83,7.78,3.09,11.95,3.74,1.53,.24,2.54-.34,2.8-1.53,.31-1.39-.55-2.27-2.18-2.7-3.31-.89-6.58-1.94-9.86-2.92-.73-.22-1.03-.64-1-1.45,.07-1.72,0-3.44,.04-5.16,.18-6.21,5.24-11.34,11.45-11.51,3.48-.1,6.97-.1,10.46,0,3.13,.08,5.8,1.34,8.11,3.69-.25,.23-.41,.38-.57,.52-4.73,3.92-7.46,8.9-7.78,15.06-.19,3.52-.14,7.05-.15,10.58,0,1,.55,1.68,1.49,2.15,17.14,8.48,34.27,8.51,51.42,.03,1.15-.57,1.57-1.4,1.55-2.64-.05-2.65-.07-5.3-.04-7.95,.07-6.59-2.22-12.15-7.14-16.58-.42-.37-.85-.74-1.27-1.1,1.7-1.96,4.18-3.47,6.81-3.59,4.18-.18,8.39-.33,12.56-.03,5.34,.38,9.55,4.46,10.36,9.76,.32,2.12,.14,4.31,.27,6.47,.06,.98-.19,1.58-1.18,1.86-3.25,.94-6.51,1.87-9.72,2.91-.76,.25-1.65,.78-1.99,1.44-.27,.52-.01,1.72,.45,2.1,.58,.48,1.63,.68,2.41,.57,4.53-.65,8.8-2.17,12.89-4.21,.91-.45,1.39-1.13,1.38-2.2-.03-2.3,.01-4.59-.02-6.89Zm-85.15-16.27c-5.22,0-9.51-4.29-9.53-9.51-.02-5.26,4.32-9.62,9.58-9.63,5.27,0,9.61,4.34,9.6,9.61,0,5.26-4.33,9.53-9.65,9.53Zm18.63-9.56c0-7.32,6.18-13.5,13.49-13.51,7.33,0,13.52,6.15,13.55,13.46,.02,7.39-6.17,13.59-13.56,13.58-7.31-.01-13.49-6.2-13.48-13.52Zm36.37,34.3c0,.97,.16,5.83,.04,7.27-.04,.49-.44,1.16-.86,1.37-8.03,3.88-16.52,5.52-25.41,4.94-6.49-.42-12.69-2.02-18.54-4.89-.41-.2-.96-.69-.96-1.03,.05-3.65-.19-7.37,.41-10.94,1.27-7.54,8.2-13.13,15.86-13.23,4.37-.06,8.74-.05,13.1,0,9.05,.1,16.31,7.45,16.36,16.51Zm9.18-24.74c-5.21,0-9.52-4.31-9.53-9.51-.01-5.26,4.33-9.62,9.59-9.62,5.26,0,9.61,4.35,9.59,9.61-.02,5.28-4.33,9.53-9.65,9.52Z"></path></g></g></svg>