<svg xmlns="http://www.w3.org/2000/svg" id="Capa_2" viewBox="0 0 158.83 158.83"><defs><style>.cls-1{fill:#333;}.cls-2{fill:#e3ff00;}</style></defs><g id="Capa_1-2"><g><circle class="cls-2" cx="80.07" cy="79.11" r="77"></circle><path class="cls-1" d="M79.41,158.83c-10.72,0-21.12-2.1-30.91-6.24-9.46-4-17.95-9.73-25.24-17.02-7.29-7.29-13.02-15.79-17.02-25.24C2.1,100.54,0,90.13,0,79.41s2.1-21.12,6.24-30.91c4-9.46,9.73-17.95,17.02-25.24,7.29-7.29,15.79-13.02,25.24-17.02C58.29,2.1,68.69,0,79.41,0s21.12,2.1,30.91,6.24c9.46,4,17.95,9.73,25.24,17.02,7.29,7.29,13.02,15.79,17.02,25.24,4.14,9.79,6.24,20.19,6.24,30.91s-2.1,21.12-6.24,30.91c-4,9.46-9.73,17.95-17.02,25.24-7.29,7.29-15.79,13.02-25.24,17.02-9.79,4.14-20.19,6.24-30.91,6.24Zm0-155.14C37.66,3.69,3.69,37.66,3.69,79.41s33.97,75.73,75.73,75.73,75.73-33.97,75.73-75.73S121.17,3.69,79.41,3.69Z"></path><path class="cls-1" d="M48.06,129.56c-2.63-1.28-3.71-4.6-2.33-7.26,.7-1.35,1.87-1.92,3.36-1.92,4.07,0,8.13,0,12.2,0,4.52,0,9.04,0,13.63,0v-11.32c-.98,0-1.98,0-2.98,0-1.27,0-2.54,.01-3.81,0-1.78-.02-2.87-1.09-2.9-2.85-.02-.88-.02-1.76,0-2.63,.07-2.57,1.9-4.41,4.47-4.46,1.72-.04,3.44,0,5.22,0v-8.99c-.56,0-1.1,.02-1.65,0-2.91-.1-5.16-2.08-5.49-4.96-.63-5.43-1.2-10.86-1.79-16.29-.21-1.97-.46-3.94-.63-5.92-.29-3.21,1.91-5.84,5.11-6.05,1.45-.1,2.92-.02,4.45-.02v-7.57h-.98c-7.84,0-15.68,0-23.52,0-2.81,0-4.13,1.31-4.13,4.11,0,6.28-.01,12.56,.02,18.84,0,.49,.23,1.07,.55,1.44,1.05,1.22,1.56,2.62,1.57,4.2,.02,2.47,.02,4.94,0,7.42-.01,1.65-.53,3.11-1.69,4.34-.25,.27-.41,.72-.43,1.1-.06,1.07,0,2.15-.03,3.22-.06,2.25-1.74,3.93-3.89,3.93-2.07,0-3.78-1.68-3.89-3.85-.03-.58-.04-1.17,0-1.76,.08-1.34-.07-2.53-.97-3.7-.61-.78-.89-1.97-.94-3-.13-2.63-.07-5.27-.04-7.9,.02-1.48,.53-2.78,1.49-3.93,.28-.33,.43-.86,.43-1.31,.03-6.38,.02-12.75,.02-19.13,0-7,4.84-11.83,11.84-11.84,7.84,0,15.68,0,23.52,0,.35,0,.7,0,1.1,0v-3.69c-1.71-.26-3.01-1.09-3.61-2.76-.95-2.64,.97-5.37,3.87-5.44,2.89-.07,5.79-.05,8.69,0,2.2,.03,3.92,1.59,4.15,3.65,.24,2.06-1.1,3.87-3.28,4.43-.18,.05-.37,.1-.57,.15v3.66c.4,0,.78,0,1.15,0,7.97,0,15.94-.02,23.91,0,5.45,.02,9.89,3.53,11.1,8.77,.22,.97,.29,2,.3,3,.03,6.31,0,12.62,.04,18.93,0,.52,.25,1.12,.59,1.53,1,1.21,1.52,2.57,1.53,4.12,.02,2.5,.02,5.01,0,7.51-.02,1.65-.55,3.11-1.72,4.33-.24,.25-.38,.67-.4,1.02-.05,1.07,0,2.15-.03,3.22-.06,2.3-1.76,4-3.94,3.98-2.1-.02-3.78-1.76-3.85-4-.02-.49-.02-.98,0-1.46,.05-1.39,.01-2.67-.99-3.9-.63-.78-.87-2.04-.92-3.1-.13-2.53-.06-5.07-.04-7.61,.01-1.55,.5-2.92,1.54-4.11,.23-.26,.39-.68,.39-1.03,.02-6.6,.03-13.21,0-19.81,0-2.07-1.44-3.57-3.47-3.57-8.3-.03-16.59,0-24.89,0-.06,0-.12,.03-.26,.05v7.45c1.15,0,2.28,0,3.41,0,4.17,.03,6.44,2.51,6.1,6.64-.06,.78-.14,1.56-.24,2.33-.14,1.06-.76,1.61-1.66,1.5-.85-.1-1.3-.71-1.24-1.77,.05-.88,.18-1.75,.25-2.62,.17-1.92-.85-3.11-2.83-3.13-3.19-.04-6.38-.01-9.56-.01-2.31,0-4.62,0-6.93,0-2.48,.01-3.46,1.05-3.2,3.51,.75,7.05,1.53,14.09,2.32,21.13,.22,1.97,1.18,2.77,3.18,2.78,3.84,0,7.68,0,11.52,0,1.98,0,2.91-.82,3.15-2.81,.34-2.81,.62-5.62,.95-8.43,.06-.47,.11-1.08,.42-1.35,.37-.33,1.02-.54,1.52-.49,.74,.08,1.06,.72,1,1.45-.13,1.59-.3,3.17-.46,4.76-.16,1.45-.34,2.91-.5,4.36-.4,3.5-2.54,5.43-6.03,5.45-.36,0-.71,0-1.15,0v8.98c1.46,0,2.95,0,4.43,0,3.58,0,5.25,1.68,5.25,5.25,0,.46,0,.91,0,1.37,0,2.35-.97,3.33-3.29,3.34-2.05,0-4.1,0-6.15,.01-.06,0-.12,.03-.25,.06v11.25h1.15c8.1,0,16.2,0,24.3,0,2.85,0,4.15,1.32,4.15,4.19,0,.16-.01,.33,0,.49,.19,2.17-.63,3.72-2.73,4.49H48.06Zm31.51-2.93c2.18,0,4.36,0,6.54,0,7.84,0,15.68,0,23.52-.01,.39,0,1.08-.16,1.11-.32,.13-.85,.19-1.74,.03-2.58-.04-.22-.94-.39-1.44-.39-19.81-.02-39.63-.02-59.44-.02-.26,0-.58-.09-.77,.02-.33,.2-.66,.49-.83,.83-.13,.26-.03,.64-.03,.96q0,1.5,1.55,1.51c9.92,0,19.85,0,29.77,0Zm-4.61-82.15c-.23-.02-.36-.04-.49-.04-8.17,0-16.33,0-24.5,.01-.77,0-1.57,.1-2.31,.31-3.91,1.11-6.23,4.23-6.24,8.4-.02,5.92,0,11.84,0,17.76,0,.28,.03,.57,.05,.83h1.9c0-.4,0-.75,0-1.09,0-5.73,0-11.45,0-17.18,0-4.46,2.64-7.09,7.1-7.1,7.78,0,15.55,0,23.33,0h1.16v-1.91Zm9.27-.04v1.95h1.11c7.78,0,15.55,0,23.33,0,4.51,0,7.12,2.63,7.12,7.17,0,5.73,0,11.45,0,17.18,0,.35,0,.69,0,1.02h1.91c.02-.23,.04-.42,.04-.61,0-6.05,.01-12.1-.01-18.15,0-.77-.1-1.57-.31-2.31-1.1-3.91-4.23-6.23-8.4-6.24-8-.02-16.01,0-24.01,0h-.79Zm-16.07,61.62h22.84c0-.71,0-1.36,0-2.01-.01-1.53-.51-2.02-2.07-2.02-3.41,0-6.82,0-10.24,0-2.89,0-5.78,0-8.68,0-1.3,0-1.83,.55-1.86,1.84-.01,.71,0,1.42,0,2.19Zm-22.65-24.41c0-1.3,.03-2.6,0-3.9-.04-1.75-1.36-3.05-3.02-3.05-1.66,0-2.99,1.31-3.01,3.06-.03,2.56-.03,5.13,0,7.69,.02,1.76,1.31,3.07,2.98,3.09,1.7,.02,3.02-1.3,3.06-3.11,.03-1.27,0-2.53,0-3.8Zm74.38-.02c0-1.23,.01-2.47,0-3.7-.03-1.88-1.32-3.24-3.05-3.22-1.7,.02-2.97,1.35-2.99,3.18-.02,2.5-.02,5,0,7.5,.02,1.83,1.3,3.16,3,3.17,1.7,.01,3.01-1.32,3.04-3.13,.02-1.27,0-2.53,0-3.8Zm-38.72-25.13v-18.62h-3.2v18.62h3.2Zm-.02,63.86v-11.23h-3.17v11.23h3.17Zm-3.17-30.19v8.86h3.2v-8.86h-3.2Zm1.59-55.29c1.33,0,2.66,0,3.99,0,1.02,0,1.61-.45,1.55-1.2-.08-.9-.69-1.15-1.5-1.15-2.69,0-5.38,0-8.07,0-.81,0-1.43,.25-1.5,1.15-.06,.75,.53,1.18,1.55,1.19,1.33,0,2.66,0,3.99,0Zm-36.23,56.63h-1.93c0,.86-.1,1.69,.04,2.47,.07,.38,.62,.67,.95,1.01,.31-.31,.84-.59,.9-.95,.14-.81,.04-1.66,.04-2.52Zm72.46-.02c0,.89-.08,1.77,.04,2.62,.05,.33,.59,.84,.86,.82,.36-.04,.91-.48,.97-.82,.14-.84,.05-1.72,.05-2.62h-1.91Z"></path></g></g></svg>