<svg xmlns="http://www.w3.org/2000/svg" id="Capa_2" viewBox="0 0 158.83 158.83"><defs><style>.cls-1{fill:#333;}.cls-2{fill:#e3ff00;}</style></defs><g id="Capa_1-2"><g><circle class="cls-2" cx="79.41" cy="79.41" r="77"></circle><g><path class="cls-1" d="M79.41,158.83c-10.72,0-21.12-2.1-30.91-6.24-9.46-4-17.95-9.73-25.24-17.02-7.29-7.29-13.02-15.79-17.02-25.24C2.1,100.54,0,90.13,0,79.41s2.1-21.12,6.24-30.91c4-9.46,9.73-17.95,17.02-25.24,7.29-7.29,15.79-13.02,25.24-17.02C58.29,2.1,68.69,0,79.41,0s21.12,2.1,30.91,6.24c9.46,4,17.95,9.73,25.24,17.02,7.29,7.29,13.02,15.79,17.02,25.24,4.14,9.79,6.24,20.19,6.24,30.91s-2.1,21.12-6.24,30.91c-4,9.46-9.73,17.95-17.02,25.24-7.29,7.29-15.79,13.02-25.24,17.02-9.79,4.14-20.19,6.24-30.91,6.24Zm0-155.14C37.66,3.69,3.69,37.66,3.69,79.41s33.97,75.73,75.73,75.73,75.73-33.97,75.73-75.73S121.17,3.69,79.41,3.69Z"></path><g><path class="cls-1" d="M129.56,53.73c-1.1,5.72-4.29,10.59-6.5,15.86-.3,.7-.32,1.18,.13,1.85,7.72,11.62,4.04,27.46-7.99,34.49-.43,.25-.96,.48-1.45,.49-3.59,.04-7.18,.03-10.77,.02-1.06,0-1.73-.66-1.71-1.6,.02-.89,.67-1.48,1.69-1.53,.23-.01,.46,0,.69,0,3.04,0,6.07,.02,9.11-.02,.46,0,.98-.12,1.37-.36,7.38-4.57,11.2-13.48,9.54-22.16-1.63-8.47-8.46-15.29-16.92-16.86-9.96-1.85-19.46,3.12-23.58,12.35-.03,.06-.04,.12-.07,.18-.55,1.21-1.34,1.66-2.25,1.27-.94-.41-1.21-1.3-.63-2.48,.69-1.4,1.44-2.77,2.26-4.11,.33-.54,.39-.92,.11-1.5-1.67-3.54-3.34-7.08-4.93-10.65-4.48-10.06,1.15-21.2,11.9-23.53,1.14-.25,2.33-.32,3.5-.33,6.5-.03,12.99-.02,19.49-.01,8.64,.01,15.53,5.93,16.85,14.46,.03,.22,.12,.44,.18,.65v3.53Zm-14.84,9.7c1.39-3.01,2.81-5.91,4.07-8.87,1.92-4.51-1.2-9.2-6.1-9.29-.69-.01-1.38,.03-2.05-.04-.87-.09-1.45-.78-1.44-1.58,.02-.85,.65-1.47,1.59-1.51,.59-.03,1.18-.01,1.76,0,7.43,.04,12.05,7.26,8.98,14.04-1.25,2.76-2.55,5.5-3.82,8.26-.12,.26-.21,.53-.31,.77,1.03,.9,2,1.75,3.05,2.66,1.74-3.82,3.65-7.47,5.1-11.3,3.32-8.73-3.15-18.17-12.49-18.31-6.82-.1-13.65-.14-20.47,.02-5.8,.13-9.92,3.07-12.3,8.34-1.36,3.03-1.62,6.27-.42,9.36,1.54,3.97,3.44,7.8,5.2,11.75,1.11-.96,2.11-1.83,3.11-2.71-1.42-3.06-2.86-6.06-4.2-9.1-2.7-6.09,1.33-13.3,7.82-13.68,4.75-.28,9.53-.08,14.3-.08,.88,0,1.39,.52,1.51,1.38,.11,.82-.43,1.52-1.29,1.69-.35,.07-.71,.05-1.07,.05-4.21,0-8.42-.05-12.63,.03-4.34,.09-7.49,4.49-5.99,8.56,1.19,3.23,2.79,6.3,4.23,9.48,7.99-4.02,15.87-4.01,23.87,.09Z"></path><path class="cls-1" d="M58.55,103.78c.36-1.9,.78-4.37,1.31-6.81,.14-.64,.05-.9-.52-1.2-2.05-1.08-4.03-2.29-6.11-3.3-1.92-.94-2.65-2.4-2.44-4.44,.23-2.23,1.22-4.04,3.1-5.31,1.2-.81,2.44-.93,3.77-.17,2.26,1.3,4.59,2.48,6.85,3.78,.66,.38,.99,.24,1.45-.27,2.79-3.09,6.08-5.42,10.21-6.36,2.63-.6,5.18-.37,7.64,.78,2.72,1.27,5.41,2.61,8.17,3.76,4.75,1.99,7.15,5.72,8,10.57,1.76,10.11-3.53,21.53-12.39,26.74-4.19,2.46-8.55,2.99-13.06,.73-2.45-1.23-4.93-2.4-7.45-3.44-4.76-1.97-7.1-5.72-8.01-10.56-.24-1.28-.3-2.59-.5-4.5Zm12.65,4.82c.12,1.29,.18,2.43,.34,3.56,1.03,7.26,7.91,10.74,14.4,6.77,5.54-3.39,8.87-8.44,10.51-14.64,1.06-4.02,1.25-8.06-.41-11.99-1.56-3.7-4.84-5.77-8.44-5.42-2.05,.2-3.95,.83-5.66,2-6.98,4.78-10.26,11.56-10.75,19.72Zm13.21-24.32c-1.99-1.05-3.86-1.91-6.04-1.77-2.82,.18-5.26,1.3-7.38,3.06-6.19,5.16-9.25,11.83-9.17,19.88,.03,2.82,.8,5.47,2.6,7.74,1.31,1.66,3.12,2.5,5.15,3.26-4.67-11.69,2.75-28.01,14.84-32.17Zm-21.05,4.98c-2.39-1.31-4.76-2.61-7.13-3.9-.06-.03-.12-.08-.18-.08-1.01,.08-1.4,.87-1.73,1.64-.35,.81-.94,1.89,0,2.48,2.19,1.38,4.53,2.54,6.85,3.81,.75-1.35,1.46-2.62,2.2-3.94Z"></path><path class="cls-1" d="M39.91,100.24c-.39-1.96-.79-3.93-1.16-5.91-.08-.44-.09-.91-.05-1.37,.08-.93,.75-1.51,1.63-1.47,.83,.03,1.35,.61,1.49,1.52,.26,1.73,.37,3.53,.92,5.17,1.86,5.57,6.81,7.7,12.21,5.41,1.13-.48,2.02-.24,2.41,.65,.4,.91-.02,1.73-1.16,2.21-3.58,1.48-7.13,1.63-10.7-.09-2.58-1.25-5.17-2.5-7.81-3.6-4.75-1.97-7.18-5.68-8.04-10.54-1.86-10.49,3.93-22.39,13.32-27.39,3.71-1.97,7.57-2.11,11.42-.45,3.02,1.31,6.02,2.66,8.96,4.15,4.41,2.23,6.81,5.93,7.39,10.82,.11,.97-.5,1.72-1.38,1.81-.91,.09-1.6-.46-1.72-1.46-.23-2.06-.91-3.93-2.2-5.56-2.51-3.16-5.9-4.17-9.79-2.87-3.61,1.2-6.31,3.61-8.58,6.56-2.19,2.86-3.7,6.05-4.55,9.56-.05,.19-.09,.38-.14,.57-.29,1.08-1.08,1.64-1.98,1.4-.88-.23-1.33-1.06-1.07-2.1,2.13-8.7,6.72-15.41,15.34-18.84,.11-.04,.21-.13,.37-.24-4-2.27-7.95-2.53-11.74,.14-8.29,5.82-11.85,13.8-10.52,23.86,.51,3.86,3.37,6.92,7.15,8.07Z"></path><path class="cls-1" d="M102.8,73.41c6.03,.12,11.07,4.88,11.3,10.74,.25,6.32-4.2,11.5-10.37,12.07-.26,.02-.52,.04-.78,.02-.9-.05-1.57-.73-1.56-1.56,0-.8,.62-1.42,1.47-1.56,.9-.14,1.83-.22,2.67-.51,3.56-1.24,5.67-4.61,5.42-8.49-.23-3.52-2.93-6.54-6.57-7.34-3.5-.77-7.19,.96-8.93,4.18-.06,.11-.12,.23-.18,.35-.57,1.1-1.4,1.47-2.27,1.02-.84-.44-1.07-1.32-.56-2.36,1.63-3.31,4.25-5.39,7.83-6.22,.82-.19,1.68-.22,2.51-.33Z"></path></g></g></g></g></svg>