<svg xmlns="http://www.w3.org/2000/svg" id="Capa_2" viewBox="0 0 158.83 158.83"><defs><style>.cls-1{fill:#333;}</style></defs><g id="Capa_1-2"><g><path class="cls-1" d="M79.41,158.83c-10.72,0-21.12-2.1-30.91-6.24-9.46-4-17.95-9.73-25.24-17.02-7.29-7.29-13.02-15.79-17.02-25.24C2.1,100.54,0,90.13,0,79.41s2.1-21.12,6.24-30.91c4-9.46,9.73-17.95,17.02-25.24,7.29-7.29,15.79-13.02,25.24-17.02C58.29,2.1,68.69,0,79.41,0s21.12,2.1,30.91,6.24c9.46,4,17.95,9.73,25.24,17.02,7.29,7.29,13.02,15.79,17.02,25.24,4.14,9.79,6.24,20.19,6.24,30.91s-2.1,21.12-6.24,30.91c-4,9.46-9.73,17.95-17.02,25.24-7.29,7.29-15.79,13.02-25.24,17.02-9.79,4.14-20.19,6.24-30.91,6.24Zm0-155.14C37.66,3.69,3.69,37.66,3.69,79.41s33.97,75.73,75.73,75.73,75.73-33.97,75.73-75.73S121.17,3.69,79.41,3.69Z"></path><path class="cls-1" d="M140.66,84.69c-.72,2.28-1.77,4.38-4.08,5.37-1.22,.52-2.61,.66-3.93,.92-.42,.08-.86,.01-1.44,.01,0,1.63,.02,3.15,0,4.66-.08,4.6-2.02,8.11-6.19,10.24-1.92,.98-4.01,1.13-6.11,1.04-.83-.04-1.26,.19-1.58,1.04-1.48,4-5.8,6.76-9.72,6.32-5.07-.57-8.61-3.79-9.27-8.47-.11-.79-.14-1.6-.14-2.4,0-9.29,0-18.58,0-27.87v-1.48H59.66v10.23h1.47c10.13,0,20.27,0,30.4,0,.56,0,1.14,.02,1.67,.16,.85,.22,1.23,.88,1.21,1.73-.03,.85-.48,1.46-1.33,1.63-.51,.1-1.04,.09-1.56,.09-10.13,0-20.27,0-30.4,0h-1.53c0,.58,0,1.01,0,1.45,0,4.91,.02,9.81,0,14.72-.03,4.81-2.76,8.48-7.23,9.83-4.75,1.43-10.08-1.11-11.84-5.76-.37-.99-.86-1.26-1.83-1.2-3.97,.21-7.35-1.01-9.86-4.24-1.63-2.09-2.23-4.5-2.26-7.1-.02-1.48,0-2.96,0-4.62-.77,0-1.44,.03-2.11,0-3.99-.18-7.11-3.13-7.29-7.12-.15-3.13-.14-6.28,0-9.41,.17-4,3.24-6.94,7.25-7.16,.67-.04,1.35,0,2.16,0,0-1.64-.02-3.11,0-4.59,.07-4.6,1.96-8.12,6.13-10.28,1.92-.99,4-1.18,6.1-1.07,.89,.04,1.34-.19,1.67-1.08,1.46-3.94,5.73-6.68,9.62-6.29,5,.51,8.62,3.71,9.32,8.28,.12,.79,.17,1.6,.17,2.4,.02,4.75,0,9.49,0,14.24,0,.43,0,.87,0,1.38h38.53c.02-.44,.05-.87,.05-1.29,0-4.95-.03-9.89,.01-14.84,.04-4.8,2.77-8.44,7.27-9.79,4.74-1.43,10.05,1.15,11.82,5.82,.34,.91,.77,1.22,1.73,1.17,4.02-.23,7.44,.99,9.97,4.27,1.62,2.1,2.2,4.51,2.23,7.1,.02,1.44,0,2.89,0,4.54,.66,0,1.24-.02,1.83,0,3.67,.13,6.28,2.14,7.37,5.66,.07,.23,.17,.44,.26,.66v11.1Zm-100.93,18.49c0-.55,0-1.03,0-1.5,0-10.9,0-21.79,0-32.69,0-.44-.01-.89,.04-1.32,.11-.92,.66-1.46,1.57-1.55,.97-.09,1.64,.37,1.87,1.33,.12,.5,.13,1.03,.14,1.55,0,11.46,0,22.92,.01,34.38,0,.84,0,1.71,.19,2.51,.75,3.07,3.67,5.13,6.63,4.78,3.48-.41,5.77-2.96,5.77-6.56,.02-16.65,.02-33.29,0-49.94,0-3.76-2.69-6.55-6.25-6.6-3.52-.05-6.26,2.74-6.35,6.49-.04,1.77,.01,3.54-.02,5.31-.02,1.44-.69,2.24-1.81,2.24-1.14,0-1.78-.76-1.8-2.22-.02-1.44,0-2.87,0-4.28-5.57-1-9.54,2.26-9.55,7.73-.01,10.86-.01,21.71,0,32.57,0,.88,.08,1.78,.3,2.62,1.02,3.86,4.63,5.88,9.24,5.14Zm74.68-23.91c0-6.95,0-13.91,0-20.86,0-1.73,.05-3.46-.07-5.18-.23-3.43-3.6-6.07-7.01-5.57-3.44,.51-5.54,3.04-5.54,6.76,0,16.48,0,32.96,0,49.44,0,.4,0,.81,.04,1.2,.36,3.52,3.68,6.09,7.16,5.55,3.35-.53,5.4-3.04,5.4-6.74,.02-8.2,0-16.4,0-24.6Zm3.7-24.18v48.12c5.82,.8,9.46-2.33,9.47-8.05,0-10.73,0-21.46,0-32.19,0-5.58-3.87-8.82-9.46-7.88ZM26.48,87.54v-16.6c-.43-.02-.78-.05-1.14-.05-3.08,0-4.61,1.5-4.62,4.55,0,2.61-.01,5.23,0,7.84,.01,1.67,.7,3.05,2.26,3.66,1.04,.41,2.24,.4,3.49,.6Zm104.8-16.54v16.28c4.05,.46,5.75-1.03,5.75-4.95,0-2.25,0-4.5,0-6.75,0-.52,0-1.05-.11-1.56-.53-2.39-2.46-3.43-5.64-3.02Z"></path></g></g></svg>