<svg xmlns="http://www.w3.org/2000/svg" id="Capa_2" viewBox="0 0 158.83 158.83"><defs><style>.cls-1{fill:#333;}</style></defs><g id="Capa_1-2"><g><path class="cls-1" d="M79.41,158.83c-10.72,0-21.12-2.1-30.91-6.24-9.46-4-17.95-9.73-25.24-17.02-7.29-7.29-13.02-15.79-17.02-25.24C2.1,100.54,0,90.13,0,79.41s2.1-21.12,6.24-30.91c4-9.46,9.73-17.95,17.02-25.24,7.29-7.29,15.79-13.02,25.24-17.02C58.29,2.1,68.69,0,79.41,0s21.12,2.1,30.91,6.24c9.46,4,17.95,9.73,25.24,17.02,7.29,7.29,13.02,15.79,17.02,25.24,4.14,9.79,6.24,20.19,6.24,30.91s-2.1,21.12-6.24,30.91c-4,9.46-9.73,17.95-17.02,25.24-7.29,7.29-15.79,13.02-25.24,17.02-9.79,4.14-20.19,6.24-30.91,6.24Zm0-155.14C37.66,3.69,3.69,37.66,3.69,79.41s33.97,75.73,75.73,75.73,75.73-33.97,75.73-75.73S121.17,3.69,79.41,3.69Z"></path><g><path class="cls-1" d="M129.16,105.04c-1.5-4.78-4.38-8.49-8.73-11.03-.48-.28-.71-.53-.56-1.16,.32-1.34,.52-2.71,.76-4.07,.98-5.51,1.99-11.01,2.9-16.52,.18-1.09,.47-1.74,1.57-2.25,2.39-1.1,3.75-3.7,3.49-6.24-.29-2.78-1.69-5-4.39-5.59-2.08-.45-3.08-1.45-3.67-3.25-.03-.09-.1-.17-.15-.26-2.46-4.09-4.91-8.18-7.4-12.25-.39-.64-.34-1.01,.2-1.48,.65-.56,1.23-1.19,1.82-1.81,1.63-1.72,1.66-3.94,.04-5.66-.95-1.01-1.93-1.99-2.93-2.93-1.73-1.64-3.95-1.67-5.65,0-4.08,4.02-8.14,8.07-12.16,12.15-1.71,1.73-1.66,3.96,.03,5.73,.91,.95,1.85,1.88,2.8,2.79,1.83,1.75,4.05,1.73,5.86-.07,.46-.45,.81-1.01,1.31-1.63,1.76,2.88,3.31,5.42,4.98,8.16h-1.48c-11.07,0-22.14,0-33.2,0-.62,0-1.25,.03-1.87,.09-3.99,.36-6.74,4.35-5.65,8.2,.88,3.09,3.36,4.87,6.83,4.87,12.48,0,24.97,0,37.45,0h1.21c-.03,.26-.04,.42-.07,.58-1.2,6.6-2.4,13.21-3.64,19.8-.05,.29-.51,.66-.83,.72-9.69,1.88-19.38,3.72-29.07,5.59-7.69,1.48-15.37,2.98-23.05,4.48-1.16,.23-1.71,.9-1.55,1.77,.18,.92,.96,1.33,2.16,1.1,16.41-3.16,32.82-6.32,49.23-9.47,1.87-.36,3.76-.95,5.63-.92,10.01,.14,17.38,9.49,15.33,19.28-1.57,7.5-8.23,12.78-16.26,12.79-22.89,.02-45.79,.01-68.68-.02-1.16,0-2.37-.21-3.49-.53-3.81-1.1-6.58-4.96-6.47-8.84,.12-4.27,2.95-7.86,7.04-8.81,2.21-.51,4.45-.9,6.67-1.34,1.58-.31,3.17-.6,4.74-.93,.77-.16,1.32-.7,1.17-1.46-.1-.51-.6-1.03-1.06-1.34-.28-.19-.83-.06-1.25,.02-3.43,.64-6.85,1.3-10.28,1.96-5.6,1.08-9.84,5.98-10,11.55-.21,7.01,5.33,12.69,12.54,12.7,23.09,.03,46.18,.04,69.27,0,8.43-.02,15.42-4.96,18.27-12.78,.51-1.41,.75-2.92,1.11-4.38v-3.36c-.28-1.31-.45-2.66-.85-3.94Zm-28.3-55.97c-.22,.22-.53,.35-.83,.54-.3-.17-.59-.28-.79-.47-.95-.92-1.87-1.86-2.8-2.79-.55-.54-.55-1.08,0-1.63,4.01-4,8.01-8.01,12.02-12.02,.55-.55,1.08-.55,1.63,0,.91,.91,1.82,1.82,2.73,2.72,.57,.57,.59,1.12,0,1.71-3.99,3.98-7.96,7.97-11.95,11.94Zm6.1-.91c-.14-.24-.18-.74-.03-.91,1.07-1.16,2.2-2.26,3.43-3.49,2.81,4.65,5.53,9.14,8.41,13.9-2.16,0-3.95,.02-5.74-.02-.21,0-.48-.31-.62-.54-1.83-2.97-3.65-5.94-5.44-8.94Zm-9.24,19.71c-8,0-16,0-24,0-2.09,0-3.5-1.08-3.87-2.94-.4-1.96,.95-3.9,2.93-4.2,.42-.06,.85-.09,1.28-.09,15.77,0,31.53,0,47.3,0,2.19,0,3.53,.81,4.09,2.43,.8,2.33-.83,4.72-3.33,4.78-1.91,.05-3.82,.01-5.73,.01-6.22,0-12.44,0-18.66,0Zm14.14,23.5c1.24-6.8,2.49-13.63,3.74-20.49h5.27c-1.31,7.2-2.61,14.32-3.9,21.43-1.72-.32-3.35-.62-5.11-.94Z"></path><path class="cls-1" d="M94.7,119.43c-.95,0-1.57,.59-1.61,1.4-.04,.77,.59,1.43,1.49,1.54,.29,.04,.59,.02,.89,.02,3.39,0,6.78,.02,10.18,0,2.34-.02,4.69,.06,7-.18,5.83-.6,10.39-6.05,10.22-12.01-.17-6.02-4.96-11.1-10.8-11.53-2.02-.15-3.89,.41-5.83,.8-11.77,2.35-23.56,4.63-35.34,6.91-10.3,2-20.6,3.97-30.9,5.96-1.46,.28-2.57,1.11-3.34,2.4-1.86,3.12,.12,7.68,4.89,7.67,15.48-.04,30.96-.01,46.44-.02,.36,0,.73-.03,1.07-.13,.73-.21,1.08-.75,1.01-1.5-.07-.74-.51-1.21-1.26-1.3-.39-.05-.79-.03-1.18-.03-13.54,0-27.07,0-40.61,0h-1.18c.08-.92,.27-1.77,.19-2.6-.07-.83-.41-1.63-.65-2.48,18.56-3.61,37.16-7.22,55.88-10.86-3.35,5.79-2.77,10.99,1.75,15.9-.33,.02-.52,.03-.71,.03-2.54,0-5.07-.01-7.61,.01Zm-53.66-.04c-1.13,0-2.14-1.02-2.12-2.14,.03-1.1,1-2.06,2.1-2.07,1.11,0,2.07,.93,2.1,2.05,.03,1.15-.93,2.16-2.08,2.17Zm61.06-9.28c.17-4.64,4.39-8.67,8.93-8.52,5.03,.16,9.02,4.17,8.86,8.98-.17,5.2-4.16,8.86-9.02,8.81-5.01-.05-8.95-4.31-8.77-9.27Z"></path></g></g></g></svg>