<svg xmlns="http://www.w3.org/2000/svg" id="Capa_2" viewBox="0 0 34.19 43.97"><defs><style>.cls-1{fill:#e3ff00;}</style></defs><g id="Capa_1-2"><g><path class="cls-1" d="M17.09,43.97h0c-.43,0-.83-.18-1.12-.49-.65-.7-15.97-17.3-15.97-26.39S7.67,0,17.09,0s17.09,7.67,17.09,17.09-15.32,25.69-15.97,26.39c-.29,.31-.69,.49-1.12,.49Zm0-40.91c-7.74,0-14.04,6.3-14.04,14.04,0,6.04,9.28,17.72,14.04,23.07,4.76-5.36,14.04-17.04,14.04-23.07,0-7.74-6.3-14.04-14.04-14.04Z"></path><path class="cls-1" d="M17.09,24.04c-4.24,0-7.7-3.45-7.7-7.7s3.45-7.7,7.7-7.7,7.7,3.45,7.7,7.7-3.45,7.7-7.7,7.7Zm0-12.33c-2.56,0-4.64,2.08-4.64,4.64s2.08,4.64,4.64,4.64,4.64-2.08,4.64-4.64-2.08-4.64-4.64-4.64Z"></path></g></g></svg>