<svg xmlns="http://www.w3.org/2000/svg" id="Capa_2" viewBox="0 0 182.19 182.19"><defs><style>.cls-1{fill:#333;}.cls-2{fill:none;}.cls-3{fill:#e3ff00;}</style></defs><g id="Capa_1-2"><g><circle class="cls-3" cx="91.09" cy="91.09" r="77"></circle><rect class="cls-2" width="182.19" height="182.19"></rect><g><path class="cls-1" d="M91.09,170.51c-10.72,0-21.12-2.1-30.91-6.24-9.46-4-17.95-9.73-25.24-17.02-7.29-7.29-13.02-15.79-17.02-25.24-4.14-9.79-6.24-20.19-6.24-30.91s2.1-21.12,6.24-30.91c4-9.46,9.73-17.95,17.02-25.24,7.29-7.29,15.79-13.02,25.24-17.02,9.79-4.14,20.19-6.24,30.91-6.24s21.12,2.1,30.91,6.24c9.46,4,17.95,9.73,25.24,17.02,7.29,7.29,13.02,15.79,17.02,25.24,4.14,9.79,6.24,20.19,6.24,30.91s-2.1,21.12-6.24,30.91c-4,9.46-9.73,17.95-17.02,25.24-7.29,7.29-15.79,13.02-25.24,17.02-9.79,4.14-20.19,6.24-30.91,6.24Zm0-155.14C49.34,15.36,15.36,49.34,15.36,91.09s33.97,75.73,75.73,75.73,75.73-33.97,75.73-75.73S132.85,15.36,91.09,15.36Z"></path><path class="cls-1" d="M132.1,127.66c-4.97,0-9.95,0-14.92,0h-1.01v-59.62h2.92c0,2.5-.02,4.92,0,7.35,.02,2.21,1.42,4.02,3.57,4.38,1.08,.18,2.25,.2,3.33-.01,2.27-.44,3.33-2.08,3.61-4.33,.53,0,1.03,.01,1.52,0,2.41-.08,4.35-1.94,4.37-4.34,.04-5.07,.04-10.13,0-15.2-.02-2.39-1.98-4.26-4.38-4.33-.49-.01-.99,0-1.51,0-.29-2.36-1.45-3.96-3.8-4.39-.96-.18-2-.15-2.97,0-2.17,.32-3.69,2.15-3.74,4.36-.02,.68,0,1.37,0,2.05,0,1.79,0,3.58,0,5.38h-2.99c0-1.96,.02-3.85,0-5.74-.02-1.82-1.3-3.1-3.12-3.14-.75-.02-1.49,0-2.24,0-2.43,0-3.59,1.16-3.59,3.61,0,1.76,0,3.52,0,5.28h-32.83c0-1.96,.02-3.85,0-5.75-.02-1.82-1.3-3.09-3.12-3.14-.75-.02-1.49,0-2.24,0-2.43,0-3.59,1.17-3.59,3.61,0,1.76,0,3.52,0,5.27h-2.98c0-1.28,0-2.49,0-3.7,0-1.24,.02-2.49,0-3.73-.04-2.15-1.45-3.94-3.56-4.3-1.08-.19-2.25-.21-3.33,0-2.26,.45-3.34,2.06-3.62,4.34-.46,0-.89,0-1.32,0-2.67,.03-4.58,1.93-4.58,4.61-.02,4.88-.02,9.76,0,14.64,0,2.72,1.92,4.6,4.66,4.63,.42,0,.85,0,1.26,0,.44,3.04,2.11,4.35,5.06,4.51,3.44,.18,5.68-2.04,5.46-5.48-.14-2.13-.03-4.27-.03-6.43h2.95v59.63h-1.12c-5.04,0-10.07,0-15.11,0-1.85,0-3.1,1.26-3.13,3.09-.01,.71,0,1.43,0,2.14,0,2.66,1.06,3.71,3.73,3.71,27.36,0,54.71,0,82.07,0,.25,0,.5,0,.75,0,1.69-.06,2.93-1.28,2.98-2.96,.03-.87,0-1.74,0-2.61,0-2.2-1.19-3.38-3.41-3.38Zm-2.51-73.11c.56,0,1.08-.06,1.59,.01,.86,.11,1.33,.66,1.34,1.52,.01,4.93,.02,9.87,0,14.8,0,.94-.58,1.49-1.51,1.55-.46,.03-.91,0-1.42,0v-17.89Zm-7.51,8.85c0-3.79,0-7.59,0-11.38,0-1.47,.49-1.95,1.96-1.96,.22,0,.44,0,.65,0,1.34,.01,1.86,.53,1.86,1.86,0,5.04,0,10.07,0,15.11,0,2.67,0,5.35,0,8.02,0,1.34-.53,1.85-1.86,1.87-.28,0-.56,0-.84,0-1.22-.02-1.77-.55-1.77-1.77,0-3.92,0-7.83,0-11.75Zm-70.21,9.05c-.41,0-.78,0-1.14,0-1.25-.02-1.77-.56-1.77-1.86,0-3.88,0-7.76,0-11.64,0-.84,0-1.68,0-2.51,0-1.39,.52-1.89,1.92-1.89,.31,0,.62,0,.99,0v17.91Zm7.53,2.61c0,1.34-.53,1.85-1.86,1.87-.28,0-.56,0-.84,0-1.22-.02-1.76-.55-1.77-1.77,0-3.92,0-7.83,0-11.75,0-3.79,0-7.59,0-11.38,0-1.46,.49-1.95,1.96-1.96,.22,0,.44,0,.65,0,1.34,.01,1.86,.53,1.86,1.86,0,5.04,0,10.07,0,15.11,0,2.67,0,5.35,0,8.02Zm50.84-21.9h2.85v5.82h-2.85v-5.82Zm-41.78-.02h2.81v5.84h-2.81v-5.84Zm-6,11.81v-2.87h56.59v2.87H62.47Zm50.62,3.08v59.57h-2.87v-59.57h2.87Zm-22.43,35.77c-2.83,0-5.66,0-8.49,0-1.34,0-1.85-.53-1.86-1.86,0-.84-.02-1.68,0-2.52,.03-.99,.58-1.57,1.58-1.58,5.91-.02,11.81-.01,17.72,0,.99,0,1.55,.58,1.58,1.58,.03,.87,.02,1.74,0,2.61-.02,1.22-.55,1.77-1.77,1.77-2.92,.01-5.84,0-8.77,0Zm1.52,3.06v20.77h-2.88v-20.77h2.88Zm-17.79,11.8v-2.9h11.81v2.9h-11.81Zm11.81,3.1v5.85h-11.82v-5.85h11.82Zm-11.82-9.07v-44.65h32.72v44.66h-11.82v-5.91c1.21,0,2.44,0,3.67,0,3.55,0,5.23-1.7,5.23-5.27,0-.75,.01-1.49,0-2.24-.06-2.46-1.95-4.4-4.39-4.42-6.03-.03-12.06-.03-18.09,0-2.4,.01-4.3,1.95-4.37,4.34-.03,1.06-.03,2.11,0,3.17,.06,2.45,1.95,4.35,4.41,4.4,1.48,.03,2.97,0,4.48,0,.03,.2,.06,.32,.06,.44,0,1.8,0,3.6,0,5.47h-11.89Zm20.9,9.09h11.82v5.85h-11.82v-5.85Zm.03-3.11v-2.87h11.82v2.87h-11.82Zm-24.02-50.62v59.57h-2.87v-59.57h2.87Zm61.2,65.54H49.03v-2.88h83.45v2.88Z"></path></g></g></g></svg>