<svg xmlns="http://www.w3.org/2000/svg" xmlns:cc="http://creativecommons.org/ns#" xmlns:dc="http://purl.org/dc/elements/1.1/" xmlns:rdf="http://www.w3.org/1999/02/22-rdf-syntax-ns#" width="123.47mm" height="20.863mm" viewBox="0 0 466.67 78.852"><defs><clipPath id="a"><path transform="translate(-1540.2 -1020.9)" d="m0 1080h1920v-1080h-1920z"></path></clipPath></defs><metadata></metadata><path transform="matrix(1.3333 0 0 -1.3333 39.427 -.00082838)" d="m4.0453e-4 -6.2128e-4c-16.331 0-29.571-13.238-29.571-29.569s13.24-29.569 29.571-29.569c16.331 0 29.569 13.238 29.569 29.569s-13.238 29.569-29.569 29.569zm15.07-10.102c1.83 0 3.3135-1.483 3.3135-3.312 0-1.687-1.2631-3.0757-2.8931-3.2827h1.2744c0.536 0 0.94261-0.48321 0.84961-1.0122l-0.95801-5.4243-1.1338-6.4365-1.0093-5.7231c-0.073-0.413-0.43161-0.71338-0.84961-0.71338h-4.9893c-0.419 0-0.77761-0.30138-0.84961-0.71338l-0.8833-5.0112c-0.073-0.413-0.43161-0.71191-0.84961-0.71191h-4.6846c-0.536 0-0.94261 0.48321-0.84961 1.0122l0.95654 5.4243 1.0093 5.7231c0.073 0.413 0.43061 0.71338 0.84961 0.71338h4.9878c0.419 0 0.77761 0.29992 0.84961 0.71191l0.83203 4.7124c0.093 0.528-0.31408 1.0122-0.85107 1.0122h-7.5981c-0.537 0-0.94261 0.48421-0.84961 1.0122l0.83057 4.7124c0.073 0.412 0.43161 0.71191 0.84961 0.71191h12.226c-1.63 0.207-2.8916 1.5957-2.8916 3.2827 0 1.829 1.483 3.312 3.312 3.312zm300.27-1.1455c-2.804 0-5.0859-2.2809-5.0859-5.0859 0-2.804 2.2819-5.0845 5.0859-5.0845s5.0859 2.2805 5.0859 5.0845c0 2.805-2.2819 5.0859-5.0859 5.0859zm-35.388-0.05566c-0.436 0-0.78955-0.35355-0.78955-0.78955v-25.507c0-1.702 0.0893-3.0367 0.53028-4.0137 1.045-2.336 3.1631-2.606 4.6641-2.606 1.084 0 2.1187 0.20491 3.0747 0.60791 0.293 0.123 0.48193 0.40956 0.48193 0.72656v3.3574c0 0.266-0.13296 0.51318-0.35596 0.65918-0.223 0.146-0.50453 0.16899-0.74853 0.06299-0.625-0.274-1.2183-0.39551-1.5293-0.39551-0.598 0-0.72044 0.1134-0.77344 0.2124-0.038 0.138-0.11572 0.54112-0.11572 1.5161v25.38c0 0.436-0.35355 0.78955-0.78955 0.78955zm35.388-0.96094c2.243 0 4.0679-1.8253 4.0679-4.0693 0-2.243-1.8249-4.0679-4.0679-4.0679s-4.0693 1.8249-4.0693 4.0679c0 2.244 1.8263 4.0693 4.0693 4.0693zm-248.2-1.1792c-0.818 0-1.5773-0.32536-2.1943-0.94336-9e-3 -9e-3 -0.0169-0.01883-0.0249-0.02783-0.546-0.601-0.83496-1.378-0.83496-2.25 0-0.857 0.27986-1.6008 0.85986-2.2368 0.617-0.618 1.3763-0.94482 2.1943-0.94482 0.847 0 1.5999 0.33583 2.1519 0.94482 0.599 0.599 0.90234 1.3518 0.90234 2.2368 0 0.841-0.26552 1.5691-0.81152 2.2251-0.015 0.018-0.03134 0.03573-0.04834 0.05273-0.636 0.635-1.3543 0.94336-2.1943 0.94336zm247.89-0.14502c-0.286 0-1.5227-0.02976-1.5747-0.03076-0.07-2e-3 -0.12451-0.05891-0.12451-0.12891v-5.1826c0-0.071 0.0564-0.12744 0.12744-0.12744h0.71631c0.07 0 0.12744 0.05644 0.12744 0.12744v2.02h0.54199c0.287 0 0.45781-0.04857 0.63281-0.18457 0.154-0.114 0.28003-0.28976 0.45703-0.57275l0.82471-1.3301c0.023-0.038 0.0634-0.06006 0.1084-0.06006h0.86426c0.046 0 0.0883 0.02492 0.11132 0.06592 0.023 0.04 0.0211 0.08891-3e-3 0.12891l-1.0268 1.6655c-0.099 0.158-0.27383 0.40106-0.40283 0.53906-0.039 0.037-0.0824 0.07386-0.13037 0.10986 0.131 0.051 0.2487 0.11782 0.3457 0.19482 0.358 0.273 0.57275 0.70802 0.57275 1.166 0 0.663-0.33695 1.1968-0.89795 1.4268-0.385 0.156-1.016 0.17285-1.27 0.17285zm-237.51-0.69727c-0.12687 0.01313-0.25643-0.0042-0.37793-0.0542l-3.8174-1.5527c-0.298-0.121-0.49219-0.40996-0.49219-0.73096v-26.807c0-0.436 0.35355-0.78955 0.78955-0.78955h3.8174c0.436 0 0.78955 0.35355 0.78955 0.78955v16.83h4.5791c0.243 0 0.47209 0.11222 0.62109 0.30322 0.15 0.191 0.20302 0.44076 0.14502 0.67676l-0.75439 3.0615c-0.087 0.352-0.40311 0.59912-0.76611 0.59912h-3.8247v6.8892c0 0.263-0.13063 0.50778-0.34863 0.65478-0.109 0.0735-0.23348 0.11725-0.36035 0.13037zm237.49-0.24316c0.346 0 0.61861-0.0315 0.74561-0.0835 0.165-0.07 0.44238-0.24488 0.44238-0.62988 0-0.273-0.12126-0.46498-0.38526-0.60498-0.14299-0.08-0.38654-0.12305-0.68554-0.12305h-0.8291v1.4165c0.177 0.01 0.50691 0.0249 0.71191 0.0249zm-121.64-0.04687c-1.544 0-9.014-0.16099-9.331-0.16699-0.429-0.01-0.77198-0.36102-0.77198-0.79102v-27.896c0-0.436 0.35209-0.78955 0.78809-0.78955h3.9023c0.436 0 0.78956 0.35355 0.78956 0.78955v10.203h4.4546c2.571 0 5.0196 0.54082 6.7236 1.4868 2.689 1.524 4.4282 4.7408 4.4282 8.1958 0 3.249-1.1203 5.6444-3.3193 7.1104-1.762 1.216-4.4131 1.8589-7.6641 1.8589zm-148.7-0.167c-0.436 0-0.78955-0.35355-0.78955-0.78955v-27.898c0-0.436 0.35355-0.78955 0.78955-0.78955h3.8174c0.436 0 0.78955 0.35355 0.78955 0.78955v11.502h10.075c0.436 0 0.78955 0.35355 0.78955 0.78955v3.6929c0 0.435-0.35355 0.78808-0.78955 0.78808h-10.075v6.687h11.754c0.436 0 0.78955 0.35209 0.78955 0.78809v3.6504c0 0.436-0.35355 0.78955-0.78955 0.78955zm-58.348-1.9541h11.121c0.536 0 0.94261-0.48321 0.84961-1.0122l-0.83057-4.7109c-0.073-0.412-0.43061-0.71338-0.84961-0.71338h-11.121c-0.537 0-0.94407 0.48421-0.85108 1.0122l0.83203 4.7124c0.073 0.412 0.43061 0.71191 0.84961 0.71191zm82.734-3.1685c-0.12712 0.0125-0.2579-0.0052-0.37939-0.05566l-3.6489-1.5103c-0.295-0.122-0.48779-0.41049-0.48779-0.72949v-21.27c0-0.436 0.35355-0.78955 0.78955-0.78955h3.6489c0.436 0 0.78955 0.35355 0.78955 0.78955v22.78c0 0.264-0.1311 0.51025-0.3501 0.65625-0.11 0.0735-0.23469 0.11641-0.36182 0.12891zm123.98-0.02344c4.058 0 5.7144-1.0952 5.7144-3.7822 0-1.338-0.65723-2.6963-1.6362-3.3823-0.806-0.567-2.4566-0.90527-4.4136-0.90527h-3.9507v7.9702c1.187 0.036 3.4251 0.09961 4.2861 0.09961zm46.512-0.9375c-6.802 0-11.739-4.9533-11.739-11.78 0-6.946 4.6833-11.613 11.654-11.613 6.826 0 11.782 4.9373 11.782 11.739 0 6.971-4.7008 11.654-11.697 11.654zm-117.51-0.04102c-6.788 0-11.53-4.7763-11.53-11.613 0-7.131 4.5093-11.739 11.487-11.739 4.424 0 7.211 1.3862 9.145 2.5942 0.231 0.144 0.3706 0.3979 0.3706 0.6709v3.6489c0 0.289-0.15762 0.55534-0.41162 0.69434-0.253 0.138-0.56266 0.12477-0.80566-0.03223l-0.16992-0.1084c-1.947-1.26-3.7845-2.4492-7.7915-2.4492-3.482 0-6.0232 1.9518-6.4482 4.8398h15.76c0.40599 0 0.74515 0.30792 0.78515 0.71191 0.041 0.406 0.0469 1.3083 0.0469 2.0493 0 6.72-3.9025 10.733-10.438 10.733zm93.892 0c-6.788 0-11.528-4.7763-11.528-11.613 0-7.131 4.5079-11.739 11.486-11.739 4.424 0 7.211 1.3862 9.145 2.5942 0.231 0.144 0.37061 0.3979 0.37061 0.6709v3.6489c0 0.289-0.15762 0.55534-0.41162 0.69434-0.253 0.138-0.56267 0.12477-0.80567-0.03223l-0.16992-0.1084c-1.947-1.26-3.7845-2.4492-7.7915-2.4492-3.482 0-6.0232 1.9518-6.4482 4.8398h15.76c0.405 0 0.74515 0.30792 0.78515 0.71191 0.041 0.406 0.0469 1.3083 0.0469 2.0493 0 6.72-3.9025 10.733-10.438 10.733zm83.782 0c-6.788 0-11.53-4.7763-11.53-11.613 0-7.131 4.5093-11.739 11.487-11.739 4.424 0 7.2106 1.3862 9.1436 2.5942 0.231 0.144 0.37207 0.3979 0.37207 0.6709v3.6489c0 0.289-0.15909 0.55534-0.41309 0.69434-0.254 0.138-0.5622 0.12477-0.8042-0.03223l-0.16992-0.1084c-1.946-1.26-3.784-2.4492-7.793-2.4492-3.481 0-6.0218 1.9518-6.4468 4.8398h15.76c0.406 0 0.74562 0.30792 0.78662 0.71191 0.04 0.407 0.0439 1.3083 0.0439 2.0493 0 6.72-3.901 10.733-10.437 10.733zm-156.4-0.08496c-5.407 0-8.5078-2.4271-8.5078-6.6621 0-4.009 2.8981-5.5952 5.4331-6.5332l2.6001-0.92285c2.559-0.911 3.041-1.2254 3.041-1.9834 0-0.71 1e-3 -2.1899-3.5728-2.1899-2.428 0-4.4943 0.59619-6.9053 1.9922-0.244 0.142-0.54456 0.141-0.78956 0-0.244-0.141-0.3955-0.40208-0.3955-0.68408v-3.8584c0-0.295 0.16427-0.56566 0.42627-0.70166 2.142-1.112 4.8486-1.7241 7.6216-1.7241 5.754 0 9.0542 2.5506 9.0542 6.9976 0 3.959-2.7124 5.3049-6.2534 6.6519l-2.4053 0.92871c-2.35 0.855-2.4595 1.1964-2.4595 1.7754 0 0.615-7e-4 1.8955 3.1963 1.8955 2.371 0 4.08-0.57455 5.915-1.4355 0.245-0.115 0.53079-0.09666 0.75879 0.04834s0.36621 0.3965 0.36621 0.6665v3.7749c0 0.326-0.1999 0.61982-0.5039 0.73682-2.049 0.792-4.4006 1.2275-6.6196 1.2275zm19.257 0c-5.408 0-8.5093-2.4271-8.5093-6.6621 0-4.009 2.8996-5.5952 5.4346-6.5332l2.6001-0.92285c2.558-0.911 3.041-1.2254 3.041-1.9834 0-0.71-2.2e-4 -2.1899-3.5742-2.1899-2.428 0-4.4928 0.59619-6.9038 1.9922-0.244 0.142-0.54455 0.141-0.78955 0s-0.39404-0.40208-0.39404-0.68408v-3.8584c0-0.295 0.1638-0.56566 0.4248-0.70166 2.142-1.112 4.8486-1.7241 7.6216-1.7241 5.753 0 9.0527 2.5506 9.0527 6.9976 0 3.958-2.711 5.3049-6.252 6.6519l-2.4053 0.92871c-2.349 0.855-2.4595 1.1964-2.4595 1.7754 0 0.615 2.9e-4 1.8955 3.1963 1.8955 2.372 0 4.0805-0.57455 5.9165-1.4355 0.244-0.115 0.53033-0.09666 0.75733 0.04834 0.228 0.145 0.36621 0.3965 0.36621 0.6665v3.7749c0 0.326-0.19991 0.61982-0.50391 0.73682-2.049 0.792-4.4006 1.2275-6.6196 1.2275zm103.67-0.03223c-2.101 0-4.7292-0.80362-6.6782-2.5576v1.4326c0 0.436-0.35355 0.78955-0.78955 0.78955h-3.5654c-0.436 0-0.78955-0.35355-0.78955-0.78955v-30.792c0-0.436 0.35355-0.78809 0.78955-0.78809h3.7339c0.436 0 0.78955 0.35209 0.78955 0.78809v9.2021c1.356-0.293 2.6047-0.46728 4.1177-0.46728 5.589 0 12.117 3.2172 12.117 12.284 0 6.926-3.5451 10.898-9.7251 10.898zm-166.89-0.42919c-2.651 0-5.2601-1.0449-7.0151-2.6938v1.4429c0 0.436-0.35209 0.78955-0.78809 0.78955h-3.6504c-0.436 0-0.78955-0.35355-0.78955-0.78955v-20.766c0-0.436 0.35355-0.78955 0.78955-0.78955h3.7339c0.436 0 0.78955 0.35355 0.78955 0.78955v11.452c0 1.198 0.26334 2.1916 0.79834 2.9736 1.146 1.796 3.374 2.6133 4.957 2.6133 1.7 0 2.867-0.52929 3.479-1.5923 0.413-0.678 0.63867-1.9627 0.63867-3.6167v-11.83c0-0.436 0.35455-0.78955 0.78955-0.78955h3.6914c0.436 0 0.79101 0.35355 0.79101 0.78955v12.836c0 1.356-0.12665 3.8618-0.97265 5.4038-1.305 2.471-3.8092 3.7764-7.2422 3.7764zm22.654-4.2627c2.886 0 4.9148-1.5605 5.2778-3.9595h-11.095c0.621 2.464 2.7749 3.9595 5.8169 3.9595zm93.892 0c2.886 0 4.9148-1.5605 5.2778-3.9595h-11.095c0.62099 2.464 2.7749 3.9595 5.8169 3.9595zm83.782 0c2.886 0 4.9148-1.5605 5.2778-3.9595h-11.096c0.62 2.465 2.7764 3.9595 5.8184 3.9595zm-60.119-0.16846c4.676 0 6.3428-3.4492 6.3428-6.6782 0-3.324-1.9618-6.6782-6.3428-6.6782-3.904 0-6.4277 2.5887-6.4277 6.5947 0 3.12 1.6837 6.7617 6.4277 6.7617zm25.592-0.1582c3.674 0 5.4609-2.0338 5.4609-6.2168 0-6.292-4.8462-6.9712-6.9302-6.9712-1.889 0-3.0267 0.29035-3.9507 0.63135v7.2217c0 1.105 0.34801 2.3411 0.85401 3.0161 1.028 1.408 2.8209 2.3188 4.5659 2.3188zm-281.08-3.5669h11.121c0.536 0 0.94407-0.48467 0.85107-1.0137l-0.83203-4.7109c-0.073-0.412-0.43061-0.71192-0.84961-0.71192h-4.9878c-0.419 0-0.77661-0.30038-0.84961-0.71338l-0.8833-5.0112c-0.073-0.412-0.43161-0.71338-0.84961-0.71338h-4.686c-0.537 0-0.94261 0.48567-0.84961 1.0137l0.95654 5.4243 1.0093 5.7231c0.073 0.412 0.43161 0.71338 0.84961 0.71338z" clip-path="url(#a)" fill="#e3ff00"></path></svg>