<!DOCTYPE svg PUBLIC "-//W3C//DTD SVG 1.1//EN" "http://www.w3.org/Graphics/SVG/1.1/DTD/svg11.dtd">
<!-- Uploaded to: SVG Repo, www.svgrepo.com, Transformed by: SVG Repo Mixer Tools -->
<svg height="100px" width="100px" version="1.1" id="Layer_1" xmlns="http://www.w3.org/2000/svg" xmlns:xlink="http://www.w3.org/1999/xlink" viewBox="0 0 512 512" xml:space="preserve" fill="#000000">
<g id="SVGRepo_bgCarrier" stroke-width="0"/>
<g id="SVGRepo_tracerCarrier" stroke-linecap="round" stroke-linejoin="round"/>
<g id="SVGRepo_iconCarrier"> <g transform="translate(1 1)"> <g> <path style="fill:#FFE100;" d="M135.533,255h-25.6c-7.68,0-12.8-5.973-12.8-12.8v-26.453c0-5.973,5.12-11.947,12.8-11.947h26.453 c6.827,0,12.8,5.973,12.8,12.8v26.453C148.333,249.027,142.36,255,135.533,255"/> <path style="fill:#FFE100;" d="M408.6,314.733h-51.2c-11.947,0-21.333-9.387-21.333-21.333s9.387-21.333,21.333-21.333h51.2 c11.947,0,21.333,9.387,21.333,21.333S420.547,314.733,408.6,314.733"/> </g> <path style="fill:#FFA800;" d="M434.2,272.067h-25.6c11.947,0,21.333,9.387,21.333,21.333s-9.387,21.333-21.333,21.333h25.6 c11.947,0,21.333-9.387,21.333-21.333S446.147,272.067,434.2,272.067"/> <path style="fill:#FFE100;" d="M408.6,357.4h-51.2c-11.947,0-21.333-9.387-21.333-21.333s9.387-21.333,21.333-21.333h51.2 c11.947,0,21.333,9.387,21.333,21.333S420.547,357.4,408.6,357.4"/> <path style="fill:#FFA800;" d="M434.2,314.733h-25.6c11.947,0,21.333,9.387,21.333,21.333S420.547,357.4,408.6,357.4h25.6 c11.947,0,21.333-9.387,21.333-21.333S446.147,314.733,434.2,314.733"/> <path style="fill:#FFE100;" d="M408.6,400.067h-51.2c-11.947,0-21.333-9.387-21.333-21.333c0-11.947,9.387-21.333,21.333-21.333 h51.2c11.947,0,21.333,9.387,21.333,21.333C429.933,390.68,420.547,400.067,408.6,400.067"/> <path style="fill:#FFA800;" d="M434.2,357.4h-25.6c11.947,0,21.333,9.387,21.333,21.333c0,11.947-9.387,21.333-21.333,21.333h25.6 c11.947,0,21.333-9.387,21.333-21.333C455.533,366.787,446.147,357.4,434.2,357.4"/> <path style="fill:#FFE100;" d="M242.2,33.133H191c-37.547,0-68.267,30.72-68.267,68.267v17.067l8.533,25.6l17.067-25.6V101.4 c0-9.387,7.68-17.067,17.067-17.067h75.093L242.2,33.133z"/> <path style="fill:#FFFFFF;" d="M131.267,144.067l-8.533-25.6V101.4c0-37.547,30.72-68.267,68.267-68.267h-25.6 c-37.547,0-68.267,30.72-68.267,68.267v17.067l25.6,42.667"/> <path style="fill:#FFE100;" d="M269.507,502.467h-29.013c-8.533,0-15.36-6.827-15.36-15.36L242.2,7.533h26.453l16.213,479.573 C284.867,495.64,278.04,502.467,269.507,502.467"/> <path style="fill:#FFA800;" d="M292.547,7.533H267.8l16.213,479.573c0,8.533-6.827,15.36-15.36,15.36H293.4 c8.533,0,15.36-6.827,15.36-15.36L292.547,7.533z"/> <path style="fill:#FFFFFF;" d="M114.2,242.2v-26.453c0-6.827,5.973-12.8,12.8-12.8h-17.067c-7.68,0.853-12.8,6.827-12.8,13.653 v26.453c0,5.973,5.12,11.947,12.8,11.947H127C119.32,255,114.2,249.027,114.2,242.2"/> <path style="fill:#FFE100;" d="M233.667,365.933H80.92c-10.24,0-17.92,8.533-17.92,17.92v14.507c0,10.24,7.68,18.773,17.92,18.773 h151.04L233.667,365.933z"/> <path style="fill:#FFFFFF;" d="M63,399.213v-14.507c0-10.24,7.68-18.773,17.92-18.773h-25.6c-10.24,0-17.92,8.533-17.92,17.92 v14.507c0,10.24,7.68,18.773,17.92,18.773h25.6C70.68,417.133,63,408.6,63,399.213"/> <g> <path style="fill:#FFE100;" d="M88.6,511c-5.12,0-8.533-3.413-8.533-8.533v-85.333c0-5.12,3.413-8.533,8.533-8.533 c5.12,0,8.533,3.413,8.533,8.533v85.333C97.133,507.587,92.867,511,88.6,511z"/> <path style="fill:#FFE100;" d="M131.267,212.333c-5.12,0-8.533-3.413-8.533-8.533v-42.667c0-5.12,3.413-8.533,8.533-8.533 c5.12,0,8.533,3.413,8.533,8.533V203.8C139.8,208.92,135.533,212.333,131.267,212.333z"/> <path style="fill:#FFE100;" d="M370.2,109.933c-14.507,0-25.6-11.093-25.6-25.6s11.093-25.6,25.6-25.6 c14.507,0,25.6,11.093,25.6,25.6S383.853,109.933,370.2,109.933 M370.2,33.133h-75.947l1.707,51.2H319 c0,28.16,23.04,51.2,51.2,51.2v136.533h25.6V84.333C395.8,56.173,398.36,33.133,370.2,33.133"/> </g> <path style="fill:#FFA800;" d="M370.2,33.133c28.16,0,25.6,23.04,25.6,51.2v187.733h25.6V84.333 C421.4,56.173,398.36,33.133,370.2,33.133"/> <g> <path style="fill:#FFE100;" d="M459.8,272.067h-25.6c11.947,0,21.333,9.387,21.333,21.333s-9.387,21.333-21.333,21.333h25.6 c11.947,0,21.333-9.387,21.333-21.333S471.747,272.067,459.8,272.067"/> <path style="fill:#FFE100;" d="M459.8,314.733h-25.6c11.947,0,21.333,9.387,21.333,21.333S446.147,357.4,434.2,357.4h25.6 c11.947,0,21.333-9.387,21.333-21.333S471.747,314.733,459.8,314.733"/> <path style="fill:#FFE100;" d="M459.8,357.4h-25.6c11.947,0,21.333,9.387,21.333,21.333c0,11.947-9.387,21.333-21.333,21.333h25.6 c11.947,0,21.333-9.387,21.333-21.333C481.133,366.787,471.747,357.4,459.8,357.4"/> <path style="fill:#FFE100;" d="M395.8,33.133c28.16,0,25.6,23.04,25.6,51.2v187.733H447V84.333 C447,56.173,423.96,33.133,395.8,33.133"/> </g> <path d="M80.067,511c-5.12,0-8.533-3.413-8.533-8.533v-85.333c0-5.12,3.413-8.533,8.533-8.533c5.12,0,8.533,3.413,8.533,8.533 v85.333C88.6,507.587,84.333,511,80.067,511z"/> <path d="M295.107,511h-54.613c-6.827,0-12.8-2.56-17.067-6.827c-4.267-4.267-6.827-11.093-6.827-17.067l10.24-274.773 c0-5.12,3.413-8.533,8.533-8.533s8.533,4.267,8.533,8.533l-9.387,274.773c0,1.707,0.853,3.413,1.707,5.12 c0.853,0.853,2.56,1.707,4.267,1.707h54.613c1.707,0,3.413-0.853,4.267-1.707c0.853-1.707,1.707-2.56,1.707-5.12l-16.213-471.04 h-34.133l-4.267,128c0,5.12-4.267,8.533-8.533,8.533c-5.12,0-8.533-4.267-8.533-8.533l4.267-136.533 c0-4.267,4.267-8.533,8.533-8.533h51.2c4.267,0,8.533,3.413,8.533,8.533l16.213,479.573c0,6.827-1.707,12.8-6.827,17.067 C307.053,508.44,301.08,511,295.107,511z"/> <path d="M244.76,178.2c0-5.12-3.413-8.533-8.533-8.533c-5.12,0-8.533,3.413-8.533,8.533c0,5.12,3.413,8.533,8.533,8.533 C241.347,186.733,244.76,183.32,244.76,178.2"/> <path d="M370.2,118.467c-18.773,0-34.133-15.36-34.133-34.133S351.427,50.2,370.2,50.2s34.133,15.36,34.133,34.133 S388.973,118.467,370.2,118.467z M370.2,67.267c-9.387,0-17.067,7.68-17.067,17.067s7.68,17.067,17.067,17.067 s17.067-7.68,17.067-17.067S379.587,67.267,370.2,67.267z"/> <path d="M434.2,323.267h-76.8c-16.213,0-29.867-13.653-29.867-29.867s13.653-29.867,29.867-29.867h76.8 c16.213,0,29.867,13.653,29.867,29.867S450.413,323.267,434.2,323.267z M357.4,280.6c-6.827,0-12.8,5.973-12.8,12.8 s5.973,12.8,12.8,12.8h76.8c6.827,0,12.8-5.973,12.8-12.8s-5.973-12.8-12.8-12.8H357.4z"/> <path d="M434.2,365.933h-76.8c-16.213,0-29.867-13.653-29.867-29.867S341.187,306.2,357.4,306.2h76.8 c16.213,0,29.867,13.653,29.867,29.867S450.413,365.933,434.2,365.933z M357.4,323.267c-6.827,0-12.8,5.973-12.8,12.8 s5.973,12.8,12.8,12.8h76.8c6.827,0,12.8-5.973,12.8-12.8s-5.973-12.8-12.8-12.8H357.4z"/> <path d="M434.2,408.6h-76.8c-16.213,0-29.867-13.653-29.867-29.867c0-16.213,13.653-29.867,29.867-29.867h76.8 c16.213,0,29.867,13.653,29.867,29.867C464.067,394.947,450.413,408.6,434.2,408.6z M357.4,365.933c-6.827,0-12.8,5.973-12.8,12.8 s5.973,12.8,12.8,12.8h76.8c6.827,0,12.8-5.973,12.8-12.8s-5.973-12.8-12.8-12.8H357.4z"/> <path d="M370.2,84.333c-5.12,0-8.533-3.413-8.533-8.533V7.533c0-5.12,3.413-8.533,8.533-8.533s8.533,3.413,8.533,8.533V75.8 C378.733,80.92,374.467,84.333,370.2,84.333z"/> <path d="M135.533,263.533h-25.6c-11.947,0-21.333-9.387-21.333-21.333v-26.453c0-11.093,9.387-20.48,21.333-20.48h26.453 c11.947,0,21.333,9.387,21.333,21.333v26.453C156.867,254.147,147.48,263.533,135.533,263.533z M109.933,212.333 c-2.56,0-4.267,1.707-4.267,4.267v26.453c0,1.707,1.707,3.413,4.267,3.413h26.453c2.56,0,4.267-1.707,4.267-4.267v-26.453 c0-2.56-1.707-4.267-4.267-4.267h-26.453V212.333z"/> <path d="M122.733,212.333c-5.12,0-8.533-3.413-8.533-8.533v-42.667c0-5.12,3.413-8.533,8.533-8.533s8.533,3.413,8.533,8.533V203.8 C131.267,208.92,127,212.333,122.733,212.333z"/> <path d="M227.693,425.667H55.32c-14.507,0-26.453-11.947-26.453-26.453v-14.507c0-15.36,11.947-27.307,26.453-27.307H229.4 c2.56,0,4.267,0.853,5.973,2.56c1.707,1.707,2.56,4.267,2.56,5.973l-1.707,51.2C236.227,422.253,232.813,425.667,227.693,425.667z M55.32,374.467c-5.12,0-9.387,4.267-9.387,9.387v14.507c0,5.973,4.267,10.24,9.387,10.24h163.84l0.853-34.133H55.32z"/> <path d="M122.733,169.667c-3.413,0-5.973-1.707-7.68-4.267l-25.6-42.667c-0.853-0.853-0.853-2.56-0.853-4.267V101.4 c0-42.667,34.133-76.8,76.8-76.8h75.947c2.56,0,4.267,0.853,5.973,2.56c1.707,1.707,2.56,4.267,2.56,5.973l-1.707,51.2 c0,4.267-4.267,8.533-8.533,8.533H165.4c-5.12,0-8.533,3.413-8.533,8.533v17.067c0,1.707,0,3.413-0.853,4.267l-25.6,42.667 C128.707,167.96,125.293,169.667,122.733,169.667z M105.667,115.907l17.067,28.16l17.067-28.16V101.4 c0-14.507,11.093-25.6,25.6-25.6h65.707l0.853-34.133H165.4c-33.28,0-59.733,26.453-59.733,59.733V115.907z"/> <path d="M421.4,280.6h-51.2c-5.12,0-8.533-3.413-8.533-8.533V143.213c-26.453-3.413-46.933-24.747-50.347-50.347h-15.36 c-4.267,0-8.533-3.413-8.533-8.533l-1.707-51.2c0-2.56,0.853-4.267,2.56-5.973s3.413-2.56,5.973-2.56H370.2 c33.28,0,59.733,26.453,59.733,59.733v187.733C429.933,277.187,425.667,280.6,421.4,280.6z M378.733,263.533h34.133v-179.2 c0-23.893-18.773-42.667-42.667-42.667h-67.413L303.64,75.8H319c5.12,0,8.533,3.413,8.533,8.533 c0,23.893,18.773,42.667,42.667,42.667c5.12,0,8.533,3.413,8.533,8.533V263.533z"/> </g> </g>
</svg>