<!DOCTYPE svg PUBLIC "-//W3C//DTD SVG 1.1//EN" "http://www.w3.org/Graphics/SVG/1.1/DTD/svg11.dtd">
<!-- Uploaded to: SVG Repo, www.svgrepo.com, Transformed by: SVG Repo Mixer Tools -->
<svg height="100px" width="100px" version="1.1" id="Layer_1" xmlns="http://www.w3.org/2000/svg" xmlns:xlink="http://www.w3.org/1999/xlink" viewBox="0 0 512 512" xml:space="preserve" fill="#000000">
<g id="SVGRepo_bgCarrier" stroke-width="0"/>
<g id="SVGRepo_tracerCarrier" stroke-linecap="round" stroke-linejoin="round"/>
<g id="SVGRepo_iconCarrier"> <g transform="translate(1 1)"> <g> <path style="fill:#FFE100;" d="M229.4,502.467c-28.16,0-51.2-23.04-51.2-51.2V58.733c0-28.16,23.04-51.2,51.2-51.2 s51.2,23.04,51.2,51.2v392.533C280.6,479.427,257.56,502.467,229.4,502.467L229.4,502.467z"/> <path style="fill:#FFE100;" d="M331.8,451.267L331.8,451.267c-28.16,0-51.2-23.04-51.2-51.2V109.933c0-28.16,23.04-51.2,51.2-51.2 s51.2,23.04,51.2,51.2v290.133C383,428.227,359.96,451.267,331.8,451.267"/> <path style="fill:#FFE100;" d="M434.2,109.933c-4.267,0-8.533,0.853-12.8,1.707c22.187,5.973,38.4,25.6,38.4,49.493v187.733 c0,23.893-16.213,43.52-38.4,49.493c4.267,0.853,8.533,1.707,12.8,1.707c28.16,0,51.2-23.04,51.2-51.2V161.133 C485.4,132.973,462.36,109.933,434.2,109.933"/> </g> <path style="fill:#FDCC00;" d="M152.6,348.867H57.027c-8.533,0-15.36-6.827-15.36-15.36V176.493c0-8.533,6.827-15.36,15.36-15.36 H152.6V348.867z"/> <path style="fill:#FFFFFF;" d="M41.667,333.507V176.493c0-8.533,6.827-15.36,15.36-15.36h-25.6c-8.533,0-15.36,6.827-15.36,15.36 v157.013c0,8.533,6.827,15.36,15.36,15.36h25.6C48.493,348.867,41.667,342.04,41.667,333.507"/> <g> <path style="fill:#FFE100;" d="M203.8,502.467L203.8,502.467c-28.16,0-51.2-23.04-51.2-51.2V58.733c0-28.16,23.04-51.2,51.2-51.2 s51.2,23.04,51.2,51.2v392.533C255,479.427,231.96,502.467,203.8,502.467"/> <path style="fill:#FFE100;" d="M306.2,451.267L306.2,451.267c-28.16,0-51.2-23.04-51.2-51.2V109.933c0-28.16,23.04-51.2,51.2-51.2 s51.2,23.04,51.2,51.2v290.133C357.4,428.227,334.36,451.267,306.2,451.267"/> <path style="fill:#FFE100;" d="M383,400.067L383,400.067c-5.12,0-25.6-23.04-25.6-51.2V161.133c0-28.16,9.387-51.2,25.6-51.2 c28.16,0,51.2,23.04,51.2,51.2v187.733C434.2,377.027,411.16,400.067,383,400.067"/> </g> <g> <path style="fill:#FFA800;" d="M408.6,109.933c-4.267,0-8.533,0.853-12.8,1.707c22.187,5.973,38.4,25.6,38.4,49.493v187.733 c0,23.893-16.213,43.52-38.4,49.493c4.267,0.853,8.533,1.707,12.8,1.707c28.16,0,51.2-23.04,51.2-51.2V161.133 C459.8,132.973,436.76,109.933,408.6,109.933"/> <path style="fill:#FFA800;" d="M476.867,289.133H459.8v-76.8h17.067c9.387,0,17.067,7.68,17.067,17.067v42.667 C493.933,281.453,486.253,289.133,476.867,289.133"/> </g> <path style="fill:#FFE100;" d="M459.8,289.133L459.8,289.133v-76.8l0,0c9.387,0,17.067,7.68,17.067,17.067v42.667 C476.867,281.453,469.187,289.133,459.8,289.133"/> <path d="M152.6,357.4H31.427c-12.8,0-23.893-11.093-23.893-23.893V176.493c0-12.8,11.093-23.893,23.893-23.893H152.6 c5.12,0,8.533,3.413,8.533,8.533v187.733C161.133,353.987,156.867,357.4,152.6,357.4z M31.427,169.667 c-3.413,0-6.827,3.413-6.827,6.827v157.013c0,3.413,3.413,6.827,6.827,6.827h112.64V169.667H31.427z"/> <path d="M203.8,511c-33.28,0-59.733-26.453-59.733-59.733v-307.2c0-5.12,3.413-8.533,8.533-8.533c5.12,0,8.533,3.413,8.533,8.533 v307.2c0,23.893,18.773,42.667,42.667,42.667s42.667-18.773,42.667-42.667V58.733c0-23.893-18.773-42.667-42.667-42.667 s-42.667,18.773-42.667,42.667V75.8c0,5.12-3.413,8.533-8.533,8.533c-5.12,0-8.533-3.413-8.533-8.533V58.733 C144.067,25.453,170.52-1,203.8-1s59.733,26.453,59.733,59.733v392.533C263.533,484.547,237.08,511,203.8,511z"/> <path d="M161.133,109.933c0-5.12-3.413-8.533-8.533-8.533c-5.12,0-8.533,3.413-8.533,8.533s3.413,8.533,8.533,8.533 C157.72,118.467,161.133,115.053,161.133,109.933"/> <path d="M306.2,459.8c-33.28,0-59.733-26.453-59.733-59.733V109.933c0-33.28,26.453-59.733,59.733-59.733 s59.733,26.453,59.733,59.733v290.133C365.933,433.347,338.627,459.8,306.2,459.8z M306.2,67.267 c-23.893,0-42.667,18.773-42.667,42.667v290.133c0,23.893,18.773,42.667,42.667,42.667c23.893,0,42.667-18.773,42.667-42.667 V109.933C348.867,86.04,329.24,67.267,306.2,67.267z"/> <path d="M408.6,408.6c-33.28,0-59.733-26.453-59.733-59.733V161.133c0-33.28,26.453-59.733,59.733-59.733 s59.733,26.453,59.733,59.733v187.733C468.333,382.147,441.027,408.6,408.6,408.6z M408.6,118.467 c-23.893,0-42.667,18.773-42.667,42.667v187.733c0,23.893,18.773,42.667,42.667,42.667c23.893,0,42.667-18.773,42.667-42.667 V161.133C451.267,137.24,431.64,118.467,408.6,118.467z"/> <path d="M58.733,323.267H16.067c-5.12,0-8.533-3.413-8.533-8.533c0-5.12,3.413-8.533,8.533-8.533h42.667 c5.12,0,8.533,3.413,8.533,8.533C67.267,319.853,63,323.267,58.733,323.267z"/> <path d="M50.2,289.133H16.067c-5.12,0-8.533-3.413-8.533-8.533c0-5.12,3.413-8.533,8.533-8.533H50.2 c5.12,0,8.533,3.413,8.533,8.533S54.467,289.133,50.2,289.133z"/> <path d="M41.667,255h-25.6c-5.12,0-8.533-3.413-8.533-8.533c0-5.12,3.413-8.533,8.533-8.533h25.6c5.12,0,8.533,3.413,8.533,8.533 C50.2,251.587,45.933,255,41.667,255z"/> <path d="M476.867,297.667H459.8c-5.12,0-8.533-3.413-8.533-8.533v-76.8c0-5.12,3.413-8.533,8.533-8.533h17.067 c14.507,0,25.6,11.093,25.6,25.6v42.667C502.467,286.573,490.52,297.667,476.867,297.667z M468.333,280.6h8.533 c5.12,0,8.533-3.413,8.533-8.533V229.4c0-5.12-3.413-8.533-8.533-8.533h-8.533V280.6z"/> </g> </g>
</svg>