<!DOCTYPE svg PUBLIC "-//W3C//DTD SVG 1.1//EN" "http://www.w3.org/Graphics/SVG/1.1/DTD/svg11.dtd">
<!-- Uploaded to: SVG Repo, www.svgrepo.com, Transformed by: SVG Repo Mixer Tools -->
<svg height="100px" width="100px" version="1.1" id="Layer_1" xmlns="http://www.w3.org/2000/svg" xmlns:xlink="http://www.w3.org/1999/xlink" viewBox="0 0 512.64 512.64" xml:space="preserve" fill="#000000">
<g id="SVGRepo_bgCarrier" stroke-width="0"/>
<g id="SVGRepo_tracerCarrier" stroke-linecap="round" stroke-linejoin="round"/>
<g id="SVGRepo_iconCarrier"> <g transform="translate(0 1)"> <g> <path style="fill:#FFFFFF;" d="M85.333,103.747H68.267l34.987,146.773c4.267-2.56,19.627-5.12,24.747-6.827L85.333,103.747z"/> <path style="fill:#FFFFFF;" d="M106.667,355.48c-8.533-3.413-15.36-7.68-21.333-13.653l-42.667,86.187h24.747L106.667,355.48z"/> </g> <path style="fill:#FFE100;" d="M102.4,350.36l-42.667,77.653h18.773l42.667-69.12C107.52,358.04,111.787,359.747,102.4,350.36"/> <path style="fill:#FFA800;" d="M444.587,387.053c-4.267,2.56-9.387,5.12-13.653,6.827l6.827,34.133H409.6l0,0h43.52 L444.587,387.053z"/> <path style="fill:#FFE100;" d="M341.333,95.213l20.48,89.6c9.387-2.56,19.627-4.267,30.72-4.267c4.267,0,7.68,0,11.947,0.853 l-17.92-86.187H341.333z"/> <path style="fill:#FDCC00;" d="M366.933,257.347L160.427,240.28c-2.56,0-4.267,0-6.827,0c-33.28,0-59.733,26.453-59.733,59.733 s26.453,59.733,59.733,59.733c4.267,0,9.387-0.853,13.653-1.707l199.68-32.427c18.773,0,34.133-15.36,34.133-34.133 S385.707,257.347,366.933,257.347"/> <path style="fill:#FFFFFF;" d="M93.867,300.013c0-29.013,21.333-53.76,49.493-58.88l-8.533-0.853c-2.56,0-4.267,0-6.827,0 c-33.28,0-59.733,26.453-59.733,59.733S94.72,359.747,128,359.747c4.267,0,8.533-0.853,12.8-1.707 C113.493,352.067,93.867,328.173,93.867,300.013"/> <g> <path style="fill:#FFE100;" d="M128,325.613c-14.507,0-25.6-11.093-25.6-25.6c0-14.507,11.093-25.6,25.6-25.6 c14.507,0,25.6,11.093,25.6,25.6C153.6,314.52,141.653,325.613,128,325.613"/> <path style="fill:#FFE100;" d="M68.267,154.947H8.533c-5.12,0-8.533-3.413-8.533-8.533c0-5.12,3.413-8.533,8.533-8.533h59.733 c5.12,0,8.533,3.413,8.533,8.533C76.8,151.533,72.533,154.947,68.267,154.947z"/> <path style="fill:#FFE100;" d="M25.6,172.013c-5.12,0-8.533-3.413-8.533-8.533v-17.067c0-5.12,3.413-8.533,8.533-8.533 s8.533,3.413,8.533,8.533v17.067C34.133,168.6,29.867,172.013,25.6,172.013z"/> <path style="fill:#FFE100;" d="M443.733,462.147h-384c-9.387,0-17.067-7.68-17.067-17.067l0,0c0-9.387,7.68-17.067,17.067-17.067 h384c9.387,0,17.067,7.68,17.067,17.067l0,0C460.8,454.467,453.12,462.147,443.733,462.147"/> </g> <path style="fill:#FFFFFF;" d="M42.667,445.08L42.667,445.08c0-9.387,7.68-17.067,17.067-17.067h-25.6 c-9.387,0-17.067,7.68-17.067,17.067l0,0c0,9.387,7.68,17.067,17.067,17.067h25.6C50.347,462.147,42.667,454.467,42.667,445.08"/> <path style="fill:#FFA800;" d="M469.333,428.013h-25.6c9.387,0,17.067,7.68,17.067,17.067l0,0c0,9.387-7.68,17.067-17.067,17.067 h25.6c9.387,0,17.067-7.68,17.067-17.067l0,0C486.4,435.693,478.72,428.013,469.333,428.013"/> <g> <path style="fill:#FFE100;" d="M441.173,428.013l-8.533-40.107c-11.947,6.827-14.507,11.947-29.013,13.653l5.973,26.453H441.173z"/> <path style="fill:#FFE100;" d="M126.293,103.747h-48.64c-10.24,0-17.92-8.533-17.92-17.92V67.053 c0-11.947,11.093-20.48,22.187-17.92L130.56,66.2c8.533,1.707,14.507,9.387,14.507,17.92v0.853 C145.067,95.213,136.533,103.747,126.293,103.747"/> </g> <path style="fill:#FFFFFF;" d="M59.733,85.827V67.053c0-6.827,3.413-11.947,8.533-15.36l-11.947-2.56 c-11.093-2.56-22.187,5.973-22.187,17.92v18.773c0,9.387,7.68,17.92,17.92,17.92h25.6C67.413,103.747,59.733,95.213,59.733,85.827"/> <g> <path style="fill:#FFE100;" d="M119.467,240.28c2.56,0,4.267,0,6.827,0H128L93.867,103.747H76.8l34.987,146.773 C122.027,243.693,107.52,240.28,119.467,240.28"/> <path style="fill:#FFE100;" d="M453.12,154.947c-4.267,0-9.387-0.853-13.653-1.707c-26.453-7.68-29.867-29.013-29.867-48.64 c0-5.12,3.413-8.533,8.533-8.533s8.533,3.413,8.533,8.533c0,20.48,4.267,29.013,17.92,32.427 c7.68,1.707,16.213,1.707,24.747-1.707l31.573-12.8c4.267-1.707,9.387,0,11.093,5.12c1.707,4.267,0,9.387-5.12,11.093 l-31.573,12.8C467.627,153.24,459.947,154.947,453.12,154.947z"/> <path style="fill:#FFE100;" d="M409.6,95.213h-85.333c-5.12,0-8.533-3.413-8.533-8.533V69.613c0-5.12,3.413-8.533,8.533-8.533 H409.6c5.12,0,8.533,3.413,8.533,8.533V86.68C418.133,91.8,413.867,95.213,409.6,95.213"/> </g> <g> <path style="fill:#FFA800;" d="M435.2,61.08h-25.6c5.12,0,8.533,3.413,8.533,8.533V86.68c0,5.12-3.413,8.533-8.533,8.533h25.6 c5.12,0,8.533-3.413,8.533-8.533V69.613C443.733,64.493,439.467,61.08,435.2,61.08"/> <path style="fill:#FFA800;" d="M384,94.36h-17.067l17.92,85.333c1.707,0,3.413,0,5.12,0c4.267,0,7.68,0,11.947,0.853L384,94.36z"/> </g> <path style="fill:#FFE100;" d="M375.467,180.547c-46.933,0-69.973,29.013-86.187,69.973l103.253,6.827 c18.773,0,34.133,15.36,34.133,34.133s-15.36,34.133-34.133,34.133l-100.693,12.8c17.92,37.547,39.253,64,83.627,64 c61.44,0,102.4-49.493,102.4-110.933S436.907,180.547,375.467,180.547"/> <g> <path style="fill:#FFA800;" d="M392.533,180.547c-3.413,0-5.973,0-9.387,0c57.173,4.267,94.72,52.053,94.72,110.933 s-37.547,106.667-94.72,110.933c3.413,0,5.973,0,9.387,0c61.44,0,110.933-49.493,110.933-110.933S453.973,180.547,392.533,180.547 "/> <path style="fill:#FFA800;" d="M392.533,257.347L134.827,240.28l232.107,17.067c18.773,0,34.133,15.36,34.133,34.133 s-15.36,34.133-34.133,34.133l-225.28,32.427l250.88-32.427c18.773,0,34.133-15.36,34.133-34.133S411.307,257.347,392.533,257.347 "/> <path style="fill:#FFA800;" d="M128,274.413c-3.413,0-5.973,0.853-8.533,1.707c10.24,3.413,17.067,12.8,17.067,23.893 c0,11.093-6.827,20.48-17.067,23.893c2.56,0.853,5.12,1.707,8.533,1.707c14.507,0,25.6-11.093,25.6-25.6 C153.6,285.507,141.653,274.413,128,274.413"/> </g> <path d="M128,334.147c-18.773,0-34.133-15.36-34.133-34.133c0-18.773,15.36-34.133,34.133-34.133 c18.773,0,34.133,15.36,34.133,34.133C162.133,318.787,146.773,334.147,128,334.147z M128,282.947 c-9.387,0-17.067,7.68-17.067,17.067c0,9.387,7.68,17.067,17.067,17.067s17.067-7.68,17.067-17.067 C145.067,290.627,137.387,282.947,128,282.947z"/> <path d="M128,368.28c-37.547,0-68.267-30.72-68.267-68.267s30.72-68.267,68.267-68.267c2.56,0,5.12,0,7.68,0.853l256.853,16.213 c23.04,0,42.667,19.627,42.667,42.667s-18.773,42.667-41.813,42.667l-250.88,32.427C138.24,367.427,133.12,368.28,128,368.28z M128,248.813c-28.16,0-51.2,23.04-51.2,51.2c0,31.573,29.013,58.027,63.147,49.493L391.68,317.08h0.853 c14.507,0,25.6-11.093,25.6-25.6s-11.093-25.6-25.6-25.6c0,0,0,0-0.853,0l-257.707-17.067 C131.413,248.813,129.707,248.813,128,248.813z"/> <path d="M126.293,112.28h-74.24c-14.507,0-26.453-11.947-26.453-26.453V67.053c0-8.533,3.413-16.213,10.24-21.333 s14.507-6.827,23.04-5.12l74.24,17.067C145.067,61.08,153.6,71.32,153.6,84.12C153.6,100.333,141.653,112.28,126.293,112.28z M52.053,56.813c-2.56,0-4.267,0.853-5.973,1.707c-2.56,2.56-3.413,5.12-3.413,8.533v18.773c0,5.12,4.267,9.387,9.387,9.387h74.24 c5.973,0,10.24-4.267,10.24-10.24c0-5.12-3.413-9.387-7.68-10.24l-74.24-17.067C53.76,57.667,52.907,56.813,52.053,56.813z"/> <path d="M469.333,470.68h-307.2c-5.12,0-8.533-3.413-8.533-8.533s3.413-8.533,8.533-8.533h307.2c4.267,0,8.533-3.413,8.533-8.533 c0-5.12-3.413-8.533-8.533-8.533h-435.2c-4.267,0-8.533,3.413-8.533,8.533c0,5.12,3.413,8.533,8.533,8.533h59.733 c5.12,0,8.533,3.413,8.533,8.533s-3.413,8.533-8.533,8.533H34.133c-13.653,0-25.6-11.093-25.6-25.6c0-14.507,11.093-25.6,25.6-25.6 h435.2c13.653,0,25.6,11.093,25.6,25.6C494.933,459.587,483.84,470.68,469.333,470.68z"/> <path d="M136.533,462.147c0-5.12-3.413-8.533-8.533-8.533c-5.12,0-8.533,3.413-8.533,8.533s3.413,8.533,8.533,8.533 C133.12,470.68,136.533,467.267,136.533,462.147"/> <path d="M435.2,103.747H324.267c-9.387,0-17.067-7.68-17.067-17.067V69.613c0-9.387,7.68-17.067,17.067-17.067H435.2 c9.387,0,17.067,7.68,17.067,17.067V86.68C452.267,96.067,444.587,103.747,435.2,103.747z M324.267,69.613V86.68H435.2V69.613 H324.267z"/> <path d="M453.12,145.56c-4.267,0-9.387-0.853-13.653-1.707c-26.453-6.827-29.867-29.013-29.867-48.64 c0-5.12,3.413-8.533,8.533-8.533s8.533,3.413,8.533,8.533c0,20.48,4.267,29.013,17.92,32.427c7.68,1.707,16.213,1.707,24.747-1.707 l31.573-12.8c4.267-1.707,9.387,0,11.093,5.12c1.707,5.12,0,9.387-5.12,11.093l-31.573,12.8 C467.627,143.853,459.947,145.56,453.12,145.56z"/> <path d="M68.267,146.413H8.533C3.413,146.413,0,143,0,137.88c0-5.12,3.413-8.533,8.533-8.533h59.733 c5.12,0,8.533,3.413,8.533,8.533C76.8,143,72.533,146.413,68.267,146.413z"/> <path d="M25.6,163.48c-5.12,0-8.533-3.413-8.533-8.533V137.88c0-5.12,3.413-8.533,8.533-8.533s8.533,3.413,8.533,8.533v17.067 C34.133,160.067,29.867,163.48,25.6,163.48z"/> <path d="M392.533,410.947c-46.08,0-88.747-27.307-108.373-69.12l-5.12-10.24l113.493-14.507c14.507,0,25.6-11.093,25.6-25.6 s-11.093-25.6-25.6-25.6l-115.2-7.68l4.267-11.093c17.92-46.08,61.44-75.947,110.933-75.947C458.24,171.16,512,224.92,512,290.627 S458.24,410.947,392.533,410.947z M305.493,345.24c18.773,29.867,51.2,48.64,87.04,48.64c56.32,0,102.4-46.08,102.4-102.4 s-46.08-102.4-102.4-102.4c-38.4,0-72.533,20.48-90.453,53.76l91.307,5.973l0,0c23.04,0,41.813,18.773,41.813,42.667 c0,23.04-18.773,42.667-41.813,42.667L305.493,345.24z"/> <path d="M413.867,436.547c-4.267,0-7.68-2.56-8.533-6.827l-5.973-26.453c-0.853-2.56,0-5.12,1.707-6.827 c1.707-1.707,3.413-3.413,5.973-3.413c13.653-1.707,25.6-5.973,37.547-12.8c2.56-1.707,5.12-1.707,7.68-0.853 c2.56,0.853,4.267,3.413,5.12,5.973l8.533,40.107c0.853,2.56,0,5.12-1.707,6.827c-1.707,1.707-5.12,4.267-7.68,4.267H413.867 L413.867,436.547z M418.133,408.387l2.56,11.093h25.6l-4.267-19.627C434.347,403.267,426.667,405.827,418.133,408.387z"/> <path d="M361.813,193.347c-1.707,0-3.413,0-4.267-0.853c-1.707-0.853-3.413-3.413-4.267-5.12L332.8,96.92 c-0.853-2.56,0-5.12,1.707-6.827c1.707-2.56,4.267-3.413,6.827-3.413h45.227c4.267,0,7.68,2.56,8.533,6.827l17.92,86.187 c0.853,2.56,0,5.12-1.707,7.68c-1.707,2.56-4.267,3.413-6.827,2.56c-5.12-0.853-8.533-0.853-11.947-0.853 c-9.387,0-18.773,1.707-28.16,4.267C363.52,193.347,362.667,193.347,361.813,193.347z M351.573,103.747l16.213,70.827 c8.533-1.707,17.067-2.56,25.6-2.56l-14.507-68.267H351.573z"/> <path d="M85.333,436.547H42.667c-2.56,0-5.973-1.707-7.68-4.267s-1.707-5.973,0-8.533l42.667-86.187 c0.853-2.56,3.413-4.267,5.973-4.267c2.56-0.853,5.12,0.853,7.68,2.56c8.533,8.533,18.773,13.653,30.72,14.507 c2.56,0,5.12,1.707,6.827,4.267s1.707,5.12,0,7.68l-35.84,69.12C91.307,434.84,88.747,436.547,85.333,436.547z M56.32,419.48 h23.893l28.16-53.76c-6.827-2.56-13.653-5.12-19.627-9.387L56.32,419.48z"/> <path d="M94.72,259.053c-0.853,0-1.707,0-3.413-0.853c-2.56-0.853-4.267-3.413-5.12-5.973L51.2,105.453 c-0.853-2.56,0-5.12,1.707-6.827s4.267-3.413,6.827-3.413H102.4c4.267,0,7.68,2.56,8.533,6.827l34.133,137.387 c0.853,2.56,0,5.12-1.707,7.68c-1.707,1.707-4.267,3.413-6.827,3.413h-1.707c-2.56,0-4.267,0-5.973,0 c-10.24,0-19.627,2.56-28.16,8.533C98.133,258.2,96.427,259.053,94.72,259.053z M70.827,112.28l29.867,125.44 c7.68-3.413,16.213-5.12,24.747-5.973L95.573,112.28H70.827z"/> </g> </g>
</svg>